<mxfile host="app.diagrams.net" modified="2021-10-26T12:47:48.430Z" agent="5.0 (X11)" etag="s9km6CIla57tZcfKgAiO" version="15.5.9" type="github">
  <diagram id="i6RW82TBRUcGXGP1n-DH" name="Page-1">
    <mxGraphModel dx="1929" dy="1133" grid="1" gridSize="10" guides="1" tooltips="1" connect="1" arrows="1" fold="1" page="1" pageScale="1" pageWidth="827" pageHeight="1169" math="0" shadow="0">
      <root>
        <mxCell id="0" />
        <mxCell id="1" parent="0" />
        <mxCell id="QxIThn4V1b4HbERtiuYh-6" style="edgeStyle=orthogonalEdgeStyle;rounded=0;orthogonalLoop=1;jettySize=auto;html=1;entryX=0.004;entryY=0.357;entryDx=0;entryDy=0;entryPerimeter=0;dashed=1;dashPattern=1 4;fontFamily=Verdana;fontSize=18;endSize=18;strokeWidth=3;" edge="1" parent="1">
          <mxGeometry relative="1" as="geometry">
            <mxPoint x="191.5" y="480.70000000000005" as="sourcePoint" />
            <mxPoint x="446.79999999999995" y="481.96000000000004" as="targetPoint" />
            <Array as="points">
              <mxPoint x="313" y="481" />
              <mxPoint x="313" y="482" />
            </Array>
          </mxGeometry>
        </mxCell>
        <mxCell id="tc2cRqG1eZlLA8XT75nJ-20" value="&lt;font style=&quot;font-size: 18px&quot;&gt;MySQL (MariaDB)&lt;br&gt;&lt;/font&gt;" style="aspect=fixed;html=1;points=[];align=center;image;fontSize=12;image=img/lib/azure2/databases/Azure_Database_MariaDB_Server.svg;dashed=1;fontFamily=Verdana;strokeColor=#000000;strokeWidth=2;" parent="1" vertex="1">
          <mxGeometry x="58.5" y="380" width="133" height="177.33" as="geometry" />
        </mxCell>
        <mxCell id="QxIThn4V1b4HbERtiuYh-5" style="edgeStyle=orthogonalEdgeStyle;rounded=0;orthogonalLoop=1;jettySize=auto;html=1;exitX=1;exitY=0.5;exitDx=0;exitDy=0;dashed=1;dashPattern=1 4;fontFamily=Verdana;fontSize=18;endSize=18;strokeWidth=3;" edge="1" parent="1" source="tc2cRqG1eZlLA8XT75nJ-28" target="tc2cRqG1eZlLA8XT75nJ-35">
          <mxGeometry relative="1" as="geometry">
            <Array as="points">
              <mxPoint x="318" y="236" />
              <mxPoint x="318" y="440" />
            </Array>
          </mxGeometry>
        </mxCell>
        <mxCell id="tc2cRqG1eZlLA8XT75nJ-28" value="NoSQL (MongoDB)" style="shape=image;verticalLabelPosition=bottom;labelBackgroundColor=#ffffff;verticalAlign=top;aspect=fixed;imageAspect=0;image=data:image/png,iVBORw0KGgoAAAANSUhEUgAAALQAAADPCAMAAABr9gsCAAAABGdBTUEAALGPC/xhBQAAACBjSFJNAAB6JgAAgIQAAPoAAACA6AAAdTAAAOpgAAA6mAAAF3CculE8AAABj1BMVEUAAAAAKk8AK08AK08AK08AK08AK08AKk4AKk8AKk8AKk8AKk8AKk8AKk8AKk8AK08AK08AK08AK08AK08AK08AK08AK08AK08AK08AK08AK08AK08IaU8JYE8QqlASkk8Skk8Skk8Skk8Skk8QqlAQqlAQqlAQqlASkk8NkVAKd1AOfk8QqlASkk8Skk8QqlASkk8QqlASkk8QqlAQqlASkk8QqlAIaE8Po1ATjlEJXE8AKk8AK08CO08IXU8BMU8LdVAFRU8MgVAIWE8Ok1AQhU8RpFASkk8HUk8Ke1ADQ08QqlAKZU8Nk1AMck8BM08Lg1AJX08GS08Po1ARjE8DPk8Pf08LbE8Jc1AGW08OeU8Om1AHY08COE8ES08Ia1AMi1AFU08QqFAmmF07nmtaqIFvro+Ot6UkrV6uwbs6sGy4xMJPtHpQpXpkt4l6sZeOvaWtwrtFoXN5updEsnN9pJsMO1YrnWStu7sMNVYjSGU6W3OisbSLnqZzi5dRboIuUWwXPl1ceIkGMFP///8euUJUAAAAO3RSTlMAPz9ff6DAHy9vf6DA4F8wUIDw4JBwQCAQsNBgxPiAoMDgIEBwQBDgMO/y79DwEDCAoNDwUGDAZNzeZKpz4cAAAAABYktHRIRi0FpxAAAAB3RJTUUH5QoaCTApbWwa2wAAAAFvck5UAc+id5oAAApdSURBVHja7Z35f9vEEsBNQAJK37Mk25Jtvfe4y1nuOwo3FY0aEmgpCYamQDmKue+WVyjwjyPLVaxjj5mdWSf5fJgfk09W305nR7Mzs6NOh0uuW1m5/oZcHLclsx/fsLKyciPbw2hy08rNR245enR1dTUByOrqv44ePXLk3/uF3/V8xw0gpGLpuf1BGC0Ndxj6o7E5bV1m6LaBc94eF+9Cxk7ctaRgr8+mX4EEowE3eNd3LQIvwGM2K/ccwobDythnULgx8Zoxd69P4u4SdPw8Sd+DoRnxMCY5iudfoPx1kjgGrjDqEw35xZdof5+bSYxEdqhPTF5+hbxE0vPhVsKAnCSvvsawSBIMgLbsczxt7UT6Osc6Sc8DMHs8TvnkifQ14lYsxdW9cYYjngetZyfS9BTPWjobCbnefRsz6JTsQEoZKTbkgOshJ7MCmstAcsuWviQ5nEbJXECnb3CtmARdu8ybW1kJnb7JR+1ZZd7IFtDpW3zUAl3HTGuvn86q0Gfe5qNu7cYuM3MJzbgZE7cJzXQy2WPeg07P8lHHVoxjwbyATt9hg+7ZUHSFuQLNSF1TdcSy5DW/0YJme58nI3brqDHXoJkCvlyq0CzR6FYmhWajrgZ8HC+W7UwBzeWuQ959uJOpoLncNS901XGIoNN3Dx705iTTQPO4EFborUwLzXIk4IR+LwNAn2Ewa0bo9QwCzWHWfND1t4ocOqXnb/igtzMg9Jn3Dwz0uQwKTTcQLui2t5NDkw2EC3o3Q0BTDYQJej3DQFMNhAn6PA6aeDzngd7JkNC0yIkFWrILFdC0/A0L9G6Ghk4pe5EDevO0ATTlnMsBvZ0ZQFPCPQbotcwImuD2GKBPmkETVE2HVilaCW2uajr0tim0uarJ0ArXoYM2VjUZejczhjZWNRl6QoA2VXUV2qR6uJMRoFPDjFMV2iSXd54EbfharEIbFBDXMhK0YQRSYTapuGwToY2CvXEVuoNvopkQoY06K+pFcrRRf5ARoY2OMPV+hCG2kn+SDG1Qgu536uIh//40GRq/FdvVT5yr1loHABqdA2n3jw1RnaRa6wBAn0Uyi1pVUNRa6wBAI+3D6XRo1OtaZgg0yj7EzBjqXRZojH0o2pj6wCU2WKDh9hEoezhhDW6bemYQNNQ+dE1uoB43vcODQcOiakgXZKiPQwAmDYJOIXk9R6bmuskMdDZyngtaH3+4NbSazhvds0NfjQ1ghkGfQiHnr+0qp9tsVR4OFEYC8NJA6LMo5M6wfrBtNNrMJJaednfYoBVGHQhs2W+cxkU7VNatDtmHQGhZKmEcC7pLo6ABHYj3qPDyBWQfAqGFh66eL4ZxW3mPsaxxts094YNue+qx9MLI7HTVTNbIIpJcwvoNKAgzEPpMnXg0kL/7ij6rVoZJQZ3bU+yU/gTkPIDQlfDD9ZUBxrw3rJ0WczR3HaK40Pg5TuhiJwYa4D1mUS5vDLjvFQ7+wwn9X9f3AE8tw09RAlLcpNyQ/3FC3wp4YGe498oQZ037+uswrNC3AZgr8bIk1au/V8IKfbsWOaoGy9L8tKu5WccKneosox67KZLqTnRQoOPGi01ZCVBh80LfodBy+3KhpnwxCpcDfafUlkVBvbbm0pNcv7xrGdChuGcXUigaeYL17rYOHfmyIwisuhU43pKho4EiZwQuyQVOPSK3Cd311VkuVB3RrVznPmYJergIJHmgZwoflaGYBegIOLTAqGLr9uNu5x5O6HvzuBE+FcK8zHwfJzSurmYOrS8DIKBRTyZAM6YQlgcNSZpCoZGFF3NovrQYuoeC0O/BCI0sgRKgAdULKDSyrk+AhrgPIDTyUhcBGpI2xeQ9lgIN2YlAaGRjMqXxSl+wNcvlWYXe4oLGdo1RoN/jgsY2BVGgeWrjKb69htRMyNKFkOIbVUjQHP0eqUH3FQmao7MmNWgprEJDuw/2RF/SB0GjLznT2ja1Tg8Eje69qmbr8JfdtW9yCDS+obCabsCPFdDaBwT6FPaptbECBg3UOv8BgUa3ftdL+CEaWuc/ANDYwKM5KsNA1RMyNNrhNXsluuixUbtkaOw7vDX+Be9A1qjQWN8RCNLl6MkTW0ToU0hmYf0KS32OCI17s3CNvJqQoHHxfyCtEyLteocEjYo7xoraJqAnD6pq1jsBI2XxGzfkb4cAjWjp1bdAehhlT4yhEXMzRoDWCl0nIVDVGmjwibYnLcLW/y2IEaETQ2ioohsDWWvbsWk0YOwdQ2iYolszZGt3RtqDcSOgkWwYQYMUPW6Pva3ZituORTrDGFIkO2cEDVC0aMBw3DiNC829C5gyvGUArfXRwq7N2Q2zOvS4Ixbt0Ow1A2h1TDqWdRT6rbxHvyMTr6903aihJIW8a0I8v3/YTNaopj13B4qTzQQJLZ2m0nNixes6CgTQiWZGdSibYI8YtCPfhT3dyP35JZx2Wkw/WVtcxgaPNCqkXTl0+/pR+9HclQlyeb6WulN8RsKp61w4mUQKXb3HHBQNAgApj7CiBOQIPA48Cv2+W2pdZCAfSpivRXdj149D8NP2Li4Ls6Y9XXdtiz3O4d37BdRi5gdGvu/Baef/t4t4WZLqBTSbtuXYg23oj0TMxx/CL169miXLTwfISfeFPNyGviCCvhO9clTbP/KkOtZGZtJu1vtYwPwIGrkRbqoqAS4e+9Em9CdtZlCztAJZV77Afg6hbdaftpgfwxm0KKjX1VwCH/dxlYcfrzF/dpG2CcUXmgCFohFK3U/UoD+fNtzH8XsRSpbFxKDqlqBrUy61zfjF9Ms6NJhZ1bcJLckhuKub8avp1zXmJ+nECOjCTgYw+35qAf3N9CKaWRO5I6GTItjVg1dcyLfT6XcY5hD07SaDim0e9Goc+B71Z9NpxT7UzJHXh1ZPTMvMY2egCHiO3VPuw1w+0jJHno/6uBupNh5IPwV3zV1/P91T9XFhwBF6zbDcOnSpdbefh8VdAfW3M+jphZZ/Hoah74+MP53HOhW557p5oOwPwlyefibLfiiYpxcvpM8+l//Iy3+Xh930MdfMk74rsrkxt46Z/PgT69L2oJPNn0vmXy7xrmwROrlcQv/KvLBN6OT/c+Yr3Otahf7NjqLtQv86t2juZe1CXyqgfztc0HOj/v2QQRdGffWQQf8+g/7jkEFfnUGzr2oZ+tJhhE7sQzN9q68qV6xDs3w5pw192So02+f6FvKnFZdXPU9wfd/MNjR12ua+QBOnbWrlqg3oxowr9m9G24CmTtvUymV+6HYLJNu3M0v54wo3NHXaJkgu/cW6HHna5j4IedrmgWE+2NSKQgr6vsuShGPa5rLF1ZS+ub4ozShM0zaXKrqJZ9dEO21ziQIveGN6ZA8IcoEdHwAjMWgr8CycdhESOLjSfCmRthZpT8mxSYNPqW5d16YN6SH7H/afe+yDet70EsJG99AFWoMHCmRIEk30wyuNBFHDxslixJMlCQcG1WEFL2zaJod0PX9ERS/K6wTHZijDMPYdF7tHA9f1/dCuOYAUP6vS5/yy6ncw+03f9+NwH1T7j5jL3wG7FqMeDmSuAAAAJXRFWHRkYXRlOmNyZWF0ZQAyMDIxLTEwLTI2VDA5OjQ4OjI0KzAwOjAwa4/apwAAACV0RVh0ZGF0ZTptb2RpZnkAMjAyMS0xMC0yNlQwOTo0ODoyNCswMDowMBrSYhsAAAAASUVORK5CYII=;direction=east;fontSize=18;" parent="1" vertex="1">
          <mxGeometry x="50" y="150" width="150" height="172.5" as="geometry" />
        </mxCell>
        <mxCell id="tc2cRqG1eZlLA8XT75nJ-31" value="" style="shape=image;verticalLabelPosition=bottom;labelBackgroundColor=#ffffff;verticalAlign=middle;aspect=fixed;imageAspect=0;image=data:image/png,iVBORw0KGgoAAAANSUhEUgAACF4AAAheCAYAAAAj/gxMAAAgAElEQVR4nOzde4xe52Hn91eUZOvim2RL1PucM0OKpsgZ0nEUTxxvtmogu2zSdSOnxYYLNBsoSV1wt9kWxGYXoJMmW6LbbYlgtwuh2AuBNLJmhrqMLcc2ZVoUyfecQ7KynZ31Ja3EGYqkLqauFOc8Z4YUJVni6R+yXPomUSSHz1w+H+D7ryXB1Mw5v+fR+3Y6AAAAAAAAAAAAAAAAAAAAAAAAAAAAAAAAAAAAAAAAAAAAAAAAAAAAAAAAAAAAAAAAAAAAAAAAAAAAAAAAAAAAAAAAAAAAAAAAAAAAAAAAAAAAAAAAAAAAAAAAAAAAAAAAAAAAAAAAAAAAAAAAAAAAAAAAAAAAAAAAAAAAAAAAAAAAAAAAAAAAAAAAAAAAAAAAAAAAAAAAAAAAAAAAAAAAAAAAAAAAAAAAAAAAAAAAAAAAAAAAAAAAAAAAAAAAAAAAAAAAAAAAAAAAAAAAAAAAAAAAAAAAAAAAAAAAAAAAAAAAAAAAAAAAAAAAAAAAAAAAAAAAAAAAAAAAAAAAAAAAAAAAAAAAAAAAAAAAAAAAAAAAAAAAAAAAAAAAAAAAAAAAAAAAAAAAAAAAAAAAAAAAAAAAAAAAAAAAAAAAAAAAAAAAAAAAAAAAAAAAAAAAAAAAAAAAAAAAAAAAAAAAAAAAAAAAAAAAAAAAAAAAAAAAAAAAAAAAAAAAAAAAAAAAAAAAAAAAAAAAAAAAAAAAAAAAAAAAAAAAAAAAAAAAAAAAAAAAAAAAAAAAAAAAAAAAAAAAAAAAAAAAAAAAAAAAAAAAAAAAAAAAAAAAAAAAAAAAAAAAAAAAAAAAAAAAAAAAAAAAAAAAAAAAAAAAAAAAAAAAAAAAAAAAAAAAAAAAAAAAAAAAAAAAAAAAAAAAAAAAAAAAAAAAAAAAAAAAAAAAAAAAAAAAAAAAAAAAP9K2nSVxX/81LxVZ/nKRr4y97tDMnr5fi0VYN1Nkvx3LbP10lX829rob6l7fH8Uq31QX+eZYhC0zVd+/jlW+Nfayv4xlNhbLbKwpw9djme16o24RizD+Zk2VTcYqPxyr/HAss6dimU29VU0RXotFaM+mpgivvd3/Xiyzp9786zdVNnnm31ssu8Wbf98//GcYi2U2FnvZX8Yq3zpT9f3rWIQtdZFvjlW+qd6b/ePY626YrvLPxjJbP1Nkvx2LsG5mT9+vxV536OUiX/niw3kW9/Vf07adJan/fwYAAAAAAAAAfqgdH7q8/dbAB+O+/hUn9y77WF0sv3W6Cp9pivx3Z3rhD2ORfy4WYUtTdf9dU4VtdZltj0W2OxZhvCnDo7EMR9642JC9fLYXG3R+NUX28huXP8KRugqPvHHhI9tdl9n2pgrbmqr772IRtsQi/9xML/xhU+S/O12Fz9TF8ltP7l32sbivf0X7rYEPtuNDl6f+8wcAAAAAAAAAc0K7c+nVp/bcuKwult88syf71EyR/Xassn8Q93b/OPbyP49F+ItYhi/FIi9jmf1NLLKjsQonU18iUOKqcDKW2fdjlX3vjT8b4UuxCH/xxp+Z/HOx190wU2S/PbMn+1RdLL95ateK/nbn0qtT/3kHAAAAAAAAgLd0bP/q9zbfXHHTS+WyX50qw211Ff7bWOSfm97b/Vd1Lx9uynxHU4b/EKvwZCyzl5If4GtxVYWTsQpPNmX+103V/dp01b1rem/3X8Uq31TvC38wVYbbXiqX/erLRb7y2P7V70397xMAAAAAAAAAC0Tc13/N8f39a2MR1jVVdntTdTfGImype/lwLLNdb3x1RBaTH6xLF7CmzE7VZfZMLMJ4XWbbY5VvrYt8c1N1N8YyWz9V9N8S9/Wv8PUnAAAAAAAAAIvU1K4V7z++v3/tiV73N+p94Q9meuGfTRfdf1+X2fZYZN9tivBcU4bTqQ/Apblc0wuvN2V4NhbZd+sy2z5ddP/9TC/8s7ro+/24p+/Xj+/vXzu1a8X7U//7DgAAAAAAAMA70O5cevUru29Y01TLPh2Lvn84vbfvX0xX3btile1pynAgVuFk6gNraZF1oinDo7HIdk9X3buaovu/xir7B015w995ZfcNa9rxoatS/9wAAAAAAAAAWDTO/PqP2OtuiEXYEstsrC7C/ljlh31ShTQPK7OpugqPxDLbFat8a6zyTT/2tSZt55LUP3sAAAAAAAAA5oV2bP274r7+FfEnLlbEIozHKjTJD4glXfSaIns5Vvnhn7yYEXvdoXbn0qtT/9wCAAAAAAAAuKjivv5rmt7yT5youn9/Zm/fn02X2Z2xClUss+/7xApJ76SmF16PZfZULPIy9rK/nCn6/vRElf/OS3vzX4n7+q9J/fMOAAAAAAAA4Jy0O1a+O+7rXzFVhttilW+KVb71h/+1+uHUB7WSFlFlNhWLMP7DT87Z0lTZ7bHXHTq2f/V7U/+cBAAAAAAAABa5tu0sifv6VzTVsk9PF+Gf/vByRS8W2dHkh62S9HaV2fdjmfVilW+tq75/0lTLPh339a9o286S1D9fAQAAAAAAgAWkHR+6/MxPr6h7+XAswngswonkB6eSdIFrquyVWOWH6zLbHs/4lIx259KrU/88BgAAAAAAAOawdnzoqlj0/XJd9P1+7OV/XhfZA02RHWqK8Frqg1BJSl1ThNeaIjtUl9n22Mv/fLrq/73Y6w61D+dXpv75DQAAAAAAAFxEbdG57M1PsKiLfHMss7G6Co+4YCFJ51ZdZs/81CdkFLdekfrnPQAAAAAAAHCepnat6J8qw22x1/2TpszuiWX2N02ZvZr6kFKSFnpvfGVJ9r2mF+6Oe7t/fLLo/83jVehL/XsBAAAAAAAA+Bna8aHLj+/vX9tU2e2xCFvqMtveVOH51AePkqSfLIt1EfbXVbgj9robpor+W3xdCQAAAAAAAFxE08WqD8UirJsuwj+te/lwrLLv+RQLSZq/vfEzPPtu3cuH66rvn5zo9f9n7bcGPpj69w0AAAAAAADMe3Vx8wemiv5bmqq78Y0DufBIU4bTqQ8JJUmzX11mz9Rltr0u8s1TZbit3X390tS/lwAAAAAAAGDOcslCkvR2/eRljBPFdTek/v0FAAAAAAAAF13c139N3NP36zNF359OV9lXYpEdTX2YJ0mar2VHp6vsKzNF35/GPX2/Xhc3fyD17zkAAAAAAAC4YNrxocuP7+9fG3vdDT/6JIteeD39QZ0kaaH25idjxCrfNFX039I+nF+Z+vchAAAAAAAAvK227Sw5vr9/bV30/X7Ty/5tLMJ4U2avpj6AkyQt7poye7Upw39oquzfTFf9v/fK7hvWtG1nSerfmwAAAAAAACxybXHde6aK/ltilW+qy2x7U2Qvpj5ckyTprCrDdF2E/bEIW6bKcFv7YH5t6t+rAAAAAAAALHDHHuoLsczW11W4IxZh3FeGSJIWVFV+uO7lw7HX3XB8f//atu1ckvp3LwAAAAAAAPNU+3B+5cyevl+LVd//5NMsJEmLsaYMx+oy2x573T+ZKrv/aVvcekXq388AAAAAAADMUcf2r35vLMK6usg3xzLb1ZTZqdQHXpIkzaWaMvwgFmG8rsIdsczWt98a+GDq398AAAAAAAAk0o4PdqfKcFsswpboa0MkSTq3qvxwrPKtTZXdXhfLl6f+/Q4AAAAAAMAsiXv6Pjxd5Z+te/lwLMPjyQ+qJElaiFX54eki+3y9L/xB3Ne/IvXvfwAAAAAAAM7RsYf6Qiyz9bHKt7poIUlSmuoyeyaW2VjsdTcc39+/NvXzAQAAAAAAAD/HT1y0OJL6oEmSJP10LmIAAAAAAADMES8VWT5d9f/edNW9K1bhydQHSZIk6Rwqw+PTRfb5pspuP/ZQX0j9fAEAAAAAALBgtcV174lFWBeLsCUWYbwpw+nkh0WSJOnCVuWH3/j0qmx93Nd/TernDwAAAAAAgHmrLTqXxV53KFb5plhmu5oyezX5YZAkSbpoNUV4LRZhPL5x6XJdW9x6RernEwAAAAAAgDmrbTtLYq87FIv8c7HIdjdldir1gY8kSZpDldlLTRkeilW+qX44/FLbdi5J/fwCAAAAAACQVLv3hutima2PVb51usqeTn6gI0mS5k1NGV6IZTYWe90NLz6cZ6mfawAAAAAAAGbdm18fUhf55liE8aYMp1Mf2kiSpAVSlR+uq3BHLMK6dsfKd6d+7gEAAAAAALggXt63YtXM3vx/rIvsgViEE8kPZSRJ0sKvDDPTZfbVmSr8o+abK25K/TwEAAAAAABw1tri1itiEdbFImxpyvBo8oMXSZKkKj8cq3zrVBlua4tbr0j9vAQAAAAAAPBj2t3XL22q7PZYZmOxCk3ywxVJkqSfV5m9FMtsV1N1N07tWtGf+jkKAAAAAABYhNqxzqWx1x2qi3xzLMJ4U4bTyQ9RJEmSzqUqP1xX4Y5YhHXt+NDlqZ+zAAAAAACABap9ML+2KfLfbarsvlhmdfJDEkmSpAtdmU01RXbviSr/nbiv/5rUz18AAAAAAMA8d6paemPsdTfUZba9KbNXkx+GSJIkXaSaIrxWF2F/rPJN08XygdTPZQAAAAAAwDzQtp0lZ36FSOoDD0mSpDnTmV9JUnQuS/3cBgAAAAAAzBHt+NBVddH3X8Uq/7+aKjyf/FBDkiRpjvfDZ6a/mO71/VY7PnRV6uc5AAAAAADgIov7+q+JZba+7uXDsQwzqQ8vJEmS5mtNmZ2qy2x77HU3tLuvX5r6OQ8AAAAAAJgl7d4brmuq7Pa6zLY3ZfZq6kMKSZKkhVZThNfqIuxvqu7Gl4osT/38BwAAAAAAnKe4r39FU3U31kXY35ThdOrDCEmSpMVUXYVH6iLf/Mo3lg2mfi4EAAAAAADO0sm9yz42vbfvX9RVeCT1YYMkSZLeaLoI/29ddf95XSy/OfXzIgAAAAAA8BOO7+9fWxf55qbIJlIfKkiSJOltKsPjdRXumCr6b2nbziWpnyUBAAAAAGBR+tFliyqbTH54IEmSpHPtCZcwAAAAAADgIvnRZYsyOzgHDgkkSZJ0YXMJAwAAAAAALrST5Q0fj0X2L2MRnpgDhwGSJEm6GJXhSOzlfx573aHUz6MAAAAAADDv+BoRSZIkndETdRXuOLl32cdSP6cCAAAAAMCcdWrPjcuaqruxLsL+OTDuS5IkaQ5WV+GRusg3N99ccVPq51cAAAAAAEjuxYfz7M3LFk0ZTqce8iVJkjR/evMSxqlq6Y2pn2sBAAAAAOCiaR/Mr41F3z+MVaiaXng99WAvSZKk+V3TC6/HslvEXndD3Nd/TernXQAAAAAAuODaHSvfPVWG22KZjTVV9krqcV6SJEkLs6bIXq7LbHtTZbe340NXpX4OBgAAAACAc9a2nSVTRf8tdRXuaMpwLPUIL0mSpMVWFutePhyLsK5tO0tSPx8DAAAAAMBZeWX3DWvqIt8cq/xw+rFdkiRJCm0ss+/XVbijfjj8UurnZQAAAAAA+Cnt+GC37vX9USyz7yQf1SVJkqS3qsy+Xe/N/nG7+/qlqZ+jAQAAAABYxNodK989VYbbYpmNNWX2avIBXZIkSXoHNUV4LZbZrlhm69vxoctTP18DAAAAALBIxF53qK7CHU0ZjqUeyyVJkqQLUplNxSrfWhfLb079vA0AAAAAwAJ07KG+0FTdjbHKvpd8FJckSZJmsboKj8Qq3zRdrPpQ6udwAAAAAADmsXZ86KoTVffvN2V4qOmF11MP4JIkSdLFrCmzU00v3B3L/v+8bTtLUj+fAwAAAAAwTxzf3782FmFLU2Qvph67JUmSpLlRdjQWYcvLRb4y9fM6AAAAAABzUF3c/IHY626IZfbt9KO2JEmSNKcbj73uhra47j2pn+MBAAAAAEiobTtLpor+W2KVb41VODkHBmxJkiRp/lSFpu7lw7EI69q2c0nq53sAAAAAAC6SYw/1hVjlm2KVH04+VkuSJEkLoKbKJusi33xqz43LUj/vAwAAAAAwC9qic1lddv/rpsx3NEV4LfUwLUmSJC3EmiK8VhfZA9O9vt9qi85lqd8DAAAAAAA4Ty8+nGdvfLpFeDL1CC1JkiQtpuoyeyYWYcupaumNqd8LAAAAAAB4B9q2syQWYV0ss7GmDD9IPThLkiRJi7mmF16PZbYrltl6n4IBAAAAADCHHXuoL8Qq3xSL8ETqcVmSJEnST/fmp2DUxfLlqd8fAAAAAADodDrtWOfSqTLcVhfZA00RXks9JEuSJEl6+5oivDZdZl89WfT/ZjvWuTT1ewUAAAAAwKIzs3Pp9bHKN8UyPJ56NJYkSZJ07k1X2dN1kW+e2bn0+tTvGQAAAAAAC17sdYdilW+NZfZS6oFYkiRJ0oWrqbJXYpmNxSKsS/3eAQAAAACwoLTFrVc0VXZ7LLPvpB6DJUmSJM1+TRkebaruxnbn0qtTv48AAAAAAMxbLxf5yliELU2RvZh6+JUkSZKUoCo0scq3Ht/fvzb1+wkAAAAAwLzQtp0l072+32rK8FBThtPJh15JkiRJyWvKcLqpws7pKnymbTtLUr+3AAAAAADMOe2Oa9/XVN2NsQxHUo+6kiRJkuZwZTgSq3xT+2B+ber3GAAAAACA5F7et2JVXYU7YhFOJB9wJUmSJM2bmjI7Vffy4Zli6UdSv9cAAAAAAFxUbdtZEouwri6z7b5ORJIkSdL5Vhdhfyyz9e1Y59LU7zsAAAAAALOm3XHt+2Kvu6Epw4HUw6wkSZKkBViVH/Y1JAAAAADAgvPyvhWrmir7N7EMM8mHWEmSJEkLvzJM11X4P18u8pWp34cAAAAAAM7ZVNF/SyyzsaYIryUfXiVJkiQtuppeeL0us+2xCOtSvx8BAAAAAJyVdnzo8lhm65sy+0bqkVWSJEmSflSZfbupstvb8aHLU783AQAAAAD8lHbHte9rqu7GWGZPJR9UJUmSJOnn1JTh2brIN7cP5temfo8CAAAAAOjEPX0frqtwRyzCidQDqiRJkiSddWWYiVW+dbpYPpD6vQoAAAAAWISmiv5bpovw5aYXXk8+mEqSJEnSOdb0wuuxDF96qVz2q6nfswAAAACABa5tO0umynBbXYT9qcdRSZIkSZqFxpsqu70d61ya+v0LAAAAAFhA2rH172qq7PamDI/OgSFUkiRJkma1psgONVV3Y/twfmXq9zEAAAAAYB5rd1z7vqbqboxFdjT18ClJkiRJF7umCs/XRb65fTC/NvX7GQAAAAAwj5zac+OyWIQtschi6qFTkiRJkpJXhpm6CndM7VrRn/p9DQAAAACYw6Yezn+hLsJoU4YfJB82JUmSJGmO1ZTZq9NV967j+/vXpn5/AwAAAADmkPrh8EuxzMaaMpxOPWRKkiRJ0lyvKcPpusy2N0X2t1K/zwEAAAAACU0V/bfUZbY99WgpSZIkSfO1ugj7p8pwW+r3OwAAAADgImnbzpKpMtzWFNk3Uw+UkiRJkrRgKrPvNFV2ezvWuTT1ex8AAAAAMAva8aHLmyq7va7CI8kHSUmSJElaoDVl9ljsdTe040OXp34PBAAAAAAugLa49YqZKvyjWIQnUg+QkiRJkrRoKsORuLfvv293rHx36vdCAAAAAOActGPr3xV73Q2xyI4mHxwlSZIkaZHWFOG5WOWb2ofzK1O/JwIAAAAAZ6HdsfLdLlxIkiRJ0tyqqcLzLmAAAAAAwBz25oWL6Sp7OvWgKEmSJEn62bmAAQAAAABzTDs+dFVTdTe6cCFJkiRJ86emDC/EKt/Ujg9dlfq9EgAAAAAWpXbn0qubqruxLrNnUg+GkiRJkqRzywUMAAAAALjIXLiQJEmSpIVXU4YX6iLf3O649n2p3zsBAAAAYEF688JFU4ZnUw+CkiRJkqTZqSnDMRcwAAAAAOACaovr3tNU3Y1NEZ5LPQBKkiRJki5Ob17AmNq14v2p30sBAAAAYF5y4UKSJEmS1BTZiy5gAAAAAMA70BbXvSdW+aamyo6nHvgkSZIkSXOjNy9g1MXNH0j93goAAAAAc1JbXPeemb19fxbLbCr1oCdJkiRJmps1VXY87u3+cbtz6dWp32MBAAAAYE5ox9a/K/a6G5oyPJt6wJMkSZIkzY+aMhyLVb6p3bHy3anfawEAAAAgibbtLIlltj5W+eHUg50kSZIkaZ5WhSdjr7uhHetcmvo9FwAAAAAumliEdbHKvpd8oJMkSZIkLYiaMjway2x923YuSf3OCwAAAACzZqrov2W6DHtTD3KSJEmSpIVZU2TfnNmTfSr1+y8AAAAAXFAnyxs+HstsV+oBTpIkSZK0SCqzXbHo++XU78MAAAAAcF6mi+UDsczGmjKcTj66SZIkSZIWVU0ZTtdltn1q940fTf1+DAAAAADvyPEq9MUq39qU4QephzZJkiRJ0uKu6YXXY5mNxX39K1K/LwMAAADAW5ouVn0oFmFLU2anUg9rkiRJkiSdWVNlr8Qq33qiuO6G1O/PAAAAAPBj2uK698Qq3xSr0KQe0iRJkiRJeptOxCJsmdq14v2p36cBAAAAWOTasfXvir3uhqYKz8+B4UySJEmSpLOuKbIXY5Vvah/Or0z9fg0AAADAItMWnctir7shFtnR1EOZJEmSJEnnVZk9NV3ln23HOpemft8GAAAAYBGIRVgXq+x7yYcxSZIkSZIuYE0ZDpws+n8z9Xs3AAAAAAvUK99YNlgX2QOphzBJkiRJkma1Mtt1Yl/2i6nfwwEAAABYINrxwW6s8q1NEV5LPn5JkiRJknQRanrh9bqXD58orrsh9Xs5AAAAAPNUOz50VazyTbEKTerBS5IkSZKkRJ2IRdjSFte9J/V7OgAAAADzRNt2lsQyWx+L8MQcGLgkSZIkSZoDZUdjr7uhHetcmvq9HQAAAIA5bGZP9qlYZt9OP2hJkiRJkjQHq8J/rIvlt6Z+fwcAAABgjnl5f1gdy2ws+YAlSZIkSdJ8qMx2Hd/fvzb1+zwAAAAAibXfGvhgLMKWpspeST5aSZIkSZI0j2rK7NVY5Vtndi69PvX7PQAAAAAXWTu2/l1N1d0YiyymHqokSZIkSZrXlVkdq3xTW9x6Rer3fQAAAABmWdt2Lolltj5W+eHkw5QkSZIkSQupMnuqqbLb27ZzSer3fwAAAABmQdNb/om6CPuTD1GSJEmSJC3gmqr7rami/5bUOwAAAAAAF0hdLF8ei/yLqYcnSZIkSZIWS00ZTjdFdu/xKvSl3gUAAAAAOEftw/mVsco3xTLMpB6cJEmSJElalFXhZF3km9vi1itS7wQAAAAAvI227SyZGB787MTdH/noVBlui2U4knxgkiRJkiRJbVNkh2KZrU+9HQAAAADwcxy88+abDwwPPnxgeLCdGB58/dkHlicflSRJkiRJ0k+W7X5l9w1rUu8IAAAAAPzQd+689QMTowN3TIwMvnZgeLA9syfv/3BbJx+UJEmSJEnSmTVl9mpdhTuO7V/93tS7AgAAAMCi1badSx7dtvb2AyNrnvvJCxdndujeVe3xXXnyUUmSJEmSJP1401X2dFNlt7dt55LUOwMAAADAonJkZPXqybvW7H6rCxdnNjk60D7/9f7kg5IkSZIkSfoZVaGa2n3jR1PvDQAAAAAL3nPDH736wF0f2XxgZM0rZ3vp4syOfnlFG3tzYFCSJEmSJEk/VtMLr9e9fHi6WPWh1PsDAAAAwIJ0YHjtbZPDa546lwsXZ/b42E3t1J4s+aAkSZIkSZJ+uqbKjjdVd2M71rk09RYBAAAAsCAc3jZ408Tw2gfP98LFmR3ctro9trMv+ZgkSZIkSZJ+TlX4jy/tCX879S4BAAAAMG+Nbx266ny+VuTtmhgZbJ95YHn6IUmSJEmSJP3MmjKcrnv5cLv7+qWpdwoAAACAeeXA3Wv/7oX4WpGz6ckvfbite+nHJEmSJEmS9HMqszpW+aZ2bP27Um8WAAAAAHPaU19ZHQ4MD95/MS5cnNmhe1a1x3fl6YckSZIkSZL08yvz/6cult+aer8AAAAAmHPatrPkwLaBDQdG18xc7EsXbzY5OtA+/2B/+hFJkiRJkiS9dWU2NrNz6fWp9wwAAACAOWHy3rW/+Ojwmm+lunBxZhPDA+3Rr96YfkCSJEmSJElvXZlNNVV3Y9t2lqTeNgAAAACSGN86dNXBuwa3TIwMvpb6wsVP9sQXV7Z1L0s/IkmSJEmSpLdsugx7X9l9w5rUOwcAAADARTW5bfDTB4bXPJn6gsVbdejeVe3xXXnyAUmSJEmSJL11TZm9GouwpS1uvSL15gEAAAAwqx6/8+M3TA6vHU59qeJsmxwdaJ9/sD/5gCRJkiRJkt6+psgOxT19v556/wAAAAC44Nq2c8mj29befmBkzVTqyxTvtInhgfboV29MPh5JkiRJkqSzrMzGZnYuvT71HgIAAABwQRzeNnjTxPDaXuoLFOfbE19c2da9LP14JEmSJEmS3r4yq5uqu7FtO0tSbyMAAAAA5+TxO2+94sBdH9l8YHTNK6kvTVyoDt27qj2+K08/HkmSJEmSpLNqugz7ju/vX5t6JwEAAAB4Rw5tW/3JAyNrHkt9UWI2mhxd3b7wYH/y4UiSJEmSJJ1dTZm9Wlfhjnbn0qtTbyYAAAAAb+n4jpXvmxgduOPAyODp1BckZrOJ4YH26FdvTD4cSZIkSZKkd1CVHz7R6/5G6v0EAAAA4Gea3Db46YnRgadTX4q4mD1x/8q27s2B4UiSJEmSJJ19ZTbW7r5+aeotBQAAAKDT6XQ637nz1g8cGFm7NfUliFQdundVe3xXnn40kiRJkiRJZ1+Z1U3V3di2nSWptxUAAABgETt418BvTowMPJ/68kPqJkcH2mM7+9KPRpIkSZIk6R01XYZ908XygdQbCwAAALDIHBr+6PWTo2tGUl94mEtNjAy2z35tWfLBSJIkSZIkvbOaMns1FmFLOz50eerNBQAAAFgEJobXrH90eE2d+qLDXO37f7Wijb30o3Qlh2YAACAASURBVJEkSZIkSXqnZd89uXfZx1JvLwAAAMAC9fidH79hcnjNl1NfbJgPPT52U1u7fCFJkiRJ0rzrR59+Mbb+Xam3GAAAAGABmRhes35ydCCmvtAwn3rsntXt8V158sFIkiRJkiSdQ2X2N7Ho++XUmwwAAAAwzx248+blk6Nrdqe+xDBfmxwdaF/4el/6sUiSJEmSJL3jmjL8IBZhS7tj5btTbzQAAADAPNO2nUsmtw38D5MjAy+lvrww35sYGWyfeWB58rFIkiRJkiSdW3UVHml6yz+Req8BAAAA5okj9w8umxgdKFJfWFhoPXn/h9u6l34skiRJkiRJ77ymF16PVb613bn06tTbDQAAADCHTQyvWT8xPDCd+pLCQu3wfTe1U7uz5GORJEmSJEk6x6r8cF1mn0y94QAAAABzzON3fvyGydE1O1JfTFgMPXb36vbFh/rSD0WSJEmSJOmcaspwOlb51ra47j2pNx0AAABgDpgYXrN+cnQgpr6QsJiaGB1on/t6f/KhSJIkSZIknUdleDwWYV3qbQcAAABI5Dt33vqBydGBO1NfQljMPb19efqRSJIkSZIknXM/+vSLHde+L/XWAwAAAFxEB7at/Y0DI4Mvpr54oMH2qS+tSD4SSZIkSZKk86sus2emq/CZ1JsPAAAAMMuOfWX1ew+MDn7+wF3pLxzo/+/I2Mq27mXJRyJJkiRJknSe9bK/rIubP5B6AwIAAABmwYF7PvK3J0YHnk59yUA/u8fuWd0e352nH4gkSZIkSdL5VWZPzezJPpV6CwIAAAAukMfvvPWKx4YH/uXE6ODp1JcL9NYd3DbQHtvZn34gkiRJkiRJ51VThtOxyre240NXpd6GAAAAgPMwue0Xf2VyZPBI6gsFOvsmRgbbZ7+2LPlAJEmSJEmSzr+mDI/GXnco9UYEAAAAvENFsfmygyOD/8vkXQOvp75IoHPr6FdvTD4OSZIkSZKk868pww9iEba040OXp96MAAAAgLNw4M6bl0+ODvx16osDOv+euP/DbT0HBiJJkiRJknT+NUX2zZf3rViVejsCAAAA3sLEyEf+3sTImpOpLwzownXovpvaqT1Z8nFIkiRJkiRdgMrspabqbmzbziWpdyQAAADgDIfHVrx/YmTgi6kvCWh2euzu1e2Lu/L045AkSZIkSbogNUV48NhDfSH1pgQAAAB0Op1D21Z/cmJk8MXUlwM0u02ODrQvPNiffBiSJEmSJEkXqDKrT1T576TelgAAAGDRGt86dPnk8Nr/fWJ08HTqSwG6OE2MDLbPfm1Z+mFIkiRJkiRduMpsLO7rvyb11gQAAACLyuN3rhqY2DZ4MPVFAKXp6JdXpB+FJEmSJEnShasKT9Zl9snUmxMAAAAsChP3DH52YnjNq6kP/5W2J7/04bYusvTDkCRJkiRJuiA1ZTgdq3xrOz50Ver9CQAAABakZ8dWXjcxMlimPvDX3OnIF1a2dc/lC0mSJEmSFlJ1FR45uXfZx1JvUQAAALCgTNy59r+YGBmYTn3Qr7nXoXtXtcf35MlHIUmSJEmSdOFqyuzVusg3t2OdS1PvUgAAADCvtWP5lZOjq0dSH+5rbnfw7tXti7tcvpAkSZIkaaE1XYZ9p/bcuCz1RgUAAADz0uN3rhqY2Db4ROpDfc2PJkcH2hce7E8+CEmSJEmSpAtcFZoT+/r+m9RbFQAAAMwrj46s/e8mRta8mvowX/OriZHB9tmvLUs/CEmSJEmSpAte3cuH251Lr069WwEAAMCcduwrq997cHTwgdQH+JrfHf3yiuRjkCRJkiRJuvA1ZThwYl/2i6k3LAAAAJiTDnx+YOjgtsHnUh/aa2H05P0fbusiSz4ISZIkSZKkC1tTZqeaqruxbTuXpN6zAAAAYE5o284lB0cG/2xyeOD11If1Wlgd+cLKNvbSD0KSJEmSJOnCN12EL7ffGvhg6m0LAAAAknpm+6oPPTY6+I3UB/RauB2+d1U7tccnX0iSJEmStCArs6dm9vT9WuqNCwAAAJKYGF77qYmRgenUB/Na+D12z6r2+O48/RgkSZIkSZIueE0RXquLfHM71rk09d4FAAAAF0U71rl0ctvg/zExOng69YG8Fk8Htw20Lz7Ul3wMkiRJkiRJs1NTZt84VS29MfX2BQAAALPqyN0fWXrwntXfTX0Ir8XZ5OhA+8KD/cmHIEmSJEmSNFtlMVb9fy/1BgYAAACz4vDIR/7LiZHBk6kP37W4mxgZbJ/72rI5MARJkiRJkqTZqu7lw+340FWp9zAAAAC4INqx9e86eM/g51MfuEtn9sz25clHIEmSJEmSNHvVVXhk6uH8F1JvYwAAAHBejt6/Mn/s7sGDqQ/ZpZ/V9/9qRfIRSJIkSZIkzWJl9lJTdTem3sgAAADgnBy5b+1tB0cGTqU+XJfeqifuX9nWRZZ+CJIkSZIkSbNXld8f9/Vfk3ovAwAAgLPStp1LHrv3pn+b+kBdOtuOjK1sY28OjECSJEmSJGn2KsORprf8E6m3MwAAAHhLz2xf9aHH7h58JPVBuvROO3zvqnZqj0++kCRJkiRpIdeU4Qexyjel3tAAAADgZzrwxbW/cXDbwEupD9Clc+2xe1a1U7tdvpAkSZIkacFXhr+a2rXi/an3NAAAAOh0Om98tcjj96363yZHB06nPjiXzreD21a3L+7K0w9AkiRJkiRpVmuqbHLq4fwXUm9rAAAALHLHd6x838F7V/916sNy6UI2OTrQvrCzL/kAJEmSJEmSZrkye2m6yj+bemMDAABgkXr8ix/9xMG7V8fUh+TSbDQxMtA+//X+9AOQJEmSJEma9epePtw+nF+Zem8DAABgEXlsbNUfTY4MvJ76cFyazSZGBtvndixLPv5IkiRJkqSLUJl9O+7rX5F6dwMAAGCBa8fyKx+7Z9VDqQ/EpYvZsw8sTz/+SJIkSZKk2a8KzUwv/7upNzgAAAAWqMfuXrP24N2rX0h9CC6l6OntN6YffyRJkiRJ0qzXlOF0XYU72vGhy1PvcQAAACwgT9698ncPjK75QerDbyll3/+rFcnHH0mSJEmSdJGqQtWOD3ZT73IAAADMc23bueTgvau2pj7wluZKT33pw23szYHxR5IkSZIkzXpNFZ6PRViXeqMDAABgnjp618AHD969+kDqg25prvXEF1e2tcsXkiRJkiQtipoivFYX+ea27SxJvdcBAAAwjxy6f+1/Mjk6eCL1Abc0V3t87CaffCFJkiRJ0iKqLrPtcV//Nal3OwAAAOaBJ+5b9SeTowOnUx9sS3O9w/fd5JMvJEmSJElaTFXhyZf25r+Ser8DAABgjiqKzZc9ft9ND6Y+zJbmU4fuXdVO7cnTDz+SJEmSJOmi1BTZy03V3Zh6ywMAAGCOOXr/yvzwvaufTX2ILc3HHrt7dTu1O0s+/EiSJEmSpIvXdJnd2Ra3XpF61wMAAGAOOPSFVX9nctvgK6kPr6X53MG7V7fHd/nkC0mSJEmSFlVl9u1Te25clnrfAwAAIKEnvrD6n0+ODp5OfWgtLYQObhtoX3yoL/3oI0mSJEmSLlpNGY7VZfbJ1DsfAAAAF1lRbL7s8ftuejD1QbW00Do4urp98SGffCFJkiRJ0mKqKcMPYpVvSr35AQAAcJE8fs/Nyw/dvfr51AfU0kJtcnSgfWGnT76QJEmSJGnRVeVb27H170q9/wEAADCLjoyt/szk6OCrqQ+mpYXexMhg+8KDLl9IkiRJkrTYqqvs/27HB7upd0AAAABmwZP3r/yfJ0cHT6c+kJYWSxMjA+3zX+9PPvhIkiRJkqSL23SVPd0U2d9KvQcCAABwgbRjnUuPfOGm7akPoaXF2MTIYPvcjmXJBx9JkiRJknRxa4rs5ekq/2zqbRAAAIDz1Izl1x66b9VjqQ+fpcXcxPBA++wDy5MPPpIkSZIkKUFVvrUdH7o89U4IAADAOTh8/6qPP7Zt4GTqQ2dJb+TyhSRJkiRJi7PpMuxrd1+/NPVeCAAAwDvw1P0r//Dg6OrXUx80S/rxnt5+Y/KxR5IkSZIkJajMvn+yvOHjqXdDAAAAzsKRL9w0mvpwWdLP7+mv+uQLSZIkSZIWY02ZnZqu+n8v9X4IAADAz9FuHbrq8NjKv0l9qCzp7Tv6FZ98IUmSJEnSoq3Kt7ZF57LUeyIAAABnOPqlgVVH7h2YSn2YLOns+77LF5IkSdL/x969P9md3/WdP9LYM4MNGBuPZ3S+p++3I7CNy0MZwlUJSSDLUru1ZLgXLIYYqE1BnA1xKll2nc1WxQE2ixdqiTcLZNXdUqt1v7Xufc7RDGNgJ9SCwdMXSa3WpSWNpD59usdzlz77A3gB26PRpbvf53vO41n1+Cde7099vwBtrFRNp594LHpXlCRJkiQVCoX5Pf1PTW/b/Hr0ERm4dxf39jbB0AMAAABEaFSyM4vPlj4QvS9KkiRJUlt3aXf/r08Nl8OPx8D98/gCAAAA2li1uFKvdPzX0TujJEmSJLVdKRU2nNs9cCD6YAysjgv7PL4AAACAdtWoFm/XK6VPRm+OkiRJktQ2zf3elq87Oz4wH30oBlaXxxcAAADQ5mql30njTz0cvT9KkiRJUku3sGdg88y2oeXoAzGwNi7s7YsfeQAAAIAw9UrxmXT6iceid0hJkiRJasnO7+79/pnRza9FH4aBtTW/x+MLAAAAaGeNSnZmudJdjt4jJUmSJKmlmt/Z+4np0fLt6IMwsD7md/elpcn4oQcAAAAIUs0WV05lfyd6l5QkSZKklmh+d//Wqa3l8EMwsL48vgAAAID21qgWX1863fEL0fukJEmSJOW2NF54+Pzugc9GH3+BOOc9vgAAAIC2V68VP51SYWP0XilJkiRJuWqu8o1PnBsbuBp99AXieXwBAAAANKqliTTxnq+N3i0lSZIkKRedP7r5w2fHyl+IPvYCzcPjCwAAAGCplv3J4onezuj9UpIkSZKauksHhn5odtvQG9FHXqD5eHwBAAAA1KvZwlKl45ujd0xJkiRJasrm9/T86tRwOfy4CzSv+d194QMPAAAAEKtRzV5eqRR/JHrPlCRJkqSm6vyevj3RB10gH+b3eHwBAAAA7a5RLd6uV0qfjN41JUmSJCm8dOyD75zbOTgVfcgF8mV+T2/4wAMAAAA0gcnsd9P4Uw9H75ySJEmSFNLC4c1d53YMLUYfcIF8urDX4wsAAACgmOqV4jPp9BOPRe+dkiRJkrSuXT/Q/d1ndgy9En24BfLtwl6/HQEAAACKqVHNZl55uncweveUJEmSpHVp4XDvj82ODN2KPtgCreHCPl++AAAAAIppqZotLlY3fWf0/ilJkiRJa9rFfb3/Yma0fDv6UAu0lov7e+LHHQAAACBco5K9slTr/KHoHVSSJEmS1qSLe7t/5/nh+AMt0Jou7vP4AgAAACimRqX4xkqt+N9F76GSJEmStGqlVNhwcU//keijLND6LvnyBQAAAPCX6rXip1MqbIzeRyVJkiTpgUq/t+XR8zv7pqKPsUD7uHzA4wsAAADgL1U37UyVLY9G76SSJEmSdF+9uL/n8XM7B65FH2GB9nP5QHf8sAMAAAA0h1p2avFE77ui91JJkiRJuqcWDg1sPjM+tBJ9fAXa18JBjy8AAACAv1Qtfe5mrdgRvZtKkiRJ0l21cLDj789s3/xa9NEV4MrhrvhhBwAAAGgKy7Xs8otPZ98UvZ9KkiRJ0h27MNH/0dnRoVvRx1aAL7rq8QUAAADwRdVsceVUx3dF76iSJEmS9BWb39f/r6eGy+FHVoC/bmrr5nRtwuMLAAAA4C80KtkrK5Xij0TvqZIkSZL0Nzq/u3d0ajj+wArwlUwNl9MLRzvDhx0AAACgOTSqxdvLk6V/Hr2rSpIkSVIhpcKG+X19J6OPqgBvZWq4nK4f8/gCAAAA+Cv1WvHTKRU2Ru+skiRJktq0VNny6IU9fZ+LPqYC3K3pkXK6fqwjfNQBAAAAmklpV6pseTR6b5UkSZLUZi1XBt87v3twIfqICnCvpkfL6cZxjy8AAACAv6a6qVKvfOjrondXSZIkSW3Slb3l7nPj/UvRx1OA+zU9Wk43T5TiRx0AAACgaSxXin+2eKK3M3p/lSRJktTiXZ3o/9azOwdeiT6aAjyomdGhdPOkxxcAAADAX1PNLq5UHn9/9A4rSZIkqUVbONr3fWd2lF+PPpYCrJbZbR5fAAAAAF+imtVfOlX8tug9VpIkSVKLdf1g74+f2TZ0K/pICrDaZrcPpsVTWfyoAwAAADSTF1+c3PS90busJEmSpBbp4uHuX5zdXr4dfRwFWCtnxwZTfdLjCwAAAOCvNGrZq0vV7KnofVaSJElSzls41PM/T4+Uw4+iAGvt3PhAqk/GjzoAAABA82hUim8sn970j6J3WkmSJEk57fL+nv/z+eH4YyjAepnb2R8+6AAAAADNpVEt3l4+Xfzl6L1WkiRJUo5KqbDh8t7eg1MeXQBtaH5PX/igAwAAADSlT0Vvt5IkSZJyUBovPHRxT/9now+fAJEu7e+NHnIAAACAJtSobfrtlAobo3dcSZIkSU1aGn/q4Yv7e/8k+uAJ0AwuH+gOH3MAAACA5tOoZtvTc0++PXrPlSRJktRkpWOPv/P8nr656EMnQDNZOOTxBQAAAPDlGrVNh9NzT74jeteVJEmS1CSlPyx//dzO/qvRB06AZnR1oit8zAEAAACaz3K1eHrxRO+7ovddSZIkScHdeLaUze8cvBl92ARoVlNbN6drRzrDxxwAAACgCVVLn7t+vKMYvfNKkiRJCuqFg70D53YOrkQfNQGa3dRwOV0/1hE/5gAAAADNp1Y6u/R0Z2/03itJkiRpnVs63f/huR0DL0cfMwHyYnqknG4c9/gCAAAA+HL1arawUnn8/dG7ryRJkqR16sqR/i1nxoZeiz5iAuTNzOhQunmiFD7mAAAAAM2nUctuNia7vyV6/5UkSZK0xl2f6PmBszsG3og+XgLk1ey2obR4MgsfcwAAAIAmVC2uLFWKfzd6B5YkSZK0Rl072vOTZ7cP3oo+WgLk3ZmxwVSf9PgCAAAA+HKNSvZKvVb6b6L3YEmSJEmr3AtHOn/xzNjQ7ehjJUCrmNs5kOoVjy8AAACAL9eoZq8t1Tp/KHoXliRJkrRKXZ/o+u+nR4fCj5QArWZ+T1/4kAMAAAA0p0al+MZyrfOnovdhSZIkSQ/Y5Ynefz09Wg4/TgK0qkv7esOHHAAAAKA5NSaLt+q14kejd2JJkiRJ99mVA72fmh7x6AJgrS0c6g4fcgAAAIDm1KgWb69USv84ei+WJEmSdI9dO9j1q1PDHl0ArJerE13hQw4AAADQnBrV4u1GbdMvRe/GkiRJku6yawd7f2vKly4A1tfw5nT9aGf4kAMAAAA0p0a1eLt+Ovt49H4sSZIk6S1aONj92x5dAMSYGt6cbhwvhQ85AAAAQPNaOd3xK9E7siRJkqQ36dKBns/4vQhArOnRcrp50uMLAAAA4I4+Fb0nS5IkSfqSFvZ3jTw/HH9wBGBzmt0+mBZPZdEDDgAAANDcPL6QJEmSmqXLh7q3T3l0AdBUzu4YSPXJ8AEHAAAAaGa10q9F78uSJElSW5dSYcPlQz37PboAaE5zu/rTkscXAAAAwB00JrP/I6XChui9WZIkSWq7UipsuHyw94BHFwDN7cLevvABBwAAAGhytdJnUipsjN6dJUmSpLYppcKGhcPdRzy6AMiHywd74gccAAAAoLlVi//R4wtJkiRpHUrjhYeuHOypeHQBkC9XD3fFDzgAAABAU2vUiqOpUnhb9A4tSZIktWxpvPDQxf29p6e2lsMPiADco+HN6YVjHeEDDgAAANDcGpVszOMLSZIkaQ1K44WHFg72Pu3RBUB+TY+U040TpfABBwAAAGhy1Ww8Pffk26N3aUmSJKllSuNPPbxwsPs/Rx8MAXhws9sH0+KpLH7AAQAAAJpbtbgnjT/1cPQ+LUmSJOW+NF546PLB7mejD4UArJ6zOwZSfbIJBhwAAACguVWLe335QpIkSXqA/F4EoHWd39UfP94AAAAAOVDalSqFt0Xv1ZIkSVLuSuOFhxYO9NQ8ugBoXRf39TbBeAMAAAA0vWo27vGFJEmSdA+lVNiwcKD3+NRw/FEQgLW1cLA7frwBAAAAmt5yJftPKRU2Ru/XkiRJUtOXUmHD1cO9hzy6AGgPU1vL6dqRzvDxBgAAAMiBWul3PL6QJEmS7lBKhQ1XD/Yc8OgCoL1MjZTT9WMd8eMNAAAA0Pyqxf+YUmFD9J4tSZIkNWVXDvWMe3QB0J6mR4fS4sksfrwBAAAAmt5KpfQb0Xu2JEmS1HRdO9w7PDVcDj/8ARDnzNhgqk96fAEAAAC8teXJTf8+eteWJEmSmqYrhzr/k0cXADy/dXOaGx8IH24AAACAnKiVfi1635YkSZLCWzjc9X9NjXh0AcBfubi3N364AQAAAHJh5XTHr0Tv3JIkSVJY1w53//tpjy4A+AoWDnWHDzcAAABATkxu+pfRe7ckSZK07l050vVrHl0A8GamhjenF450xA83AAAAQD7USp+I3r0lSZKkdevawa5f9egCgLcyPVJON06U4ocbAAAAoOk1qsXbK5XSP47evyVJkqQ17+rRrn85MzIUfswDIB9mtw2lxVNZ+HgDAAAANL9GtXh76XTHL0Tv4JIkSdKadW2i55/NjHp0AcC9ObtjINWbYLwBAAAAml+jWry9NLnpY9F7uCRJkrTqvXC8+5c8ugDgfs3v7gsfbgAAAIB8aEwWbzUqpZ+I3sUlSZKkVat+ouujZ8cGb0cf7QDIt8sHesKHGwAAACAfGpXiGy/WSj8WvY9LkiRJD9z1E6UfO7vDowsAVse1I13hww0AAACQD41q9toXKp3/ZfROLkmSJN13Nyt933dux8Ct6CMdAK1jaqScbhwvhQ83AAAAQE5Us5dWJp/47ui9XJIkSbrnlic7v/3crqHXow90ALSemdGhdPOUxxcAAADAXaoVG0uVjm+O3s0lSZKku+7VWtfmc7sGXok+zAHQus7uGEz1ySYYbgAAAIBcaFSL11/9bNfm6P1ckiRJessWn+vtvLB7YCX6IAdA6zu/uz98tAEAAADyJLtUr3R3R+/okiRJ0pu2cuzx983v7VuMPsQB0D4uH+hpgtEGAAAAyItGNZt9sfLYE9F7uiRJkvRlLZ7ofdf83r6r0Qc4ANrPtSNd4aMNAAAAkCO17E+Wnu58d/SuLkmSJP3/peeefMflfb1z0Yc3ANrT9Eg53ThRih9tAAAAgNxoVLNn07HH3xm9r0uSJEmF9NyTb7+wv+/Po49uALS32e2DqT4ZP9oAAAAA+dGoFo+nif5Hond2SZIktXEpFTZe2t/zB9HHNgB4fuvmNLezPy15fAEAAADci1ppdxovPBS9t0uSJKkNS6mw4crh7iNTw/GHNgD4okv7e+MHGwAAACBXGrVNvx29uUuSJKkNu3K0a+vUcDn8wAYAX+rK4a7wwQYAAADIl0Zl0/8SvbtLkiSpjXrhaOf/Nj3i0QUATWp4c7p+rCN8sAEAAADyZfl08Zej93dJkiS1QTePdXx8ZnQo/qgGAHcwMzqUFk+VwgcbAAAAID8a1eLt5dOb/lH0Di9JkqQW7saxzp+a2e7RBQD5cHbHYKo3wWgDAAAA5EejUnxjqdb5Q9F7vCRJklqwxRO9339ux+Ct6CMaANyL87v7wgcbAAAAIF8atezVRvWJfxC9y0uSJKmFWjzZ8Z1z4wNvRB/PAOB+LBzqDh9sAAAAgJypFb+wWOn8juh9XpIkSS1QvdL9oXPjA69FH80A4H5NDW9O1492xg82AAAAQK40atnNlcrj74/e6SVJkpTjbjxbyub39i9HH8wA4EHNjJbT4qksfLABAAAA8mW5ll1ePNHbGb3XS5IkKYctnuh914V9vVejD2UAsFrOjg2mehMMNgAAAEC+LFeKf7b0dOe7o3d7SZIk5ag0/tTDCwd6no8+kAHAaruwty98rAEAAADyqFRNE/2PRO/3kiRJykEpFTZePtT9+9GHMQBYK1cOdTXBWAMAAADkTaOSjaVU2Bi940uSJKnJu3Kge/dUExzFAGCtTA2X043jpfCxBgAAAMihWunXond8SZIkNXFXJnp+fXqkHH4QA4C1NrNtKC2eyuLHGgAAACB36pVN/yR6z5ckSVITdm2i4xdmRofCD2EAsF7OjQ+EDzUAAABA/jQmi7eWqtlT0bu+JEmSmqgXjnf9F2d2DN2OPoABwHq7tL83fKwBAAAA8qdRy159cbLze6L3fUmSJDVB9Ur3h87tGHwt+vAFAFGuTnSFjzUAAABAHmVLiyd7Phi980uSJCmwlypZaX7XwIvRBy8AiDQ1Uk43jnc0wVgDAAAA5E926Wat2BG990uSJCmgNPGer53f23ct+tgFAM1gdttQqk9mTTDWAAAAALlTLX2uXvnQ10Xv/pIkSVrH0vhTD1/a3zMVfeQCgGYyt6s/fqgBAAAA8qm6qZIm+h+J3v8lSZK0DqVU2HDlUPdk9HELAJrR5QM98UMNAAAAkEuNarY9pcLG6DuAJEmS1rhrE92jU8Pl8MMWADSjqeHN6frRzvChBgAAAMitT0XfASRJkrSG3Zzo/B+nR4bCj1oA0MymR4fS4skseqQBAAAAcqoxWfrF6HuAJEmS1qD6ia6Pzmzz6AIA7sbZHQPhIw0AAACQT43J4q2VydIPRt8FJEmStIotnez8e+fGBm9FH7EAIE8u7u8JH2oAAACAfGpUs5cXK53fEX0fkCRJ0ir06onSB87tHHwt+ngFAHl07Uhn+FADAAAA5FOjkt145ZniUPSdQJIkSQ9Q+sPy18/v7luKPloBQF5Nj5bT4sksfKgBAAAAcqpWOptOP/FY9L1AkiRJ91Eaf+rhiwf6ZqMPVgCQd2fHBlM9eqQBsinKUQAAIABJREFUAAAAcmu5WjydJvofib4bSJIk6R5KqbDh8oHuU9GHKgBoFRf29oWPNAAAAEB+LVez34u+HUiSJOkeunqk63+fGi6HH6kAoJVcPdwVPtIAAAAAOVYrfSL6fiBJkqS76Orx0s/OjA6FH6cAoNVMjZTTjeOl+JEGAAAAyKVGtXh7qVb84eg7giRJku7QzVPFbzs7NnAr+jAFAK1qdvtQqk9m4UMNAAAAkFPV7KWXTpc+En1PkCRJ0lfopYmsdH5n/0vRBykAaHXnd/fFjzQAAABAbtWr2cLNWrEj+q4gSZKkv1aqPPbV83v7rkUfogCgXVw51BU+0gAAAAA5Vs3+OB17/J3R9wVJkiQVCoWUChsvH+j54+gDFAC0k6nhcrpxvCN+pAEAAAByq17JDqXxwkPRdwZJkqS27+rhnh1TTXCAAoB2M7t9MC1Nxo80AAAAQI6dLv676DuDJElSW3d1ouNfTY+Uww9PANCu5vf0xQ80AAAAQL7Vsp+LvjdIkiS1Zdcnen7gzPah29EHJwBod1cOd8UPNAAAAEBuNarZay9Odn5P9N1BkiSprVo51vf+M+NDr0cfmgCAzWlqeHO6ebIUPtIAAAAA+dWoZTdfebp3MPr+IEmS1BYtVwbfO7drYDn6yAQA/JUzY4Op3gQjDQAAAJBjtdLZ5crge6PvEJIkSS1deu7Jt8/v7j0XfVwCAL7chb198QMNAAAAkGvL1eLpNP7Uw9H3CEmSpJZt4UDv8eijEgDw5q4d6QofaAAAAICcm8x+N/oeIUmS1JJdPdT1m1PD5fCDEgDw5qZHyunmyVL8QAMAAADk2vLp4i9H3yUkSZJaqhtHOv7bmdGh8GMSAPDWzu4YCB9nAAAAgHxrTBZvLU92/FfR9wlJkqSWaOlU/4fnxgfeiD4iAQB379K+3vCBBgAAAMi5anFl8dnSB6LvFJIkSbkuHS29Z25XfyP6eAQA3LtrRzrjBxoAAAAg36rFueXK4Huj7xWSJEm5LI0XHrqwr+fz0UcjAOD+zIwMpZsnS/EDDQAAAJBv1exEGi88FH23kCRJyl1XDnXtnBqOPxoBAPfv3M7++HEGAAAAyL/TxX8XfbeQJEnKVVePdv+T6dFy+LEIAHhwlw/2xI8zAAAAQO69+HTHj0bfLyRJknLRtcnObz+7fehW9JEIAFgdU8Ob043jHeHjDAAAAJBvjWr28lKl45uj7xiSJElN3YuVx544v6v/C9EHIgBgdZ3ZNpiWJuMHGgAAACDnasX5dPqJx6LvGZIkSU1Zeu7Jt8/v6TsffRgCANbGhT198eMMAAAAkHvL1eLTafyph6PvGpIkSU3Xwv6eo9EHIQBgbV2b6AwfZwAAAID8W6mUfiP6riFJktRUXT3S9z9MDZfDj0EAwNqaHi2nmyez8HEGAAAAyL/lWulnou8bkiRJTdHNo33fN7t96Hb0IQgAWB/nxgfChxkAAAAg/xrV7OWXTpc+En3nkCRJCu2lSlY6Oz74SvQBCABYXwsHe8LHGQAAACD/6tVs4frxjmL0vUOSJCmkNNH/yPzuvivRhx8AYP1NDW9ON453hI8zAAAAQP7Va9nvp/GnHo6+e0iSJK17lw51T0YffQCAOGe2DaalyfhxBgAAAMi/Rm3Tb0ffPSRJkta1q4c7/+3UcDn84AMAxLqwpy98mAEAAABaxOSmj0XfPyRJktalm0f7vm92bPB29KEHAGgO1450xQ8zAAAAQO41qtlrK6c6viv6DiJJkrSm1Y90d58bH3w1+sADADSP6dFyunkyCx9nAAAAgPxrVIpXX6pkpeh7iCRJ0pqUKlsevbC3dyH6uAMANJ9zO/vDhxkAAACgRdSK/zk9W/qq6LuIJEnSqnflUHcl+qgDADSvhYPd8cMMAAAA0Bpqpd+JvotIkiStateOdH9yajj+oAMANK+p4XK6caIUP8wAAAAALWG5VvqZ6PuIJEnSqlQ/XvruM2ODt6OPOQBA8zu7YzB8lAEAAABaQ6OavfyF010fjr6TSJIkPVDp2dJ75sYHX4w+4gAA+XHpQG/4MAMAAAC0jPPpaOk90fcSSZKk+yqlwoYL+/r/PPp4AwDky9TWcrp+rDN6lAEAAABaxHI1O5BSYUP03USSJOmeu3qw/3entpbDjzcAQP7Mbh9MS5PxwwwAAADQGpZPF385+m4iSZJ0T71wrPuHp0c9ugAA7t+FvX3howwAAADQGhrV4usrpzq+K/p+IkmSdFe9fKqna3Z7+bXoYw0AkH8vHO0IH2YAAACA1tCoFK9eP95RjL6jSJIk3bFUKbzt/K6+K9FHGgCgNUyPDqXFU1n4MAMAAAC0iOqmndG3FEmSpDt2aX/voegDDQDQWs7v7o8fZQAAAIDca1Szl1+qdv2t6FuKJEnSm3bpcO/PT42Uw48zAEDruXq4K3ycAQAAAPKrUS3efrG26cejbymSJElv2uKJ3g+c2TZ4K/ooAwC0pumRcrp5shQ+0gAAAAD5tFIr/k/RtxRJkqQ3LVW2PDq/e/BG9EEGAGht58b9cgQAAAC4D9VsPKXChuh7iiRJ0pt2+UDfM9GHGACgPVw51B0/1gAAAAC50agW/5/03JPviL6lSJIkvWnXj/b8yvPD8UcYAKA9TA1vTjdP+OUIAAAAcBeqxbl08n2PR99SJEmS3rSrE/3fembb0K3oAwwA0F7OjQ/EDzcAAABAU2vUspvLle5y9C1FkiTpTbv+zNDXnNs5uBx9eAEA2pNfjgAAAABvplHNXl6sdH5H9C1FkiTpTUupsOHS3t7/N/rgAgC0L78cAQAAAL6SxmTx1spk6QejbymSJEl3bOFgz6enmuDgAgC0N78cAQAAAL5Uo7bpl6LvKJIkSXfs2pHu753dPnQ7+tACAPD8Vr8cAQAAAP667Nej7yiSJEl3bOnpznfP7er/QvSBBQDgi/xyBAAAAFiqFFOjlu1IqbAx+pYiSZJ0xy7u6fuT6OMKAMCX8ssRAAAAaHO1Yi1N9D8SfUeRJEm6Y1cO9v6v0UcVAIA345cjAAAA0J7qteKfLz3d+e7oO4okSdIdu3aq79tmtw/djj6oAAC8Gb8cAQAAgDZUzS7crBU7ou8okiRJdyw9W/qqs+MDjehjCgDAW/HLEQAAAGgfjWrx+quf7docfUeRJEl6y+b39f1+9BEFAOBu+eUIAAAAtIFasbE0uenJ6BuKJEnSW7ZwoPfjU8PxBxQAgLvllyMAAADQ2hrV7OWVySe+O/qGIkmS9JbdqAyWz4wNvRF9PAEAuFdzfjkCAAAALalRKb6xMln6wegbiiRJ0luWKoW3ze3uvxZ9NAEAuF9XDvvlCAAAALSSRrV4u14rfjT6hiJJknRXXTrQtzv6WAIA8CCmR8pp8ZRfjgAAAECrqE92/NPo+4kkSdJddflI749ODZfDjyUAAA/q/K6+8FEIAAAAeHD1SumT0fcTSZKku+r68Y7i7Pbya9FHEgCA1XJtojN8HAIAAADuX71W/M3o+4kkSdJdlVJhw/ldA2ejjyMAAKtpZnQo1U9l4SMRAAAAcO+Wq9nvpVTYGH1DkSRJuqsu7ev7D9GHEQCAtXBhb2/4UAQAAADcm/pkaatHF5IkKTddPdL5PTOj5dvRRxEAgLXywtGO8MEIAAAAuFulXalSeFv0/USSJOmuuv7M0NfMjQ29GH0MAQBYS7Pbh1J9Mno0AgAAAN5Stbg3Pffk26PvJ5IkSXfd+d39fxx9CAEAWA+X9vnlCAAAADSzRqV4NE30PxJ9O5EkSbrrLu0f+JXoAwgAwHqZ2ro53TjulyMAAADQlKrZiVTZ8mj07USSJOmuWzzW9/4zo4O3og8gAADr6ezYYPyQBAAAAPwN9UrxmVR57KujbyeSJEl3XaoU3ja3c+CF6MMHAECEywd7wgclAAAA4C94dCFJknLZ5f1926MPHgAAUaaGy+nmyVL4sAQAAADtrl4pPpMm3vO10XcTSZKke+rake7vnR4phx88AAAinRvvDx+XAAAAoJ0tV4unrz8z9DXRdxNJkqR7Kj335DvOjg+tRB86AACawZXDXeEjEwAAALSnUtXvRSRJUi67sLf36egDBwBAs5gZGUqLp7ImGJsAAACgfTQqxaPp2dJXRd9MJEmS7rnLh3p+5vnh+AMHAEAzmd/TFz44AQAAQLtoVEsTqbLl0eibiSRJ0j23cuyD75vZVn4t+rABANCMXjjWET48AQAAQKurV7JDaaL/keibiSRJ0n01t7NvKvqgAQDQrGa3D6X6ZPwABQAAAC2rumlneu7Jt0ffSyRJku6rS/v7/k30MQMAoNldPtAdP0IBAABAC2pUs+2pUnhb9L1EkiTpvlo4NLB5dnToVvQhAwCg2U0Nl9PNE6XwMQoAAABaSX2ytNWjC0mSlNtSKmw4t3NwIfqIAQCQF+d29ocPUgAAANAq6rXib6ZU2BB9L5EkSbrv5vcMjEQfLwAA8ubaRFf4MAUAAAAt4FPRdxJJkqQH6srB/i0zo+Xb0YcLAIC8mdk2lOqTWfQ4BQAAALnUqBZv109nH4++k0iSJD1QaaLwyJkd5eXoowUAQF5d2NsXPlQBAABA3jQqxTfqTxd/OvpOIkmS9MDN7+o7GX2sAADIs6mt5XT9WEf4YAUAAAB50ahkr6xMln4w+kYiSZL0wF3a1/MPnx+OP1YAAOTdmbGB8NEKAAAAcuLFpWrn34u+kUiSJD1w158Z+poz2wdfjj5SAAC0ioWD3dHDFQAAADS1RiW78dLp0keibySSJEmr0tzuvj+KPk4AALSS6ZFyunmyFD5iAQAAQFOqFueWK93l6PuIJEnSqnTpYO/PT/nFCADAqpvf3Rc/ZAEAAECzqZY+91IlK0XfRyRJklalFyvf+MTstvJr0UcJAIBW9cLRzvhBCwAAAJpGdjJNvOdro+8jkiRJq9b8rv4/iz5GAAC0stntg6leyZpg2AIAAIBopV2psuXR6NuIJEnSqnXpYP8/jT5EAAC0g8sHeppg3AIAAIA49Vrx0ykVNkbfRiRJklata/t7Hp/ZXn49+ggBANAOpobL6eZJX70AAACg/TSqxdvLk6V/Hn0XkSRJWvXO7xz48+gDBABAOzm/uz987AIAAID11Khlr65Uij8SfRORJEla9S4c6Ptn0YcHAIB29MLRzvDRCwAAANZDo5bdrFe6t0TfRCRJkla9uco3PjG9bbNfjAAABDgzNhg+fAEAAMCaq5XOvvrZrs3RNxFJkqQ1aW588PPRBwcAgHa2cLA7fgADAACANVKvZb+/cuzx90XfQyRJktak8zv9YgQAINr0SDktnszChzAAAABYbY1KNpYqWx6NvodIkiStSdPj35T5xQgAQHOY390XPoYBAADAamlUi7frldInUypsiL6HSJIkrVlzO/xiBACgmbxwrCN8GAMAAIAH1ahkrzQqpZ+IvoNIkiStaZf29H88+rAAAMDfdGZsMC1Nxg9kAAAAcL8alezGYnXTd0bfQSRJkta0lWMffN/M6ObXog8LAAB8uYWD3eEjGQAAANyPeq345y/XHu+JvoNIkiSteed3Dfxx9EEBAICvbHqknBZPZeFjGQAAANyLRm3T4cUTve+KvoFIkiSteed3D/5s9DEBAIA7u7CnL3wwAwAAgLvRqBZvL1WKn0qpsDH6BiJJkrTmLY73vmt2+9Ar0YcEAADe2o3jpfDxDAAAAO6oWlxZmSz9YPT9Q5Ikad2aGx/4bPQBAQCAu3N2x0D8gAYAAABvpppd+MLprg9H3z4kSZLWrcv7+n54ams5/IAAAMDduzbRGT+kAQAAwJeqFWsrxx5/X/TtQ5Ikad2aq2x59OxY+QvRhwMAAO7NzLahVJ9sgkENAAAAvqhW+kx67sm3R98+JEmS1rXzu/sno48GAADcn8sHuuNHNQAAANpeo5K9Un+6+NPRNw9JkqR178qh3u9/fjj+YAAAwP2ZGimnmydL4QMbAAAAbayaXWhMdn9L9M1DkiRp3UuVwttmd5SXo48FAAA8mPndffEjGwAAAG2pUdt0OB0tvSf65iFJkhTS+V2Du6OPBAAArI7rxzrCxzYAAADaR6NavL1UKX4qpcLG6HuHJElSSFcO9nxkZrR8O/pAAADA6ji7YzB8dAMAAKA9NCrZjRcnN31v9K1DkiQprJQKG85tH7gafRwAAGB1XZ3oCh/fAAAAaHnPvVx7vCf61iFJkhTa3K6+T0cfBQAAWH0z24ZSfTJ8gAMAAKBV1UqfSeNPPRx955AkSQrt3OHNXTPDQ7eijwIAAKyNS/t74oc4AAAAWks1e6leK340+sYhSZLUFJ0ZG/x89DEAAIC1MzVcTounsvhRDgAAgNZQzf701ZNPfEP0fUOSJKkpmtsz9PPRhwAAANbe+d398cMcAAAAuVefLG1Nzz35juj7hiRJUlOUtj7+ztnR8svRRwAAANbH9WMd4QMdAAAAOVUrNlYqxR+Jvm1IkiQ1VXM7Bo5Gj/8AAKyfszsG44c6AAAAcqdRLf3R0qmOvui7hiRJUlM1t7O85fmt5fDxHwCA9XVtoit8sAMAACAfGtXi7Xqt+Ok0/tTD0XcNSZKkpiqlwsaZbUPXo0d/AADW3+z2wVSvZOHjHQAAAM2tUS2+0Kg+8Q+ibxqSJElN2bmx/t+MHvwBAIizcKg7fMADAACgeTWqxePp5Psej75nSJIkNWXPb/9Q98zw0K3osR8AgDgzI0OpfspXLwAAAPibGtXs5aVa6RMpFTZG3zMkSZKatjNjg5+PHvoBAIh3cX9P+KAHAABA81iuFP+sXun+UPQdQ5Ikqamb3z3wc9EDPwAAzWFquJxunvTVCwAAgHbXqBZv12vFT6eJ/kei7xiSJElN3dWtH3zn7LbyS9EDPwAAzWN+d1/4wAcAAECgWnG+XuneEn3DkCRJykXndg4cix72AQBoPjeOd8QPfQAAAKy/aja+9HTnu6PvF5IkSbloYec3fOfzW8vhoz4AAM1nbnwgfuwDAABgHWVLjUrpJ6JvF5IkSbkppcLGmW1D16MHfQAAmte1I51NMPwBAACw1hrV4pEbz5ay6NuFJElSrpobH/iN6CEfAIDmdmb7YFqajB8AAQAAWCPVrF5/uvjT0TcLSZKk3HVtW8/jM6PlN6KHfAAAmt/Coe74IRAAAIBV16gWj9ysFTuibxaSJEm57Nz2wT+MHvABAMiH6dFyqk9m4YMgAAAAqyVbWprc9LHoW4UkSVJuW9jZ//ejx3sAAPLl8v6eJhgGAQAAeFCN2qbDL1WyUvStQpIkKbelVNg4s33oevRwDwBAvkyPlNPiKV+9AAAAyK1qVveVC0mSpFXozI7BX48e7QEAyKeL+3rjh0IAAADuXbW458XKY09E3ygkSZJy35Xx/semRr/h9ejBHgCAfJoaLqebJ0vxgyEAAAB3pV7NFhq17Cej7xOSJEkt09kdQ89Ej/UAAOTbhT194cMhAAAAd9aoFm8v1UqfSRPv+dro24QkSVLLdH78g38neqQHACD/poY3p5snfPUCAACgaVWzP21Usm+NvktIkiS1VCkVNs5uG7wWPdIDANAazu/y1QsAAICmU81eqldKn0zjTz0cfZeQJElquWbHyv82epwHAKC1XD/WET8qAgAA8BeqmyqvPFMcir5HSJIktWQLBwffOzW6+fXoYR4AgNYyNz4QPywCAAC0uUateO3F2qYfj75FSJIktXRntg9Uo0d5AABa0wtHffUCAAAgQmOyeKs+Wdq6XBl8b/QdQpIkqaW7OF7+7ugxHgCA1nV2x2D42AgAANBuGtXSH710uvSR6BuEJElSy5dSYePMtvJC9BgPAEBruzrRGT46AgAAtINGtXhlaXLTx1IqbIy+QUiSJLVF06PlT0aP8AAAtL7Z7UNpaTJ+gAQAAGhVjWrx9Xqt+OnFE73vir49SJIktU0Xx//We6ZGNr8WPcIDANAerhzqDh8iAQAAWlKtWFt8tvSB6LuDJElS23V2bGgienwHAKB9zGwbSnVfvQAAAFhF2aUXn+740eh7gyRJUls2O/bBD0+PlG9Hj+8AALSXywd99QIAAOCB1YpfWKoUP3X9maGvib43SJIktW2zY0Nnokd3AADaz8xoOS356gUAAMB9aVSLt5eq2fjLp3q6ou8MkiRJbd3s2ODPRg/uAAC0r4WDPeFjJQAAQN40KtkfvHSq+G3RNwZJkqS2L40/9fD0ts0r0WM7AADta2Z0KNUns/DREgAAIBdqpbMrlewfRt8XJEmS9Jed217+reihHQAALh/w1QsAAIA7qhZX6pXSJ1Nly6PRtwVJkiT9Zde2vf/x6ZHyG9EjOwAATI+UU/2Ur14AAAB8qUYte7VeKf1WOv3EY9F3BUmSJH1JZ8YGKtEDOwAAfNGl/b56AQAA8EWNavH2UjUbf6VS6o++J0iSJOkrNLfrg9/y+SYY1wEA4IumR8qpPumrFwAAAEvV7MQXTnd9OPqWIEmSpDs0MzZ0LnpYBwCAL3Vxn69eAAAA7atRyf6gXs3+dvQNQZIkSW/R7Njgz0YP6gAA8JVMDW9Oi6d89QIAAGgvjWrx80vV7KmUChuibwiSJEl6i9J46aumR8rL0YM6AAC8mUv7esNHTwAAgHVRLc4t1zp/KqXCxuj7gSRJku6ymdHyp6OHdAAAuJOp4XJaPOmrFwAAQAurZhcatU2/lCpbHo2+G0iSJOkemh7/pmx6pPxG9JAOAABv5aKvXgAAAK3IgwtJkqR8NzM6eCJ6QAcAgLsxNVxOi6dK8aMoAADAavDgQpIkKf/Nbf3gt0SP5wAAcC8u7PXVCwAAIN8aleLVpVrpEx5cSJIktUDTo+Wp6OEcAADuxdRwOd086asXAABA/jRqxWtLtdIn0rOlr4q+D0iSJGkVOjOy+YejR3MAALgfF/b2hQ+mAAAAd6tRyc4s1bKfSxP9j0TfBiRJkrRKpfHCQ7Pbhl6IHswBAOB+TA2X0+IpX70AAACaXDX700Yt+8lUKbwt+i4gSZKkVe7sWPlfRI/lAADwIC7u640fUQEAAL6CeqX4zGK1+AMpFTZE3wMkSZK0Br0wvuWrZ0bLL0UP5QAA8CD+4qsXWfigCgAA8EX1SvGZpUrx70bfASRJkrTGzYwNfiZ6JAcAgNVwyVcvAACAYI3J4q16NTu4VOn45uj9X5IkSevQhf1DxZmR8hvRAzkAAKyGqeHNvnoBAADEqBaXl2qlz7zyTHEoevuXJEnSOjY7Vj4WPY4DAMBqunTAVy8AAIB1VC3OLdVKn1h6uvPd0Zu/JEmS1rkzWz/4/unh8u3oYRwAAFbT9Eg51X31AgAAWHvPNWrZT6ZK4W3Re78kSZKCmt02+GfRozgAAKyFywd6ogdYAACgBTWqxdcblWysMdn9LdEbvyRJkoKb2vaN3xc9hgMAwFqZGRlK9UlfvQAAAFZJNVtcqpV+bfFEb2f0vi9JkqQmKKXCxpntQ5eix3AAAFhLlw/66gUAAPDAnlua3PSxdOzxd0Zv+5IkSWqizox9w89Fj+AAALDWZkbLqT4ZPtICAAA506hkryxVs/Hlyc5vj97zJUmS1ITN/d6WR2dGyo3oERwAANbDwsHu8NEWAADIh0Y1m12qlT6R/rD89dFbviRJkpq4mdHN/yZ6/AYAgPUyMzqU6k0w4AIAAM2pMVm8tVTNTixWiz+QUmFD9IYvSZKkJu/S/13++ueHv+HV6PEbAADW08IhX70AAAD+pr/4ukXHv7rxbCmL3u4lSZKUo6a2lf9D9OgNAADrbWbbUPioCwAAxPv/2Lv3N7nr+u7jg8ruzIYYgjntzGTZ3YScOMu5HIWAUs5gLCYQwQIqIoSKRFQ0Hm+gWg7e5W5u0d5kd2bDFrCWihYwuwu5qfXGnqwFkszMLsEgaNhZUKEQMvcP9r6Eu4A57O57Do/HdT3/idf7e32+I/2ZF8r9md5yX3qh1y0AANhuT3xnbvqx3IKXo0dvSZIkKaKnvrtn+MgrSZIkKaxHRgZar6h8P7tH9FYPAEANezw3d3X02C1JkiRFtb5nTvTQK0mSJGk86888Wx7Irhzuaz8gep8HAKAOPLZqv47HV817JXrsliRJkiJ7+ntevZAkSZLquZG+zIvlgexdw/2tZ1V6FzVFb/MAANSR9fl5348euSVJkqToCnd49UKSJEmqt0bWpF8Z7kuvHRloveK5vjlTovd4AADq0KPd++77WPf8rdEjtyRJklQNPfP9meHDsCRJkqSdb3gg/dPhvuyKFwamd0Tv8AAA1Ll13fN/GD1uS5IkSdVS6c7Z4QOxJEmSpB2sP/PE8ED65uGH0wdGb+8AADSIQn7OUdHDtiRJklRt/eJ+r15IkiRJNVN/5onnB2be+NyatiMrlcQu0bs7AAANZn1+/r9Fj9qSJElStTV416z48ViSJEnSGzeQHhoeSN/8bF/bUT62AAAgzOO5+X8YPWhLkiRJ1dhjXfMrmx/Ixo/JkiRJkl7doI8tAACoGpVKYpfHc/MHowdtSZIkqVp74ttevZAkSZKiGxnIPP7cgzO/PPxw+sDoXR0AAF5jXfe+i6OHbEmSJKmae6xrXuXZH2TCh2ZJkiSpkRrpS28p96UfGe7LriivaT0oeksHAIDXVelNvHVdfv7Po4dsSZIkqdp78jsd4cOzJEmS1AD9arg/c095TesllQemTY/e0AEA4Pda3733R6MHbEmSJKkWerx7XmV4jVcvJEmSpFGvP10sD2RXPtufPq3Su6gpejcHAIBtVvrL45Lr8nPL0QO2JEmSVCv97J72+FFakiRJqvUG0r8e6c/eO9zXuuy5vvZ50Vs5AADssMe7510TPVxLkiRJtdS6/NzKcJ9XLyRJkqTtbiBbGB5I31zuSy+s9B2XjN7HAQBgp/181X4THu2a/6vo4VqSJEmqtZ767p7xo7UkSZJU5Y0MpJ8u92d6y2taL/lcroT9AAAgAElEQVTlw9lM9CYOAACj7rHb9742erCWJEmSarENPXPCR2xJkiSp2hoZyGx+ri/918N9rcuefaBjv0olsUv0Dg4AAGPGaxeSJEnSzvXM99vCh21JkiQpspH+9DPD/Zl7ygPZ5eU1rQdVKom3RG/fAAAwbh7Lee1CkiRJ2pmKvbPDh25JkiRpPBsZSD/tQwsAAEh47UKSJEkarX55XzZ8/JYkSZLGopG+9JZyf+ZfywPZlcN9My94rq99XvS2DQAAVePx7nmfjR6oJUmSpHroibtnhQ/ikiRJ0qg0kB4p92fuH+7Lrni2P31a+aG2ydFbNgAAVKVneo/b7dGuBV67kCRJkkahx7rmVZ79QSZ+JJckSZK2o5G+zIsj/en/MzKQ+fORgczSFx/qnBO9XQMAQM14tGufFdHjtCRJklRPPfmdjvDhXJIkSXrD+tPPl/vSjwyvya4aGWi94tm+tqMqfcclo7dqAACoSV67kCRJkka/dd1zK8NrqmBQlyRJkvoy5eG+9NrhgfTNIwOZpZvXtu1dqSTeEr1NAwBA3Xh01d6fjx6lJUmSpHrsqb/dswpGdkmSJDVOmXL5P1+xKA9klz/bnz6t/FBbZ6WS2CV6hwYAgLr1TO9xuz3mtQtJkiRpTFrfM6cKxndJkiTVX5nySH/m78v96W8MP5i5stzfduIvH85movdmAABoSOty878QPUZLkiRJ9dzT32urgmFekiRJtdZIf+aF4YH0T8v9md5yX/q68prWS8p96YVesAAAgCqy+d7Zb3+sa8Gvo4doSZIkqZ4r/tXs8NFekiRJ1ddIf+alcn+69Fx/+sHh/mzX8IPZz4/0Zc8b6csc/lzfnCnR+zEAALANvHYhSZIkjU+/uH9m+LAvSZKkca4/8+x/vlhxf3kgu7I8kF0+MpBZWv5/r1b0Jd4WvREDAAA7odDbOenx7nm/iR6gJUmSpEZo6O5Z8cO/JEmSdrqR/swL5YFsYbgvvXa4P3NPeSC7crgvu2JkoPWKcn9m0bN9bUdtXtu2d+XePd4evQEDAABj7N+7538penyWJEmSGqXHuuZXNj+QDT8USJIkKVMe6U//ojyQLZT7M/9U7s+sKfen7y6vyXzruQdbv/b8gzOvfb4ve9lIX/a8kTWZU55b03bk5rVte//ivpnpyiMH7Rq96wIAAFVk/eq9bhy8a6+/lyRJkjQ+PXNvx+3lvvR1kiRJ2oYebL2mPJBd/uqeX5O+tLym9ZJX96uB1iXl/syicn9m0ciazCnlvvTC3zyYPXT44fSB5YfaOn/Tl8mWH2qbXOld1BS9yQIAAAAAAAAAAAAAAAAAAAAAAAAAAAAAAAAAAAAAAAAAAAAAAAAAAAAAAAAAAAAAAAAAAAAAAAAAAAAAAAAAAAAAAAAAAAAAAAAAAAAAAAAAAAAAAAAAAAAAAAAAAAAAAAAAAAAAAAAAAAAAAAAAAAAAAAAAAAAAAAAAAAAAAAAAAAAAAAAAAAAAAAAAAAAAAAAAAAAAAAAAAAAAAAAAAAAAAAAAAAAAAAAAAAAAAAAAAAAAAAAAAAAAAAAAAAAAAAAAAAAAAAAAAAAAAAAAAAAAAAAAAAAAAAAAAAAAAAAAAAAAAAAAAAAAAAAAAAAAAAAAAAAAAAAAAAAAAAAAAAAAAAAAAAAAAAAAAAAAAAAAAAAAAAAAAAAAAAAAAAAAAAAAAAAAAAAAAAAAAAAAAAAAAAAAAAAAAAAAAAAAAAAAAAAAAAAAAAAAAAAAAAAAAAAAAAAAAAAAAAAAAAAAAAAAAAAAAAAAAAAAAAAAAAAAAAAAAAAAAAAAAAAAAAAAAAAAAAAAAAAAAAAAAAAAAAAAAAAAAAAAAAAAAAAAAAAAAAAAAAAAAAAAAAAAAAAAAAAAAAAAAAAAAAAAAAAAAAAAAAAAAAAAAAAAAAAAAAAAAAAAAAAAAAAAAAAAAAAAAAAAAAAAAAAAAAAAAAAAAAAAAAAAAAAAAAAAAAAAAAAAAAAAAAAAAAAAAAAAAAAAAAAAAAAAAAAAAAAAAAAAAAAAAAAAAAAAAAAAAAAAAAAAAAAAAAAAAAAAAAAAAAAAAAAAAAAAAAAAAAAAAAAAAAAAAAAAAAAAAAAAAAAAAAAAAAAAAAAAAAAAAAAAAAAAAAAAAAAAAAAAAAAAAAAAAAAAAAAAAAAAAAAAAAAAAAAAAAAAAAAAAAAAAAAAAAAAAAAAAAAAAAAAAAAAAAAAAAAAAAAAAAAAAAAAAAAAAAAAAAAAAAAAAAAAAAAAAAAAAAAAAAAAAAAAAAAAAAAAAAAAAAAAAAAAAAAAAAAAAAAAAAAAAAAAAAAAAAAAAAAAAAAAAAAAAAAAAAAAAAAAAAAAAAAAAAAAAAAAAAAAAAAAAAAAAAAAAAAAAAAAAAAAAAAAAAAAAAAAAAAAAAAAAAAAAAAAAAAAAAAAAAAAAAAAAAAAAAAAAAAAAAAAAAAAAAAAAAAAAAAAAAAAAAAAAAAAAAAAAAAAAAAAAAAAAAAAAAAAAAAAAAAAAAAAAAAAAAAAAAAAAAAAAAAAAAAAAAAAAAAAAAAAAAAAAAAAAAAAAAAAAAAAAAAAAAAAAAAAAAAAAAAAAAAAAAAAAAAAAAAAAAAAAAAAAAAAAAAAAAAAAAAAAAAAAAAAAAAAAAAAAAAAAAAAAAAAAAAAAAAAAAAAAAAAAAAAAAAAAAAAAAAAAAAAAAAAAAAAAAAAAAAAAAAAAAAAAAAAAAAAAAAAAAAAAAAAAAAAAAAAAAAAAAAAAAAAAAAAAAAAAAAAAAAAAAAAAAAAAAAAAAAAAAAAAAAAAAAAAAAAAAAAAAAAAAAAAAAAAAAAAAAAAAAAAAAAAAAAAAAAAAAAAAAAAAAAAAAAAAAAAAAAAAAAAAAAAAAAAAAAAAAAAAAAAAAAAAAAAAAAAAAAAAAAAAAAAAAAAAAAAAAAAAAAAAAAAAAAAAAAAAAAAAAAAAAAAAAAAAAAAAAAAAAAAAAAAAAAAAAAAAAAAAAAAAAAAAAAAAAAAAAAAAAAAAAAAAAAQCPJLr7q8hnvW3a1JEmSJDVSzfl1J07IFRZKklSPtdz5xMG75jYc9Oom5DfuNyk31Jm668lsIjc0OXFvpTl6mwQAAKh5mYtWHD5rz/aKJEmSJDVaE796X6U5V5QkSbniSCpf2pzMlQrN+dI/JnOFNc09hbub8oPfas4N/lnT6qHPpnqGLk/lSucmezce29T71ILdep+aGr1tAgAAVIX0WR/OR4+dkiRJkhTROz56Q/SRS5Kk2i5ffDmZL/2sOVf6p+Z88W9S3cU/b+ouXJPsKZ6f7N14bPO3n5jlVQ0AAKDutR176s+jx05JkiRJiih98nnxBytJkuq9fGlrMlfcmOwp9SVzxduaugvXNOWKi3btGnxnorcwKXofBQAA2Cnty27cvXP23PCxU5IkSZIi6pi/X6W5e0P8QUqSpAYulSs9m8wV1yZzpZWp3NAVE3KFhS1dg63R2ykAAMA2aT33is9ED52SJEmSFNnEr94XfnCSJEn/tWSu+HQyX7yveXXh+lSudG7TnaV5id7KW6M3VQAAgNfIvvvcf44eOSVJkiQpsnd89Ibww5IkSdrWSr9qypceTnUX/zyZH/pA092b5icqlV2id1YAAKCBdRx42EvRI6ckSZIkRZY++bwqOCJJkqQdLl8sJ3Olv2vpGfxCS3fh1PQ9m6ZE764AAECDSH/wkydFD5ySJEmSFF3HvH0rzd0b4o9GkiRpdMqXtjbnCj9Ndhf+IpkrLEnd9WQ2eosFAADqVOvZF/9V9MApSZIkSdXQxK/eF38kkiRJY1YyVyo25Uu3T1hdunCPnp/NjN5mAQCAOpE9+rSno8dNSZIkSaqGplx6Q/hBSJIkjV/JXKmQzJVWNuWKixK5ocnRWy0AAFCD5l5//cSOveZtjR43JUmSJKkaSr9nSfgBSJIkBZUvvtzUPfi/m3LFa3ftGnxnolLZJXq/BQAAasC0JVd+PHrYlCRJkqRqqWPuPpXmrvXxhx9JkhReMl98pik3uKopV1yUuHfz26O3XAAAoEplTzn/h9HDpiRJkiRVUxP/9O/CDz2SJKnaKr3QnCvc25IbumT6qg3TonddAACgiux5yNG/iR41JUmSJKmamnLpDVVw3JEkSdVb6ZVkrri2KTe0vLl34+zojRcAAAg0bemK/Wa1d4SPmpIkSZJUTaXfs6QKDjqSJKkmype2pnLFH6VWFz8xubfQFr35AgAA46z1nMtWRg+akiRJklRtdczbt9LcvSH+kCNJkmquVG7wkVRu6IoJ+aenR++/AADAOGg7/uxS9KApSZIkSdXYbl97IPxwI0mSarqXmvOD303mh85LrKy0RG/BAADAWFjR97aO+fu/Ej1mSpIkSVI19o6P3Rh9rJEkSfXTSFNucNWEXGFholLZJXoaBgAARsm0JVedFz1kSpIkSVK11nr6H0cfaCRJUj2WLz7ekius2L2n1B69EQMAADspfcaF348eMiVJkiSpWmvf/7D4w4wkSarf8qUtzfnB77Z0FU9P9FbeGr0XAwAAO2Dmke/ZHD1kSpIkSVI113LrP8QfZSRJUt2XzJU2pXKF6yb3Ftqid2MAAGAbtS+7cffO2XPDR0xJkiRJquYmL78t/BAjSZIaqHzx5ebc4F3N+aETE5XKLtE7MgAA8CZmvG/Z1dEDpiRJkiRVe9PPXRZ/gJEkSY1ZvrgulRu6IrGqMiF6TwYAAF5H9uQP/H30gClJkiRJ1d7MwxfGH10kSVJjly+Wm3Olm5N3FfeM3pUBAIBXaTv0Xb+KHjAlSZIkqepr76ykvvmT+IOLJElSvvhyqrt0R8vqwiHR+zIAADS83Rd/es9ZHbPiB0xJkiRJqoEmrbgj/tAiSZL0qpK54tqWO4ZOS1Qqu0TvzQAA0JCmLfroDdHDpSRJkiTVSlMvvDb8uCJJkvS65Yv/kswVlyb6+t4WvTsDAEBDyZ507k+ih0tJkiRJqpWy7zor/qgiSZL0JiXzpVJzrvCRxL2V5uj9GQAAGkLHAUf8R/RwKUmSJEm1UufsuZXkqnXhBxVJkqTfVzJf/HlTbmh5oreSit6hAQCgbrUu/uRB0aOlJEmSJNVaE6+/N/yQIkmStK0lc8WnfYABAABjJH32R74RPVhKkiRJUq015SPXhx9QJEmStrdkrrQp1TN0uV+QAADAKMqecM6G6MFSkiRJkmqt9B+eH344kSRJ2tGSudLghNWlCxO9lbdGb9QAAFDzOvc/9OXowVKSJEmSaq2OfQ4KP5hIkiTtdPnSo8lccWmiUnlL9FYNAAA1acb51xwbPVZKkiRJUq3Wcus/xB9LJEmSRqFUbvCRCbnCwujNGgAAas6Msz/0reihUpIkSZJqtcmf/MvwI4kkSdJolswV75+Q37hf9HYNAAA1I7vwnEL0UClJkiRJtdq0JVeHH0ckSZJGv9IrTbnBVVN7SzOiN2wAAKh67fsdsiV6qJQkSZKkWm3msadWwWFEkiRpzHquafXgpxO9lVT0lg0AAFUps/RT74oeKSVJkiSpluucPbeS7FoffRCRJEka05K54sZkrrg0etMGAICqkznrI/8reqSUJEmSpFpv4p9+P/wYIkmSNB4lc4U1u63asE/0tg0AAFUjvfCcYvRAKUmSJEm13h6X3xR+BJEkSRq38sWXm3OlmxO9hUnRGzcAAIRr3++QLdEDpSRJkiTVeq1nfij+ACJJkjTOJfPFnydzhSXROzcAAITJLPnsCdHjpCRJkiTVQ3sedHT44UOSJCmqZL7U33T3pvnRmzcAAIy71rMvvT16nJQkSZKkuqi9o5K67V/Cjx6SJEmBvZTKFa5L3Ftpjt6+AQBg3GQXnlMIHyclSZIkqU6atOKO6GOHJElSfPnSo7t1lY6L3r8BAGBcdO5/6MvRw6QkSZIk1UtTP7gi/tAhSZJUDeVLW5tyg6sSuaHJ0Ts4AACMmdbFnzwoepSUJEmSpHoqc9IfxR85JEmSqqhkrrSpafUTZ0Tv4QAAMCZmLLrs69GjpCRJkiTVUx3z9680dxfCDxySJEnVVipX7J14+5PviN7FAQBgVM086dyfRI+SkiRJklRvTbhlbfhhQ5IkqRpL5kqbWrqKp0dv4wAAMGraDzn6hehBUpIkSZLqrclXfyP8qCFJklTNpXLF3kRuaHL0Rg4AADtl0kVf7JjV3hk+SEqSJElSvTVtySfCjxmSJEnVXjJXGtytq3Rc9FYOAAA7bMaiKz8fPUZKkiRJUj2WPe6M8EOGJElSTZQvbW3OlW5O3Ftpjt7MAQBgu2VPOf+H0WOkJEmSJNVjHXMWVJq7N8QfMiRJkmqlnuJPdlu1YZ/o3RwAALbLnkcc/1z0GClJkiRJ9dqEmx+MP2BIkiTVVKUXUrmhKxKVyi7R+zkAAPxeb//jP9ujs3N2+BApSZIkSfXa5Ktvq4LjhSRJUg2WL3x74u1PviN6RwcAgDeVXXzV5dEjpCRJkiTVc9OWXB1/tJAkSarRkvniE8k7isdEb+kAAPCG0qdfeF/0CClJkiRJ9Vz2uDPDDxaSJEk1Xb60pSlXvDZRqbwlelMHAID/Inv0Kc9Ej5CSJEmSVM91zFlQae7eEH+wkCRJqvGS+cEfTMg/PT16VwcAgN+pVN7SPn/fV6JHSEmSJEmq9ybc/FD4oUKSJKkeSuaKGyf2DP5B9LwOAACJRCKRmHH+Z/4wenyUJEmSpEZo8vLbwo8UkiRJdVO++HJTbmh5olLZJXpnBwCgwaXPufS26PFRkiRJkhqhaeddHX+gkCRJqrNS3aU7EqsqE6K3dgAAGljm3YsejR4fJUmSJKkRyr7rrPDDhCRJUp32r5NyQ53RezsAAA2q/Z1Hvxg9PkqSJElSI9Qxd+9Kc3ch+ighSZJUl6Xypc3Nq4snRW/uAAA0mOyVX8rMau8MHx8lSZIkqVGacMva8KOEJElS3ZYvbWnKDS1PVCq7RO/vAAA0iNZzr/xU9OgoSZIkSY3U5E9+M/4gIUmSVOelcoO5RG8lFb3BAwDQAFpPvaAvenSUJEmSpEZq2vnLww8RkiRJjVBTd+mHU3tLM6J3eAAA6lz2yPf8Mnp0lCRJkqRGKnPCe8OPEJIkSY1Ssqfw5K5dg++M3uIBAKhXK/re1jFnwdbo0VGSJEmSGqmOBQeEHyAkSZIaqnzx+abVT5wRPckDAFCH0ouvOiN6cJQkSZKkRiy18sfxBwhJkqRGKl/aklpd+JPoXR4AgDoz4+wPfSt6bJQkSZKkRmzS53vjjw+SJEkNWDJXvC3R1/e26H0eAIA6MfPE9/00emyUJEmSpEZsyoevCz86SJIkNW6lv06srLREb/QAANSBtkOO/XX02ChJkiRJjVjrmRdVwcFBkiSpcWvqLv1wt96npkbv9AAA1LD2ZTfu3tkxK3xslCRJkqRGrO2w48OPDZIkSY1eMj+44e25jXtF7/UAANSo1nOvujh6aJQkSZKkRq2zY1YluWpd+LFBkiSp0Ut2l57a9c6fHRi92QMAUIPSZ17y7eihUZIkSZIaud2+dn/4oUGSJEnFSnO++PyEnqETond7AABqTNvxZ5eiR0ZJkiRJauQmf/wv4o8MkiRJ+m354otNPRvPit7uAQCoIR0HHP5S9MgoSZIkSY3ctCVXxx8YJEmS9LvyxZcn9JQuiN7vAQCoAdMu+eKsWe0d4SOjJEmSJDVy2RPOjj8uSJIk6bXlS1tT+dKy6B0fAIAq13rulZ+KHhglSZIkqdHrWLB//GFBkiRJr1tT99DV0Vs+AABVLHPahT+IHhglSZIkSe2V1F88En5UkCRJ0uvX1DP0ueg9HwCAKtV23KlPRY+LkiRJkqT2yqQVd4QfFCRJkvTGtfQMfiF60wcAoAq173vQluhxUZIkSZLUXpnyoa+EHxMkSZL0e+oevCF61wcAoIpMW7piv+hhUZIkSZL021rPuCj+kCBJkqTfX774teh9HwCAKjFj8bIV0cOiJEmSJOm3zTzixPgjgiRJkrat1YUbozd+AACqQOaUD66JHhYlSZIkSb+tc9acSnPX+vgjgiRJkrat1cWvRu/8AAAEazvu1Keih0VJkiRJ0u+acMva+AOCJEmStrmmnqHPRW/9AAAEat/v4C3Ro6IkSZIk6Xft/pnu8OOBJEmStq+m1YOfjt77AQAIMOPCaxZED4qSJEmSpNc29ZIvhR8OJEmStP2lVhf+JHr3BwBgnE1bvOza6EFRkiRJkvTaWs+8KPxoIEmSpB0oX9ra0l28OHr7BwBgHGVOu+CB6EFRkiRJkvTaZh5xUvzRQJIkSTtWvrQllS++L3r/BwBgnLQdc8am6EFRkiRJkvTaOmfPrTR3rY8/GkiSJGnHyhf/o6V748nRNwAAAMZB+34Hb4keFCVJkiRJ/7UJt6yNPxhIkiRpJyr9emJv4ajoOwAAAGOo8+KvzIkeEiVJkiRJr9/un+mugmOBJEmSdqZUvrR5t1Ub9om+BwAAMEamLr5qefSQKEmSJEl6/aZc8uXwQ4EkSZJ2vmRP4cnJvYW26JsAAABjIHP6xfdED4mSJEmSpNev9cyLw48EkiRJGqXyg/+WyA1Njr4LAAAwytILzylGD4mSJEmSpNdv5h+cFH8gkCRJ0qiVzJf6E/dWmqNvAwAAjKL2Q45+IXpIlCRJkiS9fp2z51WauzeEHwgkSZI0eqVypdWJSuUt0fcBAABGwR4fu+XtnR2zwodESZIkSdIbN+Hra8OPA5IkSRrdUrnCddE3AgAARkF66VWLowdESZIkSdKbN+nafPhhQJIkSWPQ6qEPRd8JAADYSelzLr0tekCUJEmSJL15Uy75cvxRQJIkSWPRSxN6hk6IvhUAALATMu9e/E/RA6IkSZIk6c1rPfsj0QcBSZIkjVGpfGnzxLsLc6LvBQAA7KC2I08cjh4QJUmSJElv3sxjTw0/CEiSJGnsSuZKhfQ9m6ZE3wwAANgBHXP32Ro9IEqSJEmS3ryOBQeEHwMkSZI0tiVzhTWJlY/sGn03AABgO6Qv/vQfRI+HkiRJkqRtK/WNfw4/BkiSJGlsS/UUvx59OwAAYDtMX3T5l6KHQ0mSJEnStjXxuu+GHwIkSZI09rWsHrwo+n4AAMA2ypx2wQPRw6EkSZIkaduafNXK8COAJEmSxqF88cXUnRsPi74hAACwDbLHnzkUPRxKkiRJkratqRdeG38EkCRJ0riUzJU2pXp/mYm+IwAA8Hu0H3z0C9HDoSRJkiRp22o97YLwA4AkSZLGr2SuuDbRW2mKviUAAPAGDrpkZUtn5+zw4VCSJEmStG3NPHxh+PgvSZKk8S3VPXhL9D0BAIA3MO3915wZPRpKkiRJkra9jr3mV5q7C+HjvyRJksa3ZH7ovOibAgAAr2PG+y67JXo0lCRJkiRtXy23/ih8+JckSdI4ly8+39T71ILouwIAAP+f9KlLH4oeDCVJkiRJ29fbv3BX/PAvSZKk8S8/+G+JVZUJ0bcFAABepe2YMzZFD4aSJEmSpO1rjytuih/9JUmSFFKqezAffVsAAOBVOg487KXowVCSJEmStH1NW3xV+OAvSZKkuFpWD14UfV8AACCRSKTf/9Ups9o7wwdDSZIkSdL2lXn3ueFjvyRJkiIr/brp7k3zo+8MAAANb+qSj38geiyUJEmSJG1/e77zyCoY+yVJkhRaT/Enid5KKvrWAADQ0NLnXHpb9FgoSZIkSdr+Ojs7K8lV6+LHfkmSJIWW6h68JfrWAADQ0LInn/ej6LFQkiRJkrRjTbj5ofChX5IkScHlS1tbuoqnR98bAAAaVvbo056OHgolSZIkSTvWpBV3xA/9kiRJCi+ZL/4i1fvLTPTNAQCgIXUccNhL0UOhJEmSJGnH2uPym8JHfkmSJFVHyVzx/kSlskv03QEAoKG0L7tx91kds8KHQkmSJEnSjjXt/OXhA78kSZKqqcHLom8PAAANZerSq98bPRJKkiRJkna89ClLq2DclyRJUvVUemG3/Pq9o+8PAAANY/qiy26KHgklSZIkSTvezMMXVsG4L0mSpOqq8OPEykd2jb5BAAA0hOxpS/ujR0JJkiRJ0o7Xsdf8Khj2JUmSVG019Qx9LvoGAQDQELLHnzkUPRJKkiRJknau1P/85/BhX5IkSVVWvvjyrrkNB0XfIQAA6l77wce8ED0QSpIkSZJ2ronX3xs/7EuSJKn6yhf/JdFbaYq+RQAA1K8VfW/rnD03fCCUJEmSJO1ck5ffFj/qS5IkqSrzyxEAgDGUWfqpd0WPg5IkSZKknW/qxV8MH/QlSZJUpeWLL+96588OjL5JAADUpRmLl62IHgclSZIkSTvfjPdeGj/oS5IkqXrLl/4xsfKRXaPvEgAAdSdz5kV/Ez0OSpIkSZJ2vuy7zoof8yVJklTVNeWGlkffJQAA6k7m3YsejR4HJUmSJEk7X/sBh4cP+ZIkSary8sUXJ3YV50bfJgAA6krbkScNR4+DkiRJkqRRqGNWJblqXfyYL0mSpKoumSv9XfRtAgCgrrTve9CW8HFQkiRJkjQqTbj5ofAhX5IkSdVfKlc6N/o+AQBQF6Z/+E+nzWrvCB8GJUmSJEmj06QVd4SP+JIkSar+kvnizxO5ocnRdwoAgJo3fekn/ih6FJQkSZIkjV57XHFT+IgvSZKk2ijVM3hr9J0CAKDmTX/v5X8WPQpKkiRJkkavqUs/FT7gS5IkqVYqvZK6c+Nh0bcKAICaljntggeiR0FJkiRJ0ujVeuZFVTDgS5IkqXYq/DjRW3lr9L0CAKBmZU84Z0P0KChJkiRJGr2yx55eBeO9JEmSaqmW7uLF0fcKAICatecRxz8XPQpKkiRJkkav9gMODx/uJUmSVFul8qXNE29/8h3RNwsAgJrUPm/frdGjoCRJkiRp9OrsmFVp7lofPt5LkiSptkp1D94SfbMAAKg5ky76YnLxViYAACAASURBVEf0IChJkiRJGv1abv1R+HAvSZKkGitf2rLr6uL+0bcLAICakl7yiQ9Gj4GSJEmSpNFv4lfuiR/uJUmSVHMle0p90bcLAICaMu2cj9waPQZKkiRJkka/yZ/8ZvhoL0mSpNqs6Y7SmdH3CwCAmpE55YNrosdASZIkSdLoN+VD/y18sJckSVJtlswPbkj0VpqibxgAADVh5omL1kePgZIkSZKk0W/6+68MH+wlSZJUw+WLH4u+YQAA1IS2w08sR4+BkiRJkqTRL/2eJfFjvSRJkmq2VL60OdE7skf0HQMAoOq173fwlugxUJIkSZI0+s084sTwsV6SJEk13urC9dF3DACAqta+7MbdZ7V3ho+BkiRJkqTRr2P+/vFDvSRJkmq80gvJu4p7Rt8zAACqVuYDy0+JHgIlSZIkSWNX6lv/XgVjvSRJkmq5pp7Bb0bfMwAAqtaMxctWRI+AkiRJkqSxa8JN/eFDvSRJkmq8fGlL092b5kffNAAAqlLr2Rf/VfQIKEmSJEkauyZ9vjd+qJckSVLNl8oVe6NvGgAAVSn9nvN+HD0CSpIkSZLGrj2W/ffwkV6SJEl1UL60NZXbeGj0XQMAoOq0HXvqU9EjoCRJkiRp7Jr6wc/Fj/SSJEmqi5Ldpe9F3zUAAKpO+yFHvxA9AkqSJEmSxq4Ziy4LH+glSZJUPyXvKB4TfdsAAKgqHXvN2xo9AkqSJEmSxq7Mu88NH+clSZJUPyXzgz+Ivm0AAFSNzou/Mid6AJQkSZIkjW0zjzgpfJyXJElSfZXseuLo6BsHAEBVmLbkqvOiB0BJkiRJ0tjWsc87w4d5SZIk1VfJfPG+6BsHAEBVmLboozdED4CSJEmSpDGuvbOSXLU+fJyXJElSfTWxt3BU9J0DACBc+qyL/zp8AJQkSZIkjXkt/+Mfwod5SZIk1VfJ7tL3ou8cAADhMie//x+jxz9JkiRJ0tg38frvhQ/zkiRJqr9SuY2HRt86AABCtR1zxqbo8U+SJEmSNPbt/pmu8FFekiRJdVhP4e7oWwcAQKi2Q4/5TfT4J0mSJEka+/a4/Kb4UV6SJEn1V760tan3qQXR9w4AgDAd8/bdGj3+SZIkSZLGvqkXXhs/ykuSJKkuS+aL34i+dwAAhJh2xZenRw9/kiRJkqTxacY5l4YP8pIkSarT8sUXp3znF+nouwcAwLhLL77qjOjhT5IkSZI0PmVO/KP4QV6SJEn12+rC9dF3DwCAcTdt0cc+Gz38SZIkSZLGp5mHL4wf4yVJklS/5YvlRG9hUvTtAwBgXKXP+nA+eviTJEmSJI1PHQsOiB/jJUmSVNelVhf+JPr2AQAwrjInL304eviTJEmSJI1T7Z2V5Kp14WO8JEmS6rdkrlRM9FbeGn3/AAAYN9mF5xTChz9JkiRJ0rjVcusPw8d4SZIk1XdNPRvPir5/AACMm7ajTn42evSTJEmSJI1fE6/72/AhXpIkSfVdMl/qj75/AACMm44DDv+P6NFPkiRJkjR+7f6ZrvAhXpIkSfVfy51PHBx9AwEAGBcde83bGj36SZIkSZLGrz2WfT18hJckSVL915Qr/GX0DQQAYMztvvjTe0YPfpIkSZKk8W3qRV8IH+ElSZLUAOWLL6bv2TQl+hYCADCmpr3/mjOjBz9JkiRJ0vg2ffHH40d4SZIkNUSpnuJV0bcQAIAx1br445+KHvwkSZIkSeNb6+l/HD7AS5IkqTFK5gc3JCr/l707f5OzrvM9XDDSXdXZI1l6SdNVCQRBImsgxEAIENYYEhYhQEhAVmXRE3YYooLiMKIsLiAIkq7q0IKIM4cRRkVnUA+ODs4w4Aykq7oJoqKjh+OCbKnzg8oY00lXku7+PN3P/bqu+594f77X81S3jb6HSJIkDVjNi869O3rwAwAAYHC1HLw4fIAHACA9RnT0HBx9D5EkSRqwmo86/RvRgx8AAACDq3XfeeHjOwAA6ZErljuj7yGSJEkDVvP8dz8dPfgBAAAwuPJv3zN8fAcAIEVK5de2f/DnTdE3EUmSpAGpZc6Cn0UPfgAAAAyuQqFQrW9fEz/AAwCQGnXF7iuibyKSJEkDUus+B/wuevADAABg8OU+90T4+A4AQIqUys9kqtVtou8ikiRJ/V7bzjPeiB77AAAAGHwjPvnN+PEdAIBUGdXZ9c7ou4gkSVK/NnflyuzUtkL42AcAAMDgG33dl8OHdwAA0iVbLN8RfRuRJEnq1xqXXLZX9NAHAABAjHGX3x0+vAMAkDKl8q8znS+OjL6PSJIk9VuNSy4/NXroAwAAIMZbz/9E/PAOAEDqZIvlpdH3EUmSpH5r8vHv/2D00AcAAECMCadfEz66AwCQPtli1zei7yOSJEn9VuMx594TPfQBAAAQY9K7Lwof3QEASKFSZV32/vIO0TcSSZKkfql5wfKvRw99AAAAxGg8+rT40R0AgFTKrS5fHH0jkSRJ6pda5p/4ZPTQBwAAQIyWuQvDB3cAAFKqVPnX6BuJJElSv9R64MIfRw99AAAAxGidOTd+cAcAILXqOn+yS/SdRJIkaavbYda8/xc99AEAABAj//a9wsd2AADSq6G964PRdxJJkqStbofd930teugDAAAgRmHqjuFjOwAA6ZUtda/JVKvbRN9KJEmStqrCtOnhQx8AAABxsnc/HT64AwCQXtsV1+wVfSuRJEna4lref21z9MAHAABArIZPfy98bAcAIL0aOno+En0vkSRJ2uKaT/7rg6MHPgAAAGKN/PjXwsd2AABSrFR+JvpeIkmStMU1nrrizOiBDwAAgFijr/1S/NgOAECqjSw9u2v0zUSSJGmLmnT8BddGD3wAAADEGnvlF8KHdgAA0q1udc9fR99MJEmStqjmRefeHT3wAQAAEGv8+28NH9oBAEi5jsoPo28mkiRJW1TTgmUPRw98AAAAxNr+7I/GD+0AAKTeqC917RR9N5EkSdrsmg4/5QfRAx8AAACxJiy9InxkBwCA3OquD0TfTSRJkja7pkOOLUcPfAAAAMSafPz54SM7AABkS91fj76bSJIkbXYtc476efTABwAAQKzGo08LH9kBAKC+WH41c1dlbPTtRJIkabNq3efA30YPfAAAAMRqmbc4emAHAIBqfbFcrSuWj4++nUiSJG1WbTP2fj164AMAACDWlFnzwwd2AACoL5ardR2Vu6NvJ5IkSZtVYdr08IEPAACAWG277xc+sAMAQH2xXM2Wyi9mqtVto+8nkiRJNTXpnBsmRo97AAAAxMvvtEv4wA4AAH+Su2/tvtE3FEmSpJpqOvPK/aPHPQAAABKgLV/N3vNs+MAOAAD1xXK1rli+OvqGIkmSVFNNp112Uvi4BwAAQCLkbn8ifGAHAID6YrmaLVa+FX1DkSRJqqnJJ1x0SfSwBwAAQDKMuOWx8IEdAADqi+Vqfan8SqbzxZHRdxRJkqQ+m3TChZ+IHvYAAABIhlF/+0j8wA4AAH/UUOw+MvqOIkmS1GdNi84pRQ97AAAAJMPo674cPq4DAMCbVnd9IvqOIkmS1GdN71r+SPSwBwAAQDKMuboUP64DAMCfdJSfjL6jSJIk9VnLEad8L3rYAwAAIBnGXXJH/LgOAAB/Uqqsa1jV3Rh9S5EkSdpkLYe8+7+ihz0AAACSYfyFN8WP6wAA8GdypfIJ0bcUSZKkTdZ6wMIXooc9AAAAkmH7sz8aPqwDAMCfy3WUb4m+pUiSJG2y1tmH/ip62AMAACAZJiy/OnxYBwCA9ZTK/xZ9S5EkSdpkbfvMeTl62AMAACAZJp20In5YBwCA9VTeyHS+ND76niJJkrTR2mbs/Xr0sAcAAEAyNC4+NwHDOgAArK/h3p4F0fcUSZKkjVaYNj182AMAACAZmo5aGj6qAwDAhrpviL6nSJIk9dqE8z41MnrUAwAAIDmaDz4uAaM6AACsr65U+U70TUWSJKnXCmd+ZKfoUQ8AAIDkmDLnqPBRHQAANlAq/z7zULU++q4iSZK0Qc1LrzgoetQDAAAgOVpnzo0f1QEAoBe54tqZ0XcVSZKkDWo67eKTokc9AAAAkqNtxj7hgzoAAPSqVD4/+q4iSZK0QY0nr7goetQDAAAgOfLTd40f1AEAoBd1pXJ79F1FkiRpgyYdf8G10aMeAAAACdJWqNa3d4WP6gAA8JeyxfKz0XcVSZKkDWpc/N7Pho96AAAAJEru80+Hj+oAALCBUmVd09+9sH30bUWSJGm9mhedeW/0oAcAAECy5D77/fhRHQAAevXcYdG3FUmSpPVqetfyR6IHPQAAAJJlxK3fTsCgDgAAG6pb3XVZ9G1FkiRpvVqOPOW70YMeAAAAyTLyxm+ED+oAANCbXLGyOvq2IkmStF5TDjvpP6IHPQAAAJJl1Mf+IXxQBwCA3lX+M/q2IkmStF6t8xZXogc9AAAAkmX0tQ8kYFAHAIDeVN7IdL44Mvq+IkmS9Gatc4/+afSgBwAAQLKMuaYjAYM6AAD0blRH9/7R9xVJkqQ3a509/1fRgx4AAADJMvaKL4SP6QAAsFGru86Lvq9IkiS9WevMeb+JHvQAAABIlnErbo8f0wEAYCNyHd2fjr6vSJIkvVnbHu/8ffSgBwAAQLKMv/Dm8DEdAAA2JluqfDP6viJJkvRmhRn7vBY96AEAAJAsb33v34SP6QAAsDHZUvnn0fcVSZKkN8vvvNu66EEPAACAZJlw1rXhYzoAAGzKyM6fTIi+sUiSJGUymUymUNgxfNADAAAgWSYsvzp8SAcAgE3Jdq49MPrGIkmSlJm7cmU2eswDAAAgeSaefEn4kA4AAJvWdW70nUWSJCkz7qxLW6PHPAAAAJJn8gkXJGBIBwCAjct1lG+JvrNIkiRlGpdctlf0mAcAAEDyNB5zdviQDgAAm5ItVh6OvrNIkiRlJpxy2eHRYx4AAADJ03j0aeFDOgAAbEq2WOmKvrNIkiRlmpauWBI95gEAAJA8zYedGD6kAwDAJpUqr2du+/520bcWSZKU8lpOvvj86DEPAACA5GmZtyh+SAcAgL50rp0WfWuRJEkpr/HEC6+KHvMAAABIninvPDJ+RAcAgL6UKodH31okSVLKm3zchddHj3kAAAAkz5RZh8aP6AAA0Jf27vdG31okSVLKm3z8+26JHvMAAABIntaZc+NHdAAA6FP3jdG3FkmSlPImH3fendFjHgAAAMmzw56zEzCiAwBAHzq6vhR9a5EkSSlv8uKzOqLHPAAAAJKnbff94kd0AADoQ65U/pfoW4skSUp5TYvO/HL0mAcAAEDytO22d/iIDgAAfcmWyj+NvrVIkqSU17Rg2cPRYx4AAADJk99lRviIDgAAfSpV1mUeqtZH31skSVKKa1mw9JvRYx4AAADJk99pl/gRHQAAajCm2FOIvrdIkqQU13LkKd+NHvMAAABInsLUncIHdAAAqEW2c+2B0fcWSZKU4poPW/JE9JgHAABAArUVwgd0AACoRbbUc0r0vUWSJKW4KYee8FT4mAcAAEAi1a96NnxEBwCAvtQVey6NvrdIkqQU13LwsWuihzwAAACSKXv3j8JHdAAA6FOp/PHoe4skSUpxLfOO6Yke8gAAAEim3J1Pxo/oAADQh7r28qroe4skSUpxrQcsfCF6yAMAACCZcrc/ET6iAwBAX7Kl8iPR9xZJkpTiWuYs+Fn0kAcAAEAyNXzm8fARHQAA+tRR+WH0vUWSJKW4ltmH/yJ6yAMAACCZGm79TvyIDgAAfcgWKy9E31skSVKKa519+C+jhzwAAACSacRN/xQ+ogMAQJ9K5dcy1eq20TcXSZKU0naYdehL0UMeAAAAyTTyxm/Ej+gAAFCDTOdL46NvLpIkKaVN2W/er6OHPAAAAJJp1A1fDR/QAQCgFmOKPYXom4skSUpprTPn/TZ6yAMAACCZRl3/9+EDOgAA1GK7Vd17Rt9cJElSSmvbZ87L0UMeAAAAyTTqI18JH9ABAKAWI0tr5kXfXCRJUkrL7zHrleghDwAAgGQadd2D4QM6AADUou7ermOjby6SJCml5Xff99XoIQ8AAIBkGn3tA+EDOgAA1KKho/uM6JuLJElKaYV3zHwtesgDAAAgmUZ/+P7wAR0AAGqRa+/+X9E3F0mSlNLadtvr9eghDwAAgGQa/aH7wgd0AACoRUN71wejby6SJCmlte08443oIQ8AAIBkGr3yi+EDOgAA1Kb7huibiyRJSmn5nXdbFz3kAQAAkExjVt6bgAEdAAD6lmsvfyr65iJJklJafvquHl4AAADQqzHXdIQP6AAAUIu6Uvfno28ukiQppeV32sXDCwAAAHo15upS+IAOAAC1yBUrq6NvLpIkKaXld3ybhxcAAAD0auxVxfABHQAAatJReTD65iJJklJafsedPbwAAACgV2OvWhU/oAMAQA2yxfI/Rt9cJElSSitMmx4+5AEAAJBMY6/8QviADgAAtahr7/529M1FkiSlNA8vAAAA2Jixl98dPqADAEAtcsXy96JvLpIkKaUVCjuGD3kAAAAk07jL7gof0AEAoDZdP4i+uUiSpJRWKEwLH/IAAABIpnGX3ZmAAR0AAGrQUflh9M1FkiSltEKhED7kAQAAkEzjLrkjfkAHAIBadJSfjL65SJKklDY1PzV8yAMAACCZxl58e/yADgAAtShVfhR9c5EkSSltals+fMgDAAAgmcatuC1+QAcAgFqUys9E31wkSVJKix7xAAAASK5xKz4TP6ADAEANssVKV/TNRZIkpbToEQ8AAIDk8vACAIChwsMLSZIUll+NAAAAsDF+NQIAwJDhVyOSJCmqqfmp4UMeAAAAyTT24tvjB3QAAKhFe+Xp6JuLJElKaYVCIXzIAwAAIJnGXXJH/IAOAAC16Cg/GX1zkSRJKa1QmBY+5AEAAJBM4y67M35ABwCAmlSeiL65SJKklFYo7Bg+5AEAAJBM4y67KwEDOgAA9C1X7P5+9M1FkiSltMK06eFDHgAAAMk09vK7wwd0AACoRa5Ufjz65iJJklKahxcAAABszNgrvxA+oAMAQC2yxfJj0TcXSZKU0vI77rwuesgDAAAgmcZetSp8QAcAgFpkS+VHom8ukiQppeV3fJuHFwAAAPRq7FXF8AEdAABqU/ly9M1FkiSltPxOu3h4AQAAQK/GXF1KwIAOAAB9y7V3l6JvLpIkKaXlp+/q4QUAAAC9GnNNR/iADgAAtcgWy3dE31wkSVJKy++8m4cXAAAA9GrMynvDB3QAAKhFrqN8S/TNRZIkpbS2nWe8ET3kAQAAkEyjV34xfEAHAIBa5Ipd10ffXCRJUkpr222v16OHPAAAAJJp9IfuCx/QAQCgFnWre/46+uYiSZJSWuEdM1+LHvIAAABIptEfvj98QAcAgFrkOnouiL65SJKklJbfY99Xo4c8AAAAkmn0tQ+ED+gAAFCLbLG8NPrmIkmSUlp+j1mvRA95AAAAJNOo6x4MH9ABAKAWDff2LIi+uUiSpJTWts+cl6OHPAAAAJJp1Ee+Ej6gAwBALbKrnpsTfXORJEkprXXmvN9GD3kAAAAk06jr/z58QAcAgFqMaO/aLfrmIkmSUtqU/eb9OnrIAwAAIJlG3fDV8AEdAABqkbv/+Zbom4skSUppO8w69KXoIQ8AAIBkGnnjN8IHdAAAqEXmwZ+Pir65SJKklNY6+/BfRg95AAAAJNOIm/4pfEAHAIA+lSq/i763SJKkFNcy+/BfRA95AAAAJFPDrd+JH9EBAKAP2VKlEn1vkSRJKa5lzoKfRQ95AAAAJFPDZx4PH9EBAKAvde2V/xN9b5EkSSmu9YCFL0QPeQAAACRT7vYnwkd0AADoU6n8leh7iyRJSnEt847piR7yAAAASKbcnU/Gj+gAANCHbKn8ueh7iyRJSnEtBx+7JnrIAwAAIJmyd/8ofEQHAIC+NLSXr42+t0iSpBQ35dATnooe8gAAAEim+lXPho/oAADQl1xHzwXR9xZJkpTimg9b8kT0kAcAAEACtRXCB3QAAKhF3eruxdH3FkmSlOJajjzlu+FjHgAAAIlTmLpT+IAOAAC1aLjvub2j7y2SJCnFtSxY+s3oMQ8AAIDkye+0S/iADgAAtRhR+tmk6HuLJElKcU0Llj0cPeYBAACQPPldZoQP6AAA0KdS+feZanWb6HuLJElKcU2Lzvxy9JgHAABA8rTttnf8iA4AAH0plZ+JvrVIkqSUN3nxWR3RYx4AAADJ07b7fvEjOgAA9CFb6v569K1FkiSlvMnHnXdn9JgHAABA8uyw5+zwER0AAPpSV+y6K/rWIkmSUt7k4993S/SYBwAAQPK0zpwbPqIDAEBf6jp6rom+tUiSpJQ3+bgLr48e8wAAAEieKbMODR/RAQCgL9li18nRtxZJkpTyGk+88KroMQ8AAIDkmfLOI8NHdAAA6EvuvrX7Rt9aJElSyms68QPvjR7zAAAASJ6WeYvCR3QAAOjLqC88/9boW4skSUp5TUtXLIke8wAAAEie5sNODB/RAQBgU3LFyi+j7yySJEmZCadcdnj0mAcAAEDyNB59WviQDgAAm5IrlR+PvrNIkiRlGpdctlf0mAcAAEDyNB5zdviQDgAAm5Irdhej7yySJEmZcWdd2ho95gEAAJA8k0+4IHxIBwCATanr6Lkm+s4iSZKUmbtyZTZ6zAMAACB5Jp58SfiQDgAAm1J3b9ex0XcWSZKkTCaTyRQKO4YPegAAACTLhOVXhw/pAACwKXX3VXaOvrFIkiRlMplMJr/zbuuiBz0AAACSZcJZ14YP6QAAsFGl8iuZRx99S/SNRZIkKZPJZDKFGfu8Fj3oAQAAkCxvfe/fxI/pAACwcf8efV+RJEl6s7Y93vn76EEPAACAZBl/4c3RQzoAAGxUrtTVEX1fkSRJerPWmfN+Ez3oAQAAkCzjVtwePqYDAMDG1HWUr4q+r0iSJL1Z6+z5v4oe9AAAAEiWsVd8IXxMBwCAjWlYVX5X9H1FkiTpzVrnLvhp9KAHAABAsoy5piN8TAcAgI0Z19nVGn1fkSRJerPWeYsr0YMeAAAAyTL62gfCx3QAAOhNXbHyi+jbiiRJ0npNOeyk/4ge9AAAAEiWUR/7h/BBHQAAepMtVh6Ovq1IkiStV8uRp3w3etADAAAgWUbe+I3wQR0AAHqTK3ZdH31bkSRJWq+mdy1/JHrQAwAAIFlG3Prt8EEdAAB6k2t/7t3RtxVJkqT1al505r3Rgx4AAADJkrvtB+GDOgAA9GbUqvL06NuKJEnSejUufu9nowc9AAAAkiX3+afDB3UAANhQ5VeZanXb6NuKJEnSek06/oJrowc9AAAAEiQ/tVrf3pWAUR0AANaXba/8Q/RdRZIkaYMaT15xUfioBwAAQGLkp+8aPqgDAEBv6jp6rom+q0iSJG1Q02kXnxQ96gEAAJAcbTP2CR/UAQCgV6vL86PvKpIkSRvUvPSKg6JHPQAAAJKjdebc+EEdAAD+UqmyLlPsGRd9V5EkSdqgwpkf2Sl61AMAACA5psw5Kn5UBwCADXQ9FX1TkSRJ6rVJK24YET3qAQAAkBzNBx+XgFEdAADWV9fRfWf0TUWSJGmjFaZNDx/2AAAASIamo5aGj+oAAPCXRnRUlkXfUyRJkjZa24y9X48e9gAAAEiGxsXnho/qAADwl8bc052PvqdIkiRttLa9D3g5etgDAAAgGSadtCJ8VAcAgD+XLZWfi76lSJIkbbLW2fN/FT3sAQAAkAwTll8dPqwDAMCfqyt23xN9S5EkSdpkrQcu/HH0sAcAAEAybH/2R8OHdQAA+HMNHd1nRN9SJEmSNlnzIcf/Z/SwBwAAQDKMv/Cm8GEdAADW07l2WvQtRZIkaZO1HLX08ehhDwAAgGQYd8kd8cM6AAD8Ubaj6/noO4okSVKfNS1c/tXoYQ8AAIBkGHN1KXxcBwCAP6krdt0VfUeRJEnqs8ZFZ6+KHvYAAABIhtHXfTl8XAcAgD/JtXctib6jSJIk9dmk4y64MXrYAwAAIBlG/e0j4eM6AADUF8vV+lJl3aR71kyMvqNIkiT12eQlF62IHvYAAABIhhG3PBY/sAMAQLFcrS92/SD6hiJJklRTTaddfFL0sAcAAEAy5G5/IgEDOwAAlKu59p6PRt9QJEmSaqrpzCv3jx72AAAASIC2fDV7z7PhAzsAANQXy9WRpTXzom8okiRJNTXpnBsmho97AAAAhMtP3zV8XAcAgPpiuVpfKv8681C1PvqGIkmSVHOFadPDBz4AAABi7bD7rPiBHQAAiuVqfal8X/TtRJIkabMqvGPma9EDHwAAALGm7D8/fmAHAIBiuTqio7Is+nYiSZK0WbXOPOg30QMfAAAAsVoOOTZ8YAcAgPpi5Y0RpZ9Nir6dSJIkbVYtc458MXrgAwAAIFbjgmUJGNkBAEi7ulLlO9F3E0mSpM2u5eBj10QPfAAAAMSafPwF4SM7AADUtXddHn03kSRJ2uyajjz1X6IHPgAAAGJNOO3K8JEdAABG3rPm7dF3E0mSpM2uccHpD0UPfAAAAMTa/pzrw0d2AADSLVusdEXfTCRJkraoyYvP/nz0wAcAAECscR/4VPjQDgBAujV09Hwk+mYiSZK0RU068f0fjh74AAAAiDX2ynvCh3YAANJtu+KavaJvJpIkSVtUy0kXvyd64AMAACDW6GsfCB/aAQBIr2ypUslUq9tE30wkSZK2qOalVxwUPfABAAAQa+THvx4+tgMAkGLt3X8TfS+RJEna4lref21z9MAHAABArIZPfy9+bAcAILVy963dN/peIkmStFUVpk0PH/kAAACIk737R+FjOwAA6ZQtlnv8ZkSSJA358rvv+2r0yAcAAECMwtSdwsd2AADSK1fsuj76TiJJkrTV7bDf/Jeihz4AAABitO22d/jYDgBAeo1o79ot+k4iSZK01U05aOHz0UMfAAAAMVpnzg0f2wEASKuup6JvJJIk5cxhgQAAIABJREFUSf1Sy/wl/x499AEAABCjZe4xCRjcAQBIo7piz6XRNxJJkqR+qXnBsq9FD30AAADEaFywLHxwBwAghUqVdWM7Km3RNxJJkqR+qXnRuXdHD30AAADEmHTiRfGjOwAAqZMtVr4VfR+RJEnqtyYvuWhl9NAHAABAjAmnrwwf3QEASJ+Gju4zou8jkiRJ/VbT0hVLooc+AAAAYoy/4JPhozsAAGlT+U3mwZ+Pir6PSJIk9VtNZ3xoj+ihDwAAgBhjL787AcM7AABpUtfRfWf0bUSSJKlfm7tyZXZqfmr42AcAAMDgG3Xdg+HDOwAA6TKqfc3s6NuIJElSv5ff5R1vRI99AAAADL4RN30rfHgHACBFSuX/ylSr20TfRSRJkvq91n0O+F302AcAAMDgy33uifjxHQCA1Kgr9lwafRORJEkakFrmLPhZ9NgHAADA4CoUCtX69q7w8R0AgNR4tWFVd2P0TUSSJGlAmnLoCU9FD34AAAAMrrbd9o4e3gEASJFcsdwZfQ+RJEkasJoXLP969OAHAADA4Grd9+Dw8R0AgPQYee/zB0XfQyRJkgasycedd2f04AcAAMDgajnk2PDxHQCAlChVfpSpVreJvodIkiQNWJNO/sDl0YMfAAAAg6tx4XviB3gAAFIh19FzQfQtRJIkaUCbtOzSBdGDHwAAAINr4pIV4QM8AABpUPltptgzLvoWIkmSNKA1nXfllOjBDwAAgME14axrEzDCAwAw3GVL5c9F30EkSZIGpfyOb1sXPfoBAAAweMZfdGv4CA8AwPC33eryO6JvIJIkSYNSfo9Zr0SPfgAAAAyesVe1h4/wAAAMb9lS+ZHo+4ckSdKgNWX24f8dPfoBAAAweEZd/7/Dh3gAAIa3hva1R0TfPyRJkgatloOPXRM9+gEAADB4Gj79ePgQDwDAMFYq/1emWt02+v4hSZI0aDUfdeq3o0c/AAAABklboZpd9Wz8GA8AwPC1uufs6NuHJEnSoNa06JxS+PAHAADAoMjvukf8EA8AwLCVK1X+O3NPdUT07UOSJGlQm7jkoqujhz8AAAAGx5RZh4aP8QAADF8N7V0fjL57SJIkDXqTll26IHr4AwAAYHA0H3Zi+BgPAMBwVfntyM6fTIi+e0iSJA16k865YWL08AcAAMDgmHzceQkY5AEAGJZWd30i+uYhSZIUVtvOu62LHv8AAAAYeBNO/+v4QR4AgOHo1ez95R2i7x2SJElhte5z4G+jxz8AAAAG3vgLPxk9yAMAMAzVlbo/H33rkCRJCq31wIU/jh7/AAAAGHhjr2oPH+UBABhuKm/Udf5kl+hbhyRJUmjNR5z0r9HjHwAAAANv1Me+moBhHgCAYaWj/MXoO4ckSVJ4Tcec9UD0+AcAAMDAa/jM9+KHeQAAho9SZd2I0toZ0XcOSZKk8CYfd+H10eMfAAAAAyw/tVq/6tn4cR4AgGEj1165N/rGIUmSlIialq5YEj4AAgAAMKDyb98rfJgHAGA4qbzhaxeSJEl/rLDsqh2jB0AAAAAG1pT95ydgnAcAYLjIFSuro+8bkiRJiSq/487rokdAAAAABk7zYSeGj/MAAAwXlTdGlp7dNfq2IUmSlKja9j7g5egREAAAgIEz+fjzEzDQAwAwHOTau0vRdw1JkqTE1XrAwheiR0AAAAAGzoTTrwkf6AEAGBZere9cOy36riFJkpS4mo48+fvRIyAAAAADZ/z7b40e6AEAGAZy7eVPRd80JEmSElnzorM6o0dAAAAABs7olV8MH+kBABjiSpXf5Tp/0Rx905AkSUpkE0943zXRIyAAAAADZ8RN34of6gEAGNIaOsrXRd8zJEmSEtvkU686MnoEBAAAYOBk7346fKgHAGDoyhUrv8x0vjQ++p4hSZKU2Maff/PoqW2F8CEQAACA/pffZUb4UA8AwNCWW12+OPqWIUmSlPjaZuz9evQYCAAAQP+bMmt++FAPAMDQlS1WypmHqvXRdwxJkqTE1zr70F9Fj4EAAAD0v6YjTgkf6wEAGLrq7u06NvqGIUmSNCRqOfS4Z6LHQAAAAPrfpJM+ED7WAwAwNNW1d387U61uE33DkCRJGhI1L1j+9egxEAAAgP63/TnXhw/2AAAMQaXKuobVXftE3y8kSZKGTBOPO/fW6DEQAACA/jfusjvjR3sAAIacumL3PdG3C0mSpCHVhFMuWR49BgIAAND/Rn3078JHewAAhphS+de5+59vib5dSJIkDanGvOfD+egxEAAAgP7X8JnH44d7AACGlLpiz6XRdwtJkqQhWdvbdnsjehAEAACg/xTyU6v1q54NH+4BABhCSuVnMg9V66NvFpIkSUOyHWYd/P+iR0EAAAD6zw67z4of7gEAGFIa2tceEX2vkCRJGrK1HHzsmuhREAAAgP7TMndh+HAPAMAQUirfF32rkCRJGtI1H33aP0aPggAAAPSfxmPOjB/vAQAYGkqV343tqLRF3yokSZKGdI3HXvDx6FEQAACA/jPhtCvjB3wAAIaEuvauy6PvFJIkSUO+yaddcUL0KAgAAED/GX/hJ8MHfAAAhoCO8pOZ276/XfSdQpIkacg36ZwbJk5ty4cPgwAAAPSPMSvvjR/xAQBIuMobozq694++UUiSJA2b2mbs/Xr0MAgAAED/GHHTPydgyAcAIMlyxfKt0bcJSZKkYVXr7Pm/ih4GAQAA6Af5qdXsPc+ED/kAACRXtlh5IXNXZWz0bUKSJGlY1Tz/3U+Hj4MAAABstbbd9wsf8gEASLa61d2Lo+8SkiRJw67mY97zlehxEAAAgK3XctCi8CEfAIAEK5Xvi75JSJIkDcsmL7loZfQ4CAAAwNabfNx58WM+AACJVFes/GJE6WeTom8SkiRJw7LJp15+YPQ4CAAAwNabcOaHwwd9AACSKVesnBh9j5AkSRq+rXz0LYVp08MHQgAAALbOuEvvCB/0AQBIoFL5K9GnCEmSpGHfDvvM+V30QAgAAMDWGfWxh+JHfQAAEqWuWPnFhM7K5Og7hCRJ0rCvZd4xPdEDIQAAAFsnd/sPw4d9AACSJVvsOjn6BiFJkpSKGo9e9mj0QAgAAMCWy++0S/ioDwBA0nTfH31/kCRJSk2TTrjwE9EjIQAAAFtuyqxDEzDsAwCQFNmOrucznS+Nj74/SJIkpaYJSy85LnokBAAAYMs1HbU0fNwHACAhSpV1De1rj4i+PUiSJKWqtos+MXZqfmr4UAgAAMCWmXjqpfEDPwAACdF9Y/TdQZIkKZXld9/31eihEAAAgC0z/oJPJmDgBwAgXtdTmc5qLvrmIEmSlMpa5x790+ihEAAAgC0zZuW9CRj5AQCIVXl5RGntjOh7gyRJUmprOerkx6OHQgAAALbMiJv+OQFDPwAAsbrOjb41SJIkpbqmE87/XPRQCAAAwOYrFArV7D3PJGDoBwAgTKl8X/SdQZIkKfU1Lrn81OixEAAAgM23w56z44d+AADCZEvl5zKdL42PvjNIkiSlvtFn3Dh+an5q+GAIAADA5mk+7MTwsR8AgCCl8mujOrr3j74xSJIk6Y/l99j31ejBEAAAgM0zccmK+MEfAIAQde09l0TfFiRJkvRntR6w8IXowRAAAIDNM/7CT4YP/gAABCiVv5KpVreJvi1IkiTpz2o6+tR/ih4MAQAA2DyjP3R//OgPAMCgyhbLz2buqoyNvitIkiTpL5p0/Ps+GT0YAgAAsHkaPv298OEfAIDBVHl5u1Xde0bfFCRJktRLTUtWLIweDAEAAKhdfse3VevbuxIw/gMAMFhGrK4sj74nSJIkaSPtddZtDYXCtPDhEAAAgNpM2e+Q8OEfAIDBk23v+mz0LUGSJEl91LbPnJejh0MAAABq03j08vDxHwCAwVFXrHw381C1PvqOIEmSpD5qmXdsd/RwCAAAQG0mLL86/AAAAMDAy7ZXfpLr/EVz9A1BkiRJNdR89Gn/GD0cAgAAUJtxK24LPwIAADDQKi/n7lu7b/T9QJIkSTU2+fj3fzB6OAQAAKA2oz72UAIOAQAADKSGju4zom8HkiRJ2owmLb963+jhEAAAgNrk7vi38EMAAAADaHXXJ6LvBpIkSdqC8m/bbV30eAgAAMCm5XfZPf4QAADAgMkWKw9nHn30LdE3A0mSJG1BrbMP/2X0gAgAAMCmTTnw6PBjAAAAA6S98nTmrsrY6HuBJEmStrCmw0/5QfSACAAAwKY1Lj43/iAAAEC/y5bKP69/4Lmp0bcCSZIkbUVNi8/9XPSACAAAwKZtf9Z14UcBAAD6W+XlUZ3Pz4q+E0iSJGkrm7T04ndHD4gAAABs2pirSwk4DAAA0G9KlXW59q4l0TcCSZIk9UMTzvvUyEJhWviICAAAwMaNuOWx+OMAAAD9pm5112XR9wFJkiT1Y217H/By9IgIAABA7wrTdq7Wt68JPw4AANA/ssWuz0TfBSRJktTPtRx87JroIREAAIDeTdl/fvhxAACAftJReTDTWf2r6LuAJEmS+rnmhWc8GD0kAgAA0LvGY86MPxAAALDVssXKtzJ3VbLRNwFJkiQNQJOXXLQiekgEAACgd9ufdV34kQAAgK3V9VSm2DMu+h4gSZKkAaqw7Kodo4dEAAAAejf2qvYEHAoAANhS2WK5Z3zHj6dE3wIkSZI0wBXeMfO16DERAACADY24+bHwYwEAAFsmWyq/WPelF94WfQOQJEnSINR64MIfR4+JAAAArK8wbedqffua8IMBAABboFT+v9ut6t4zev+XJEnSINX0ruWPRA+KAAAArG/KrPnxBwMAALZA5bfZVc/Nid7+JUmSNIg1nnjhVdGDIgAAAOtrPOY9CTgaAACwWUrlVxra1x4RvftLkiRpkGs6/WPTowdFAAAA1jfhrGvjDwcAANSuVH6tbnX34ujNX5IkSUG1zdj79ehREQAAgP8x9qr2+OMBAAC1KVVez7V3LYne+iVJkhRY6wELX4geFQEAAPgfI25+LP6AAABA30qV17OlnlOid35JkiQF17xg2deiR0UAAAD+oDB1p2r9qmfjjwgAAPSh8ka2WF4avfFLkiQpAU084X3XRA+LAAAA/MGUWYcm4IgAAMAmlSrr6lf3nB2970uSJCkhTTpn5dujh0UAAAD+oPGY98QfEgAA2ITKGw0d3WdEb/uSJElKWG0z9n49elwEAACgrbr9Odcn4JgAAECvSpXXs6We06I3fUmSJCWw1rlH/yR6XAQAAKCtOmblvfEHBQAAevNqXbF8fPSeL0mSpITWvGDZ16LHRQAAANqqudt+EH1QAADgL5XKr9R1rF0UveVLkiQpwU06+QOXR4+LAAAAaZffZff4owIAAOsrVX5XX6ocHr3jS5IkKeGNXXLlDlPb8uEjIwAAQJo1H3xc/GEBAID/USr/ekSx65DoDV+SJElDpPzu+70SPTICAACk2cRTLok/LgAAUK0vlqvZUvmn29334z2it3tJkiQNoZoOObYcPTICAACk2bgVt4UfGAAAKFezxUr3qC917RS920uSJGmI1fius++PHhkBAADSbOTHvxZ+ZAAASL32ytO5+59vid7sJUmSNARrOeni90SPjAAAAGlVKEyrZu95Jv7QAACQYnWlyncynS+Nj97rJUmSNEQbf/7NowuFHcPHRgAAgDRq3ffg8EMDAECqlboeyNxWbYje6iVJkjTEa5150G+ix0YAAIA0ajzmzPhjAwBASuXau2/OdFb/KnqjlyRJ0jCoZf6JT0aPjQAAAGm0/bnXhx8cAABSp1RZ11DsWhm9zUuSJGkY1XTseXdEj40AAABpNHrlF+MPDwAAaVIq/z5XqpwUvctLkiRpmDVp2aULosdGAACANMrd9oP44wMAQEpkS+UXR7WvmR29yUuSJGk4Vq1um5/+9nXRgyMAAECa5N++Z/jxAQAgNTrKT465pzsfPcdLkiRpGNcy56ifR4+OAAAAadJ8yPHxBwgAgBTIFisPZzq7xkTv8JIkSRrmNR91+jeiR0cAAIA0mXjqpeFHCACA4S5brNyWefTRt0Rv8JIkSUpBE5asuDR6dAQAAEiTcZd+PvwQAQAwbJXKrzQUe86K3t4lSZKUorY/64rGqfmp4cMjAABAWoy4+bH4gwQAwDCULZVfHLmqMjd6d5ckSVIKa9tnzsvRwyMAAEAa5KfvWq1v7wo/SgAADDe5Yvf3x3V2tUbv7ZIkSUppUw494ano8REAACANWuYtCj9KAAAMN9li5bZMZ7UuemuXJElSimtafO7nosdHAACANJh46qXhhwkAgOGj8nJDe/nM6I1dkiRJyjSdftn86PERAAAgDcZddmcCDhQAAENftljuyd23dt/ofV2SJEn6Q9Xqtm07z3gjeoAEAAAY7kbc/Fj4kQIAYMgrlb+SKfaMi57WJUmSpPVqnXv0T6MHSAAAgOEsP33Xan17V/yhAgBgqCqVX2sodq3MVKvbRm/qkiRJ0gY1LVj2cPQICQAAMJy1HLQo/lgBADBEZYvltdlVz82J3tIlSZKkjdZy8sXnR4+QAAAAw9nEUy4JP1gAAAxNlS+P+sLzb43e0SVJkqRNNv78m0cXpu4UPkQCAAAMV+MuvSMBRwsAgKGk8nKu2HNhplrdJnpDlyRJkmpqh/3mvxQ9RAIAAAxXI2765wQcLwAAhoj2ytPbrS6/I3o3lyRJkjarliNO+270EAkAADAc5XfapVrfvib+gAEAkHSlyrpce/lTmc5qLnozlyRJkja7yUsuWhk9RgIAAAxHLXOPiT9iAAAkXLZU/mnD/2fvzr/rru87j8vyosU2S8xmgw22w5aEEIc1iaQrL5CSlDQpcZuVYZqpkyalTJoptE3PjNPT06FperANNhhLXnUl+9rWvVeyhbd7vxJ2Iem4J23TJVOwZAdIShZCFpZAzZ0fMrQpZfEi6X3v1eNxzvOfeL2/5/vZcuTG6K0cAABO2IzPfnHm3NlzwwdJSZIkSaq2zvr47eGHDEmSpLKua3Dr1A2PT4veyQEA4KRdcFXquehBUpIkSZKqrdNvXxN/zJAkSSrHOgefbkwfWRK9jQMAwLA57/qP/V30IClJkiRJ1dbkFQfijxqSJEllVn3H0AMN2x8/L3oXBwCAYXX24t9eFj1ISpIkSVI1NfvSy0t1HYfCDxuSJEnl09APG9NHltSUSuOiN3EAABh2Mz71x/OiR0lJkiRJqqbOfe9HyuC4IUmSVDb1NmS+f270Fg4AACPq/Hdc82L0MClJkiRJ1dKZn/pS9HFDkiQpvPr04JP16cGbo/dvAAAYFectvOnR6GFSkiRJkqqlU7+UCT90SJIkhdU59NKkzsNrp254fFr09g0AAKPmnF/99NroYVKSJEmSqqILZpca2v42/uAhSZIUUefgP0/uOrIwevMGAIBRd84n/yAVPk5KkiRJUhU066pU/MFDkiRptOscerYxfWhpTV+pLnrvBgCAMHMuv/rF6IFSkiRJkiq96R/6TPzhQ5IkaRSr7xzaVZf91tzojRsAAMKdt/CmR6MHSkmSJEmq9N5027Lw44ckSdJoVJ8efKw+PXhz9LYNAABl45xf/fTa6IFSkiRJkiq9qX++O/wIIkmSNKK9/KzIuqH66F0bAADKysyP3dESPVBKkiRJUiU3582XlOo3PhJ/DJEkSRq5ek/rGroges8GAICyNefyq1+MHiolSZIkqVKbmbox+hAiSZI0Qh366ymbhlqjN2wAACh75y286dHooVKSJEmSKrWzPnlHGRxFJEmShq/6rkOPN6aPLKnJlMZH79cAAFARzvnwZ9ujh0pJkiRJqtRO+4P14ccRSZKk4Wnopw3pQ3fWZL47JXq3BgCAijL9lt9rjh4qJUmSJKlSa1z1V2VwJJEkSTqpXmjoOrxqcueTZ0fv1QAAULHmXH71i9FjpSRJkiRVWhdcdmX0kUSSJOkkGjrakB7MnJJ+7MLojRoAACrezOsWPxI9WEqSJElSpTXj/TeXwcFEkiTpBOoayk/uOHRZ9DYNAABVY/pNv7U6erCUJEmSpEpr2ue+HH80kSRJOo7q04P7GjYPXRu9SQMAQNWZ8ak/nhc9WEqSJElSpTX1zx4IP55IkiQdS/XpwQNTOh9dEL1FAwBAVZs9710/ix4tJUmSJKlSmn3hpaX6TY+EH1EkSZJer/r04IEpWx6fH70/AwDAmHDeL330b6OHS0mSJEmqlM5b8KHwQ4okSdKr1jn0Ul3n4Z2eFAEAgFE2/aO3/e/o4VKSJEmSKqUzf+N/xh9VJEmS/kNDR+vSg72N2751ZfTeDAAAY9KMz35x5tzZc8PHS0mSJEmqhE79UqYMjiuSJEmDpbrOwecnpQ9vPCX92IXROzMAAIx5M69d8JPo8VKSJEmSyr7Zc0sN7d+IP7JIkqQxXX3n4L9M6jryv2b0fvuM6G0ZAAD4/859/yf/MnzAlCRJkqQyb+a7rgs/tEiSpDFc19DfNKaPLKnJlBqiN2UAAOAVzvr4578QPWBKkiRJUrl39kc/H39wkSRJY6yho/Xpwb2NW47cWFMqjYvekgEAgNdw+pI7T53z5ovDR0xJkiRJKudO//32Mji+SJKksdCk9ND36zYPfqUu89ibo/djAADgGM18zy99P3rElCRJkqRyrnHVX4UfYSRJUnXXkD58sDF9ZEnN6lJj9GYMAAAcp+k3/kZf9IgpSZIkSeXaBZdfE36IkSRJVVrn4NMNHYMrJ3ccuix6JwYAAE7CjP/yex+NHjIlSZIkqVyb/sH/Fn+UkSRJVdTQ0fr04IHG9JElNRtLk6P3YQAAYDiUSrWz3zrvaPSYKUmSJEnl2JtuW1YGBxpJklTp1acHH2tIH7qzLvutudGTMAAAMAJmLLppMHrMlCRJkqRybMpfFMIPNZIkqVIb+mF9erBtypbH59eUSrXROzAAADCCpn/4t++NHjMlSZIkqdyafcllpbqOR8vgaCNJkiqnoefq0oO99enBm2tWlxqjt18AAGCUnP2ZpW+be8Hs8FFTkiRJksqpGb/08TI43kiSpLKvc/D5us7DO+vTgzfX9P3glOi9FwAACDLrqpZno0dNSZIkSSqnzvjsl+MPOZIkqUz7hT9bZA6dGr3vAgAAZeC8933i4ehRU5IkSZLKqalf2VMGRx1JklQ2dQ4+3ZAe2jwpPbi4ZmNpcvSmCwAAlJnpH/nC56NHTUmSJEkql2Zf+vZSXcej8QceSZIUWn166FB9emh145YjN9ZkSpOid1wAAKCMnfnZlVNmX3jJS9HjpiRJkiSVQzNu+ET4oUeSJEU09Fx9enBvQ9ehz5+SfuzC6N0WAACoMLNaf/lfosdNSZIkSSqHpn3uy2Vw+JEkSaPRy3+1mJQeXFyT/97U6J0WAACoYOd+aEkmetyUJEmSpHJo6lf2hB+BJEnSCNU5+H/r04Nt9elDH5/c+eTZ0bssAABQRc76xO3XRY+bkiRJkhTd7EsuK9V1PBp/FJIkSSdf59BLdZ2H/76hY3BlQ8e3fr1x0+Hp0TssAABQ5WbPu+aF6JFTkiRJkiKbccMn4o9EkiTpRPtRfefgnsauw3/cmDn0/qkbHp8WvbkCAABjzLnv/djXo0dOSZIkSYps2ue+HH0wkiRJx9TQcw2dg/+nPj20urHr8KemdD7y1ppSqTZ6YwUAAMa46R/5/B9Gj5ySJEmSFNnUr+wpg0OSJEn6xRrSQ0/Vdw0ldZsP3VWfHrx5csehy2qSZEL0ngoAAPCfvOnWFafMvvCSl6KHTkmSJEmKaPalby/VdTwaflySJGnM1jn4dEP68MFJ6cMbJ6WP3NG45ciNp6aPzKkplcZFb6cAAADHbFbrL38neuyUJEmSpIhm3PCJ+IOTJElVXkN66KmG9OGDDenBTEP60J2N6SNLJqcPLfKBBQAAUDVm/OpnOqLHTkmSJEmKaNrnvhx+jJIkqaLrHHy6Lj30zfrOof5J6cMbGzsG/6Ru85FPN6YPv29K5yNvren7wSnR+ycAAMCIO+/mpVfPvWB2+OApSZIkSaPd1K/siT9YSZIU3wsN6aGn6juHnqjrHPqnSemhh+s7hh5o6DzU1dB1eFVj15E/ndRx5PbJm4f+a2Pm0PsbNx+66k1dT8ysWTdUH71tAgAAlI3zPvY/fuecX/vvt0uSJEnSWKqu85+vm5w+tEiSpGprSuejCyamH73ilZ2aPjLn1PSROVMy3zmzJn3k9OhdEgAAAAAAAAAAAAAAAAAAAAAAAAAAAAAAAAAAAAAAAAAAAAAAAAAAAAAAAAAAAAAAAAAAAAAAAAAAAAAAAAAAAAAAAAAAAAAAAAAAAAAAAAAAAAAAAAAAAAAAAAAAAAAAAAAAAAAAAAAAAAAAAAAAAAAAAAAAAAAAAAAAAAAAAAAAAAAAAAAAAAAAAAAAAAAAAAAAAAAAAAAAAAAAAAAAAAAAAAAAAAAAAAAAAAAAAAAAAAAAAAAAAAAAAAAAAAAAAAAAAAAAAAAAAAAAAAAAAAAAAAAAAAAAAAAAAAAAAAAAAAAAAAAAAAAAAAAAAAAAAAAAAAAAAAAAAAAAAAAAAAAAAAAAAAAAAAAAAAAAAAAAAAAAAAAAAAAAAAAAAAAAAAAAAAAAAAAAAAAAAAAAAAAAAAAAAAAAAAAAAAAAAAAAAAAAAAAAAAAAAAAAAAAAAAAAAAAAAAAAAAAAAAAAAAAAAAAAAAAAAAAAAAAAAAAAAAAAAAAAAAAAAAAAAAAAAAAAAAAAAAAAAAAAAAAAAAAAAAAAAAAAAAAAAAAAAAAAAAAAAAAAAAAAAAAAAAAAAAAAAAAAAAAAAAAAAAAAAAAAAAAAAAAAAAAAAAAAAAAAAAAAAAAAAAAAAAAAAAAAAAAAAAAAAAAAAAAAAAAAAAAAAAAAAAAAAAAAAAAAAAAAAAAAAAAAAAAAAAAAAAAAAAAAAAAAAAAAAAAAAAAAAAAAAAAAAAAAAAAAAAB+4jDkAAAgAElEQVQAAAAAAAAAAAAAAAAAAAAAAAAAAAAAAAAAAAAAAAAAAAAAAAAAAAAAAAAAAAAAAAAAAAAAAAAAAAAAAAAAAAAAAAAAAAAAAAAAAAAAAAAAAAAAAAAAAAAAAAAAAAAAAAAAAAAAAAAAAAAAAAAAAAAAAAAAAAAAAAAAAAAAAAAAAAAAAAAAAAAAAAAAAAAAAAAAAAAAAAAAAAAAAAAAAAAAAAAAAAAAAAAAAAAAAAAAAAAAAAAAAAAAAAAAAAAAAAAAAAAAAAAAAAAAAAAAAAAAAAAAAAAAAAAAAAAAAAAAAAAAAAAAAAAAAAAAAAAAAAAAAAAAAAAAAAAAAAAAAAAAAAAAAAAAAAAAAAAAAAAAAAAAAAAAAAAAAAAAAAAAAAAAAAAAAAAAAAAAAAAAAAAAAAAAAAAAAAAAAAAAAAAAAAAAAAAAAAAAAAAAAAAAAAAAAAAAAAAAAAAAAAAAAAAAAAAAAAAAAAAAAAAAAAAAAAAAAAAAAAAAAAAAAAAAAAAAAAAAAAAAAAAAAAAAAAAAAAAAAAAAAAAAAAAAAAAAAAAAAAAAAAAAAAAAAAAAAAAAAAAAAAAAAAAAAAAAAAAAAAAAAAAAAAAAAAAAAAAAAAAAAAAAAAAAAAAAAAAAAAAAAAAAAAAAAAAAAAAAAAAAAAAAAAAAAAAAAAAAAAAAAAAAAAAAAAAAAAAAAAAAAAAAAAAAAAAAAAAAAAAAAAAAAAAAAAAAAAAAAAAAAAAAAAAAAAAAAAAAAAAAAAAAAAAAAAAAAAAAAAAAAAAAAAAAAAAAAAAAAAAAAAAAAAAAAAAAAAAAAAAAAAAAAAAAAAAAAAAAAAAAAAAAAAAAAAAAAAAAAAAAAAAAAAAAAAAAAAAAAAAAAAAAAAAAAAAAAAAAAAAAAAAAAAAAAAAAAAAAAAAAAAAAAAAAAAAAAAAAAAAAAAAAAAAAAAAAAAAAAAAAAAAAAAAAAAAAAAAAgMrXuP6ePzpzc3ufJEmSpMpu3q4td7YM9NwhSZI0dst+YX4xu+SVtQ70/nqqkF/cXMzetCjJLVpQ2NnSVMxe0fJw96VN+3fMuTFJzvhgkj0teqsFAAAq1IS2ZV8at+aukiRJkqTKbdLaFaWmQneppZiTJEnSyZTkXmhJ8k+1FPNPpJL8P7Uk+a+2JLldLUluc0uSu6+1kLuzZaDnjtaBnk+3DvT+enNxx3ubirlr5h944OIbk+SM6L0XAACIkMlMGd+2/CfRQ7EkSZKkE2/W1nXxRwpJkiT9/MONYv6JVJL7eqq/py9VzG+YX8x/eX6x93dbk/wnFhR6r295aOdl70uSc2pKpdroeRgAABgmtWuWfzF6KJYkSZJ0YtWuuat09e5t8UcGSZIkHV9J7oWWJPft1mLuYKo/n0n19yxvGei5I1XIL16UdDc17d8xx8cZAABQKTb++eTx7ct+HD0YS5IkSTr+zui8P/5oIEmSpJEpyT3bWsx/syXJ7Wst5Na0DPTc0ZrkPnxdkn3H4iQzJXpaBgAAfkHt+uW3Rw/GkiRJko6/y3Z2xR8EJEmSFFKqmP+XliR/oCXJrm8t9P5RqtDz0YX9PVe9d1fmTdGbMwAAjD3r1tVPaFvxdPRoLEmSJOnYa9xwT/jYL0mSpDItyT/VkuQPpIo9q1sGem9blOQWNe3fMSd6igYAgKpWu3bZ56OHY0mSJEnH3tzsxvhBX5IkSRVVKsl/rznJJS0D+XtbB3KfW1DoW3D97t1nRe/TAABQHTKZSRPbl/0gejyWJEmS9MZNaF9Weve+7vDhXpIkSVXSy3/I6O9Z3jKQu/k9B3a9taZUqo2erQEAoOLUrV3x29EDsiRJkqQ37twtbfHjvCRJkqq8/I9e/hhjfjG7ZFHS3XRrX19d9I4NAADlbfXqiRPXrfh+9IgsSZIk6fW74oFMGQzxkiRJGmulkvxzqST/cGshuyxV6Pno9QO7Z0fP2gAAUHYmrl++JHpEliRJkvTand5xb/jgLkmSJL1cqph7ujnJ720tZJcu6O+98b27Mm+K3rkBACBWJjO+fu2K70aPyZIkSZJevbf0pMPHdUmSJOl1OppKct9oSXraWgeyn7o+2X1J9OwNAACjbuK6FbdEj8mSJEmS/nN1a1eUmgvhQ7okSZJ0vD3ZWujpbRnouaOpmL2iplSqjd7BAQBgZJVKtfXr7v5O9KgsSZIk6T92wfb10YO5JEmSdPIl+R83J/m9LQM9dyxKupsWZzKTomdxAAAYdvUbVn0ielSWJEmS9O/VrllWunbvtviRXJIkSRrukvyPU/09ffOL2dtbHuqb548YAABUh1JpXMPae56IHpclSZIk/byzu+6PH8QlSZKkUSiV5L+X6s9n5hezS95X2Hl+9FwOAAAnbNKG+z4cPS5LkiRJ+nnz+raED+CSJElSTD2HUsWe1alCfvEHk+xp0ds5AAAcl4Z19xyOHpglSZKksd6pG1eVwdgtSZIklUFJ7oVUf+7B1kLvH/3/Z0nGRe/oAADwuia33bMwemSWJEmSxnqX9qTjB25JkiSpPHuyuZjbmCrkF3/gwIGp0Zs6AAC8qikb7/5G9NAsSZIkjdXq160oNRfCx2xJkiSp7Esl+eeak/zeloHe2xbt3TsrelsHAIB/M7Ht3nm1ZTA4S5IkSWOxOd0bwgdsSZIkqRJLJbmvtxZ6/qSpmLvGkyQAAISbunHl/ujBWZIkSRprjW9bVnr3vu7wwVqSJEmq+JKe7zYXcxsX9PfeeMXB1ROjN3cAAMailStnjm9bdjR6eJYkSZLGUuduaY8fqCVJkqQqK1XMff/ljzAWZzKToud3AADGkKkbV+aih2dJkiRpLHXlrkz4KC1JkiRVc6kk98NUfz7TMpC7+ZO7d0+O3uEBAKh2q1adPqF92YvR47MkSZI0FjojvTp8hJYkSZLGVEn+x62FfFdzceev3NrXVxc9yQMAUKWmbrh3TfQALUmSJI2F3r6zK354liRJksZoqST3w5efI1maJBOit3kAAKpJJtMwad3dz0WP0JIkSVI1N2XDPeFDsyRJkqSXyz+R6u9ZvijpbqoplcZFz/QAAFSBqR2r/jR6iJYkSZKquYvym8pgXJYkSZL0ylJJbqi1kLuzaX/3RdFbPQAAlSxJJtSvv/tH0WO0JEmSVI1NWru81FToDh+UJUmSJL1hX2sdyH2uaf+O06NnewAAKtBpXat/J3qQliRJkqqx87evjx6PJUmSJB1HqWL++dZCT2+qkF+8NEkmRO/3AABUilJp3OQNq56MHqUlSZKkamp827LStXu3hQ/HkiRJkk60/BOthdydLV/tvTB6xgcAoAKc2nn/TdHDtCRJklRNnbNlTRkMxZIkSZKGo9Zi7uD8YnbJBw4cmBq95wMAUMZO2bjycPQ4LUmSJFVLV+zKhI/DkiRJkoa3VJL7SXOxZ21TMXdN9KYPAEAZOi1zfyp6nJYkSZKqoWnp1eGDsCRJkqSRLv8PLQO9ty1OMlOi930AAMrIaR33/V30SC1JkiRVem/fubkMRmBJkiRJo1KS/3Gq2LN6/v7ey6M3fgAAysCMTasuHr92+UvRQ7UkSZJUqU3ZsDJ++JUkSZIUUmsxd3B+Mbtk8UOZhui9HwCAQGekV++LHqslSZKkSu3SnnT42CtJkiQpuKTnu839vX/WtH/HnOjNHwCAABf19p4xad09/xo9WEuSJEmVVsP6u0vNhWz8yCtJkiSpXDranOT3LujvvbGmVBoXvf8DADCKztrcvjF6tJYkSZIqrTfnNkaPupIkSZLKtFSS+3pzkr3l1r6+uugbAAAAo2BxJjOpccOq56KHa0mSJKlSmti+vPSeff52IUmSJOkNe7K1kLvzhmT7edG3AAAARtjMre1fiB6vJUmSpErpgm3rosdbSZIkSZXVz1L9+cyipO/a6HsAAAAj6JRN930vesCWJEmSyr3xbctL1+7dFj3aSpIkSarY8gMtAzs+UFMqjYu+CwAAMMzO3d72/tq2ZeFDtiRJklTOnbulrQyGWkmSJEmVXirJP9Iy0HvbrX19ddH3AQAAhtG0jvv/MXrIliRJksq5q3ZtDR9oJUmSJFVPqST/ndZCdumivZlTo28EAAAMg1mZjrdMWHf3S9FjtiRJklSOndl1f/goK0mSJKlay/8o1d+zvPng9unRtwIAAE7S2V1te6IHbUmSJKkce0ff5jIYYyVJkiRVc6li/vnmYm5jy1d7L4y+FwAAcIJm7Vh1ev3au1+MHrUlSZKkcuq0jnvDB1hJkiRJY6gk90KqmN/QtL/7oui7AQAAJ+DcTNuq6GFbkiRJKqfetqMzfniVJEmSNBY7murPZ65Pdl8SfTsAAOB4lEq1p2y656fR47YkSZJUDk3ZcE/00CpJkiRJR1P9+UzLw92XRp8QAAA4RjO3rf+t6IFbkiRJKocu6emIHlglSZIk6eWOthZ6eq9Lsu+IviMAAHAM3pRe9UT0yC1JkiRF1rDu7lJzIRs9rEqSJEnSKzvaWujpbXmob170LQEAgNcxa2vHwvFty8LHbkmSJCmqC3ObosdUSZIkSXq9jqb685nrk92XRN8UAAB4DedsWfNX0WO3JEmSFFHduhWlpkJ39IgqSZIkScfS0VR/PtO0f8ec6LsCAACvcPGePTPq1919NHr0liRJkka7udkN0cOpJEmSJB1vP0sVe1a/L0nOib4vAADwC2Ztae+IHr0lSZKk0WxS+/LSe/ZlowdTSZIkSTqhUsX8T1sLuTs/mGRPi74xAABQU1OzOJOZdFrHqmejx29JkiRptLpg+/rwoVSSJEmShqEftAz03LH4oUxD9K0BAGDMu6h30+/Wti0LH8AlSZKkkW5C2/LSu/d2R4+jkiRJkjRspZLcY6lC728uTZIJ0fcGAIAx7eyuNd+OHsElSZKkkW7W1nXho6gkSZIkjUStxfw3U4X84uh7AwDAmHXZju2LJq1dET6ES5IkSSPV+LblpWv3bA8fQyVJkiRpREty+65Lsu+IvjsAAIxJs7rXH4wewyVJkqSR6twt7fEDqCRJkiSNTkdTxWz7dXv2zIi+PQAAjCmL9mZmTd2w8mj0IC5JkiQNd7Vtd5Wu3r0teviUJEmSpFEu/0xrIXfnBw4cmBp9gwAAGDMuynfeHz2KS5IkScPd9M1tZTB4SpIkSVJU+SfmF7NLFmcy46PvEAAAVe+WJKk/s2v1T6KHcUmSJGk4u3L31jIYOiVJkiQptlSS+/r8Yncq+hYBAFD1LtvZdcuE9mXh47gkSZI0HJ3VeX/4uClJkiRJ5VRroaf3fYWd50ffIwAAqtq5mfZvRg/kkiRJ0nD0zgcy4aOmJEmSJJVf+WdaC9mlt/b11UXfJAAAqlLLQPeljRtXvhQ9kkuSJEkn05n+diFJkiRJr1sqyT/SXNzx/ui7BABAVZqzfdO26KFckiRJOpnmPbAlfMSUJEmSpEqoOcnvvT7ZfUn0bQIAoKpccfBg47TOe5+NHsslSZKkE+mMztXhw6UkSZIkVVg/S/X3LF+cZKZE3ygAAKrGJTs3/+74tmXho7kkSZJ0vL3T3y4kSZIk6QTLH2kZ2PGB6BsFAEDVmLG1/XD0aC5JkiQdT2d03l8GQ6UkSZIkVXathZ7eRXv3zoq+UwAAVLwrCtvf2bBh5UvR47kkSZJ0rM3ztwtJkiRJGqbyz7QM9NyxOJMZH32vAACoaG/uSeeix3NJkiTpWDqjc3UZDJOSJEmSVF2lktzXm4q5a6LvFQAAFatp/47Tz+xa/Xz0iC5JkiS9Uf52IUmSJEkj1tFUsWf1DX19p0TfLQAAKtJluzpvn9C+LHxIlyRJkl6rM9L+diFJkiRJI16S+3bLQO7m6LsFAEDlKZVqZ3Wv+1b0mC5JkiS9Vv52IUmSJEmjWJLNXbdnz4zo8wUAQEVp3pW5esqGleGDuiRJkvTKpnXeFz86SpIkSdIYK1XMPT2/mF1SUyqNi75hAABUjEt3du2IHtUlSZKkV+ZvF5IkSZIUWJLbtWjv3lnRNwwAgIpw/e7dZ03f0v6z6GFdkiRJerlp6dXxI6MkSZIkjfnyP2oZ6L2tplSqjb5lAACUvSv3bP3DSWtXhA/skiRJ0rg1/nYhSZIkSeVUqj/3YMtXey+MvmUAAJS1pUky4c3ZTY9FD+ySJEnStPR94aOiJEmSJOmV5Z9pGei5w98vAABex8L+HfNP3bQqfGiXJEnS2M7fLiRJkiSpfEv15x68odA3N/qmAQBQti7v6+ypbYsf2yVJkjQ2O7Pz/vARUZIkSZL0BiW5Z1sGem+rKZXGRd81AADKzsKvdU87L7Pu2ejBXZIkSWOzK3Zl4gdESZIkSdKxleR2Xbdnz4zo2wYAQNm5Zvf2z9avuzt8dJckSdLY6uyuNfGjoSRJkiTp+Ep6vrugP/eh6NsGAEB5KZXGXZjb9I3o4V2SJEljp9o1d5Wu9LcLSZIkSarYUv35TNP+HadHnzgAAMpG0/7ui6al7zsaPcBLkiRpbDR9i79dSJIkSVKl11zMHV64b8f86BsHAEDZmLd76/IJ7cvDR3hJkiRVd7VrlpWu3r0tfCCUJEmSJA1DSf6lVH/P8lv7+uqi7xwAAOFuSZL6OdvXfzd6iJckSVJ1d+6W9vhhUJIkSZI0rLUWe/6m5eHuS6NvHQAA4VL78vNP3bQqfIyXJElSdTa+bXnpmj3+diFJkiRJVVmSe7ZloPe26FsHAEC4yx/Y0lO7Zln4KC9JkqTqa+bWtfFDoCRJkiRpREsVs9ub9u84PfreAQAQZuHXuqfN2r72mehRXpIkSdXVhPZlpXft3R4+AEqSJEmSRqP8kUVJd1P0zQMAIMy1SfdnJq+/J3yclyRJUvV0/rZ1ZTD8SZIkSZJGq1SSf7G1kF26OJMZH333AAAYfaXSuLfv2PzX0eO8JEmSqqOJ7ctL797bHT76SZIkSZJGv1R/vrjgod5zo08fAACjbuG+3FtmbF5zNHqklyRJUuU3u3t9+NAnSZIkSQos6fluc3HH+6NvHwAAo+6afd1frl+3InyolyRJUuU2ae2K0nv2+duFJEmSJI35kvxLqf6e5VccXD0x+v4BADBqbu3rq7ukt+Px6LFekiRJldvc7Mb4cU+SJEmSVEblB5oPbp8efQMBABg1i5Js65mdq8MHe0mSJFVeDevuLjUVsmUw6kmSJEmSyqwnFyW5RdE3EACAUXPV3q3bJ65dHj7cS5IkqbK6uKcjesiTJEmSJJVpqWLuX1sL2aU1pVJt9B0EAGDE3ZgkZ1yY7fhJ9HAvSZKkymnKxpXhI54kSZIkqfxrLfT0Nu3fcXr0LQQAYMTNL+5YcnrHfeEDviRJkiqjt+3oCh/vJEmSJEmVUv5IUzF3TfQtBABgZJVK4965K3NwfJsnRyRJkvT6nbbp3jIY7SRJkiRJlVQqyT+XKvT+ZvQ5BABgRM0/8MDF53dveDF6yJckSVJ5N69vS/hgJ0mSJEmqzJqLuY23JEl99E0EAGDEpPb1/OEpG1eFj/mSJEkqz87suj98pJMkSZIkVXx/2Xxw+/TomwgAwIhYmiQTrti95RueHJEkSdIrq11zV+nKXVujxzlJkiRJUlWUf2JR0ndt9F0EAGBEtDzcfen53Rs9OSJJkqT/0IwtbWUwzEmSJEmSqqVUMf9860D2U9F3EQCAEdFayC715IgkSZJebnz7stI1e7aHj3KSJEmSpOorVexZfcXB1ROjbyMAAMNqaZJMeOeuzD94ckSSJEnj1txVOn/buvAhTpIkSZJUvTUnPfs/sC9/dvR9BABgWDU/uOud529bdzR65JckSVJsE9cuL717b3f4CCdJkiRJqu6ai7nDLQ/1zYu+jwAADKvmPdk/9eSIJEnS2G5O94bw8U2SJEmSNDZKJfnnWpMdH4m+jwAADJtb+/rq3rkr80jtmmXhg78kSZJGv4Z1d5eaCtnw4U2SJEmSNIZK8i+1FrJLo28kAADDpvnB3qvP377ekyOSJEljsIvzHfGDmyRJkiRpTNZc7Fm7OJOZFH0nAQAYFs37sn/hyRFJkqSx1ZQNK8NHNkmSJEnSGC/JH7jhwcyZ0XcSAICTdmtfX90VfZsPeXJEkiRp7HTZzq74gU2SJEmSNOZrLuYebXm4+9LoWwkAwElb2N/9Lk+OSJIkjY2mpVeHD2uSJEmSJP1bSf6pBYW+BdG3EgCAk9a8d/vdUzeuDD8ESJIkaeSqXXNX6cpdmfhRTZIkSZKkXyiV5F9sHch9LvpWAgBwUj65e/fkeQ9sfcyTI5IkSdXbuVvawsc0SZIkSZJeq+b+3j+rKZXGRd9MAABO2KIk23p+94aXog8CkiRJGv4mtC8vXbt3W/iIJkmSJEnS65bktt2SJPXRNxMAgBPWVMyu9uSIJElS9TW7e338eCZJkiRJ0jGU6s8XF+3NnBp9MwEAOCGf3L178pW7tj02vm15+HFAkiRJw1P9uhWlpkI2fDiTJEmSJOlYay3m//76gd0zo+8mAAAnZH4xu3BObqMnRyRJkqqkS/Id4YOZJEmSJEnHX/6J+ft7L4++mwAAnJBUIbfu9E33hR8JJEmSdHJN3biqDIYySZIkSZJOrFSS++H8Yncq+m4CAHDcPphkT7t2b/cTE9d6ckSSJKmSu7xvc/hIJkmSJEnSyZQq5p9vGej5tejbCQDAcVtQ6FtwcW/akyOSJEkV2pmd94ePY5IkSZIkDVNHU/25z0ffTgAAjlvLQM9dZ3XeH340kCRJ0vFV23ZX6ardW6NHMUmSJEmShrXWQu7OmlJpXPT9BADgmN3a11d37d7uf6xbe3f48UCSJEnH3nlb14aPYZIkSZIkjUhJ7r6aUqk2+oYCAHDMWh7qm/f2nZtfjD4eSJIk6dia2L689K593fFDmCRJkiRJI1RrIZe9ta+vLvqGAgBwzFoGcl+csaUt/IggSZKkN25O94bwAUySJEmSpBEvye1bnGSmRN9QAACOTalU21TcfqBx/T3hhwRJkiS9do3r7yk1FbLx45ckSZIkSaPT1xZ+rXta9BkFAOCYNO3fMWdeX+aZ2jI4KEiSJOnVe9uOzujBS5IkSZKkUa21mP/76/bsmRF9RwEAOCbzi9kl529bF35QkCRJ0n9uWnp1+NglSZIkSVJISX7whkLf3Og7CgDAGyuVxrUUcztP2bgq/LAgSZKkf6+27a7SVbu3xg9dkiRJkiQFlUpyj12f7L4k+pQCAPCGbngwc+aVu7d+f3z7svADgyRJkn7ezK1rwwcuSZIkSZLKoCdbHtp5WfQtBQDgDTUXd/7K3OzG8AODJEmS7ipNWrui9O593dHDliRJkiRJ5VGSf+q6ZOeV0bcUAIA3lNrXveH0jnvDDw2SJEljvYtym+JHLUmSJEmSyqhUkvth84O9V0ffUgAAXtcNfX2nXLO7+7FJ7cvDjw2SJEljtakbV4WPWZIkSZIklWOpYu7pRUnftdH3FACA17Uo6W56647Oo9EHB0mSpLHa5X2bw4csSZIkSZLKtVQx/9NFSbY1+p4CAPC6Wgu9X5mxpT386CBJkjTWOrvr/vABS5IkSZKkci9VzP90QaFvQfQ9BQDgNd3a11fXXMj+3ZQNK8OPD5IkSWOl8e3LSlfv2RY+XkmSJEmSVBnln1m4L39d9E0FAOA1XZdk33HlnswL49uXhR8hJEmSxkIXbF9fBqOVJEmSJEkVVJJ7trm4473RNxUAgNfUWsj9/tzsxvAjhCRJUrVXv+7uUlMhGz9YSZIkSZJUYaWK+ecX9PfcEH1TAQB4VYszmfHNSc/+MzpXhx8jJEmSqrm39KTDhypJkiRJkiq3/DPzi92p6LsKAMCrun5g98x3F7JP1a1dEX6QkCRJqsZO67i3DAYqSZIkSZIqvfwzCwo7W6LvKgAAr6q5mL3p8p2bS7VlcJiQJEmqpmrblpWu2JUpg3FKkqT/x969P9d93/edB8Gr7qSouy1ZsiRLsiTrQlESSZzzBUiJtpy1ojRh0m3HjrZJnU07qnfb3boznelyupus2u2uCFK8QARBEgBvB8Q53+8BCBIkzvcLSFo52TC3zXTUxM3FcZ3p+tIm8V2W+Nkf3LhRrAsvAD8H5zyeM49/4vX+zPcLANAKsr/oytPHYt9VJEmS3rFSnr10y8hA9OMEAEAruXlkoAlGKQAAAGgdSZ7++Ybp+urYdxVJkqQf69miWFZupP/vlUM7oh8oAABawdKBbWHtVDX6IAUAAACtJinS/9yV11bFvq1IkiT9WOtePXHvYyePfndRf2/0QwUAwHx3d304+hAFAAAArSopsq9tLMbvi31bkSRJ+rGSRvbLd2VD0Q8VAADz2fLhHdEHKAAAAGh1SZ79x43F5N2xbyuSJEk/VrlID19/aHf0gwUAwHzU2b8lrDpRiT4+AQAAQDtI8uw/fKKo3Rr7tiJJkvS2nilqy9edqv3pJfu2RT9cAADMNzePDEQfnQAAAKCdJEX2xU8WxQ2x7yuSJElv64mi2vXAxOG3Ovu3RD9eAADMF0v3bg3rGtXogxMAAAC0n+x3u14ZXxH7viJJkvS2yjNj/8tto/ujHzAAAOaLu+vDTTA0AQAAQHtKptPXPj05eVns+4okSdJ/LYTOcl5rXHPwpehHDACAZrd8eEf0gQkAAADaXTJdO/ncxMTS2CcWSZKkH7X+tbEPrJmqff2SfduiHzMAAJpVZ/+WsOpEJfq4BAAAAKQhyWujmyqVhbFvLJIkST+qPDP2yYeOV8507t4S/agBANCMbh4ZiD4qAQAAAH/NTLYz9n1FkiTpbZWL7MXbqvujHzUAAJrN0oFtYe1UNf6gBAAAALxNd6P+v8W+r0iSJP2oZ4tiWXde/51rDr4U/bgBANBM7q4fiD4kAQAAAO+sJ0//UewbiyRJ0o8q/9rYnWumRr+1bO+26AcOAIBmsGJ4Z/QBCQAAAHhPb3UX6VUMfDEAACAASURBVM/EvrFIkiT9qFIx9osPHT8SOndviX7oAACIqXP3lvDIiZHY4xEAAADwPpIi++6GqfFS7BuLJEnSj0ry9MCHq/ujHzsAAGL60NG90YcjAAAA4Owkefrn5deO3R/7xiJJktTR0dHR8cSpylXlIvujaw6+FP3gAQAQw6X7XgxdjWr00QgAAAA4e0mRfnnjzOTNse8skiRJHR0dHR1defrY2qna9y/Zty364QMA4GK7f/xQ9LEIAAAAOHdJkf72UxMTV8a+s0iSJHV0dHR0JI3acw8dPxI6d2+JfvwAALhYrj+8O/pIBAAAAJy/ZDrLn5uYWBr7ziJJktTR0dHR0d2oDX24tj/6AQQA4GJYvKc3PH5yNPpABAAAAFyYUl4/2BHCgth3FkmSpI6nX331iqTIXr/mYF/0QwgAwFy7Mx2KPgwBAAAAs6Mnr/1q7DuLJElSR0dHR0fPq8fvWjdV/eYl+7ZFP4YAAMyVK4d2RB+EAAAAgNnVk9c+G/vOIkmS1NHR0dGRNOr/7UMTR0Ln7i3RjyIAALOts/+FsOrESPQxCAAAAJhlRfrGhqnxnth3FkmSpI6Ojo6OcpHuuqM2GP0wAgAw224Z2Rt/CAIAAADmRJKnX984M3lz7DuLJElSx3MTE0uTIvuNGw/3Rz+OAADMlkv2bgvrGtXoIxAAAAAwZ359U6WyJPadRZIkqaOjo6PjiVOnblk3Vf3GFYM7oh9JAABmw31jh2KPPwAAAMDc+cYnitqtse8rkiRJb6uUj//Eo6dGzyzZ0xv9UAIAcCGuO/RS7PEHAAAAmDtvbSiyT8S+q0iSJL1j5Zn6/37/sUOhswkOJgAA52NRf2947OTR2AMQAAAAMEe6G7XNse8pkiRJ714Incl07eStR/dGP5oAAJyPO2qD0QcgAAAAYK7UGpsqlYWxzymSJEnv2dNT2fXlPPvKygO7oh9OAADOxVVDO5tgAAIAAADmQlKkX37q5cq1se8okiRJZ9WG6eqatY3qG5fs3Rb9gAIAcDY6d28Jj0yORB+BAAAAgDlQpG88UVS7Yt9PJEmSzqmevPZPV52ohIX9W6IfUgAA3s+to/vij0AAAADA3JgZ+1zsu4kkSdK5F8KCJK+N3p0NRz+kAAC8l8sHt4dSXos/AgEAAACzr6ilHSEsiH02kSRJOq+eKWrLS3n672860h/9oAIA8G4enDgSfwQCAAAAZl3SqP3BE6cqV8W+l0iSJF1QG6ayj5Xy9DtXDe2IflQBAPibPlgZiD4CAQAAALMvKbLvPlnUHox9J5EkSZqVevLaZx87eTQsGeiNflwBAPgrl+zdFtZN+cUIAAAAtKJSUXs29n1EkiRpVutupHs/duxQ6GyCIwsAwILdL4T7jx2KPgIBAAAAc6BId8W+i0iSJM16zxbFsnKe/vpt1X3RjywAADcc7o8/AgEAAACzLplOX3tuYmJp7LuIJEnSnFQ6PXpjOc++ct2hl6IfWwCA9rVkYGtYc6oafQgCAAAAZlmR/tmTJ0/eFPseIkmSNKdtmK6uKU2l37ticHv0owsA0J7uqR+IPwQBAAAAsyopsu+WXh57NPYdRJIk6aJUKmrPPnryaFgy0Bv98AIAtJeVB/qiD0EAAADA7Oueqf1C7PuHJEnSRa1cpLseOHYkdO7eEv0AAwC0h0X9veGxk6PRhyAAAABgdiXT9d7Ydw9JkqSL3qrTfYvLeTZze20w+hEGAGgPd6ZD0YcgAAAAYHaVivormyqVJbHvHpIkSVF6eiq7PinSL994ZHf0QwwA0NqWD++MPgQBAAAAsy370sbJyeti3zskSZKiVnr5xMOlPP3O8qGd0Q8yAEBrWti/JayeHGmCMQgAAACYLUmRfffJ4tgjse8ckiRJTVHSqH368VOjYdnerdEPMwBA67mjNhh9DAIAAABmV6moPRv7viFJktRUJdP13oePHwkL+7dEP84AAK3jqiG/GAEAAICWM5P+H7HvGpIkSU3X5qJYlExn+d3ZcPQDDQDQGvxiBAAAAFpQkU5tLopFse8akiRJTdmGX6+uLOf1P7x5ZCD6oQYAmP/8YgQAAABaS1Kkf/yporgm9j1DkiSpqet5ZeyBUp59e+WBXdGPNQDA/OUXIwAAANBiivQ7pZdPPBz7jiFJkjQvKuW1n147VTtz6b4Xox9tAID5xy9GAAAAoMUU2ZnumbGfi32/kCRJmlf15Nm/fuREJSze0xv9eAMAzC9+MQIAAACtpTSd/krsu4UkSdL8K4TOZLo+ce/YwejHGwBg/lgx7BcjAAAA0GImN1UqC2OfLSRJkuZlXa+Mr0iK7Iu3ju6LfsQBAJqfX4wAAABAa0katT94pqgtj32vkCRJmteVv1C9p5xnf3HDod3RjzkAQHPzixEAAABoHUmRfnPdqyfujX2nkCRJaom6i9ozpUb61orhndEPOgBAc/KLEQAAAGgdSZ6+uX567FOx7xOSJEktVU9e+6drpqrh0n0vRj/sAADNZVF/r1+MAAAAQAtJptP/MfZdQpIkqSUrF+muRyZHwuI9vdEPPABA87gj9YsRAAAAaBlFvT/2PUKSJKllW3W6b3G5SKfuP3YodPZviX7kAQDi84sRAAAAaCFFfXpTpbIk9j1CkiSppfv4icrV5Tz9/Y+kQ9EPPQBAXIv39IbHTh6NPwoBAAAAFywpste7XhlfEfsOIUmS1BZ1vTL+4aTIvvaBI3uiH3wAgHjuzoajj0IAAADAhUvy9OvlXxu7M/b9QZIkqa3aMDVeKuXp91ce3BX96AMAXHzXHOyLPgoBAAAAs6BI39gwNd4T++4gSZLUliWN9L9bN1UNlw9uj378AQAuniUDW8OaU6PxhyEAAADggiWNsb8f+94gSZLU1vXk2b9+dPJoWDKwNfoRCAC4OO4bOxR9FAIAAAAuXGk6/ZXYdwZJkiSF0NndSGsPThwJC/u3RD8EAQBz66Yj/dFHIQAAAODCJXlttCOEzthnBkmSJHV0dGx6rXJJMl37f+6pH4h+DAIA5s4l+7aFdVPV6MMQAAAAcKFqv/npycnLYt8XJEmS9Nd68uTJm5Ii/fKHju6NfhQCAObGA8cON8EwBAAAAFyY7CtPFaMfjH1XkCRJ0jtUfm3ioSTPvnXdoZeiH4YAgNl1y8hAEwxDAAAAwIVIivSbPa+MPRD7niBJkqT3qDyT/a2uRu2tq4Z2Rj8QAQCz47J9L4auhl+MAAAAwDz3Vik/9pOx7wiSJEk6i7ob6T9bM1UNl+57MfqhCAC4MJ27t4RVJyqxhyEAAADgAvXkY/849v1AkiRJ51CS1/senTwalg5sjX4wAgDO322j+6MPQwAAAMCFSfLanth3A0mSJJ1jq073LS7ntcZDx4+ERf290Y9GAMC5u2poRyg1wTgEAAAAXIhsZlOlsiT23UCSJEnn0cdPVK4u5+nv3zt2IHQ2wfEIADh7i/b0htWTR5tgHAIAAADOV3ee/buuV8ZXxL4XSJIk6QLqeqX6kSRPv35nOhT9gAQAnL27sqHo4xAAAABwAYr6V59qTNwe+04gSZKkWaj08tijSZ596+aRgehHJADg/V17qC/+OAQAAACcvyL9zobp6prY9wFJkiTNYuunxz6V5Omb1x/eHf2YBAC8u2V7t4a1U9X4AxEAAABwXpI8fbO7qD0T+y4gSZKkOah7pv5LpbwWVgztin5UAgDe2ccmDkUfiAAAAIDz1z2T/sPY9wBJkiTNYd2N9Pm1U9Vw2f7t0Q9LAMDbfejo3ujjEAAAAHD+evKxfxn7DiBJkqS5LoQF5aK279HJo2HpwNboByYA4IeuGNweSnkt+kAEAAAAnKciG+4IYUHsM4AkSZIuQqtO9y0u5+nkw8crYVF/b/RDEwC0u0X9vWH15Ej8gQgAAAA4T7XGpkplSez9X5IkSRexp1999Yqkkf3WfeMHQ2f/lugHJwBoZx/JhppgIAIAAADOT+03NxWVy2Pv/pIkSYpQ6fTojaU8/ZM706HoBycAaFfXHnypCQYiAAAA4LwU2R99sihuiL33S5IkKWLlL1TvKefpN245OhD98AQA7WbZ3q1h7alq/JEIAAAAOGdJnn59YzF5d+ydX5IkSU3QhqnxUlJk373xyO7oBygAaCcfO3Yo+kgEAAAAnIci/U5Pnq2Lve9LkiSpiSrPjD9dztM3rz34UvQjFAC0g1tG9sYfiQAAAIDz8VZ5JvtbsXd9SZIkNWFJI/vlrqlaWD60M/oxCgBa2RWD20Mpr8UeiQAAAIDz0JOn/yj2ni9JkqQmrrsx9m/WnqqGy/e/GP0oBQCtaNGeLWH15Ej0kQgAAAA4dz157Vdj7/iSJElq9kJYUMrTwcdPjYZL9m2LfpwCgFZzVzYcfSQCAAAAzl0prx/sCGFB7BlfkiRJ86BNlcqSZLp2cvXkSFg6sDX6gQoAWsV1h16KPhIBAAAA5y6ZzvLnJiaWxt7vJUmSNI96amLiyu68/jsPHT8SFu3ZEv1QBQDz3aX7XgzrGtXoQxEAAABwbpIi/b1nitry2Lu9JEmS5mFPnjx5UznPvvSxY4fCwn6PLwDgfC3s3xIePn4k+lAEAAAAnJukSL+8cWby5th7vSRJkuZxG4vx+8p5+o17suHoRysAmK9urw1GH4oAAACAc5Pk6dc3TKUfjb3TS5IkqQUqvTz2aFKk37yjNhj9cAUA883KA33RhyIAAADgXGXfXt8YXxt7n5ckSVILtb4xsT7Js+/dMrI3+gELAOaLZXu3hjVT1SYYiwAAAIBz8P1SPv7x2Lu8JEmSWrDuovZMUmQ/uPFIf/RDFgA0u87+LeGBY0diD0UAAADAOUjy9M3uIv2Z2Hu8JEmSWrjyTPqZUpGdufZQX/SDFgA0s1tH90UfiwAAAIBzUGRnumdqvxB7h5ckSVIblDRqz3VN1cLyoZ3Rj1oA0IyWD+8MpdhjEQAAAHBuZmr/JPb+LkmSpDaqNJ3+ytqparhicHv04xYANJMlA73h8VOj8cciAAAA4Kx1N2qbY+/ukiRJasPKM/UX1pwaDZftezH6kQsAmsW94wejj0UAAADA2Uum0+2x93ZJkiS1ayEs6G6kex87eTRcsndb9EMXAMR2y8hA9LEIAAAAOAdFNtwRQmfsuV2SJElt3KrTfYvLRTb+6MmjYenA1ugHLwCI5cqhHaHUaILBCAAAADgryXRa31wUi2Lv7JIkSVLHptcql5TzbGb15IjHFwC0pcUDveHRyaPRByMAAADg7JSKtHi2KJbF3tclSZKkH/XUxMSV3Xl6etWJSlg80Bv9AAYAF9O9YweiD0YAAADA2enO67/zTFFbHntXlyRJkn6sp16uXJsU2esPHj8SFu3ZEv0IBgAXwy0je6MPRgAAAMDZSRq1P3h6Krs+9p4uSZIkvWtPFaMfLOXpn9w/figs7PflCwBa2/LhnaHUqEUfjQAAAICzUKR/+snGsQ/F3tElSZKk9638a2N3Jnn2H+8dOxA6+335AoDWtHRga3j81Gj80QgAAAB4f0X9qxuLybtj7+eSJEnSWdfzytgDSZH+57uz4eiHMQCYC/cfOxR/NAIAAADOQvYXpZdPPBx7N5ckSZLOufWN8bVJnn3rI9lQ9OMYAMymW0f3NcFoBAAAALyvIv3O+saxcuy9XJIkSTrv1k+PfapcpG/cXhuMfiQDgNmw8sCu+KMRAAAA8P6K9I3yzNgnY+/kkiRJ0gVXyms/nRTZDz50dG/0YxkAXIhle7eFNadG4w9HAAAAwHtK8vTN7mL8b8fexyVJkqRZqzxT/9kkT9+8eWQg+tEMAM5HZ/8L4cGJw9GHIwAAAOC9JXn6ZvfM2N+NvYtLkiRJs173TPbz5Tx968Yj/dGPZwBwrm6v7o8+HAEAAADvo8jOlIqxX4y9h0uSJElzVnlm/O+V8/Stmzy+AGAeuebgS/GHIwAAAOC9FdmZ7pn6L8XewSVJkqQ5L2mM/f1ykZ25/vBL0Q9pAPB+Lt33Ylg7VY0/HgEAAADvrsjO9OT1fxB7/5YkSZIuWuWZsc+V8jRcd3h39IMaALybhXu2hFUnKvHHIwAAAOA9labH/ufYu7ckSZJ00evJx/6xxxcANLO70uHowxEAAADw3rob6T+LvXdLkiRJ0erJ039RaqThmoN90Y9rAPDXfeDInujDEQAAAPA+ZtJ/HnvnliRJkqJXnqn9r6W85vEFAE3jqqGdoZTX4o9HAAAAwLvqbtQ2x963JUmSpKapJ6/9aimvhZUHd0U/tgHQ3pYObA2PnTwafTwCAAAA3l1puvZ/xt61JUmSpKarND32r0p5Law84PEFAHF09m8JD0wcjj4eAQAAAO9hpv5C7D1bkiRJas5CWFAushe7pmphxbDHFwBcfLfXBuOPRwAAAMC7KuXp1o4QFsSesyVJkqTmLYQFpXxsR1ejFlYMeXwBwMVz/aGXoo9HAAAAwLtL8toejy4kSZKksymEBUle7+tq1MLy4Z3RD3EAtL7LB7eHdY1q9AEJAAAAeGfdjXRvRwidsedrSZIkaf4UQmd3oza0rlENy4c8vgBg7ize0xtWT45EH5AAAACAd5bk9SObKpWFsWdrSZIkad61qVJZWMrrB9dOVcOVgzuiH+YAaE0fHTsQfUACAAAA3kWRHt1cFIti79WSJEnSvG1TpbKwXKSH157y+AKA2Xfr0b3xByQAAADgHSXTWXXV6b7FsXdqSZIkad63qVJZkkxn1bVT1XCVxxcAzJKrh3eFUhOMSAAAAMCPS/La6KZKZUnsfVqSJElqmTZVKgu7G7WhdY1qWDG0K/qxDoD57ZJ928KaqWr0EQkAAAD4cUleP+JLF5IkSdIc9MPfjtT2rZuqhRXDO6Mf7QCYnxb194ZVJyrRRyQAAADgx3U3skObi2JR7D1akiRJat1C6Czl9YGuRi1cPezLFwCcu3vqB6KPSAAAAMA7KLLhTZXKwtgztCRJktT6hbCgXGQvdjVq4ZoDfdEPeADMHx86ujf+iAQAAAD8mFKevdQRQmfs+VmSJElqn0JYkEzXe0t5LVxz8KXohzwAmt/KA32h1ARDEgAAAPA3zGQ7O0JYEHt2liRJktqvEBb05PX/q5TXwrUeXwDwHi7d92JYO1WNPyQBAAAAb9PdGPs3Hl1IkiRJkevJx/5lqVEL1x/aHf2wB0DzWdTfGx45MRJ9SAIAAADerjQ99q9i78uSJEmS/kvlmfrnS3karj/syxcAvN194wejD0kAAADA23U30udj78qSJEmS/kZ/9fjihsP90Y98ADSHD1f3Rx+SAAAAgLfrydN/EXtPliRJkvQudTfq/1M5T8ONHl8AtL3rD++OPiQBAAAAf8NM+s9j78iSJEmS3qekkf1yucjOfKCyJ/rRD4A4rhjcEboatfhjEgAAAPBDRXamVNT+h9j7sSRJkqSzrHum/kvlPH3rA0d8+QKg3Swd2BoeO3k0/qAEAAAA/FCRnUkatedi78aSJEmSzrFSMfaL5Tx96+aRgehHQAAujs7+F8IDxw7HH5QAAACAHyqyMz15/R/E3oslSZIknWflmbG/kxTZD24b3R/9GAjA3LszHYo/KAEAAAChnKchydM3u2eyn4+9E0uSJEm6wLpnxn4uKbIf3F71+AKglX3gSH/0QQkAAAD4oSRP30watU/H3oclSZIkzVLlmfrPlov0jbuz4dDZvyX6cRCA2bV8aGco5bXooxIAAACQhnKRvlHKaz8dexeWJEmSNMuV8vGfKBfpd+4dOxAWenwB0DIu2bstrDk1Gn9UAgAAAEI5z769frr+VOw9WJIkSdIctb5xrJzk6Z/fN34oLNzj8QXAfLeovzc8cqLSBKMSAAAAkOTpnz9RVLti78CSJEmS5rjSyyceLhf1rz4wcTgs6u+NfjQE4Px09m8J948fij4qAQAAAGko5+n/V35t4qHY+68kSZKki9TGYvLucpH+6cPHK2HJwNbox0MAzt0dtcHYgxIAAACQp6GcZ1/qeqX6kdi7ryRJkqSL3BOnTt3SnWf/7pETI2HZ3m3RD4gAnL0PVPY0wagEAAAAJEX2+saZyZtj772SJEmSIrVxcvK6pJH91qOTR8Ol+zy+AJgPrh7eFUqNWvRhCQAAANpdd56efurlyrWxd15JkiRJkdtUVC4vF+nU4ydHw+X7X4x+UATg3V22f3tYO1WNPiwBAAAA2cxTExNXxt53JUmSJDVJz01MLO1upLU1p0bDFYPbox8WAfhxi/f0htUnRppgWAIAAID21t2oj216rXJJ7F1XkiRJUpO1uSgWlYvavrVT1XDV0M7oB0YA/qvO/hfCx44dij4sAQAAQLtL8vTAqtN9i2PvuZIkSZKatRAWlGfqL6xrVMPVB3ZFPzQC8EMfSYejD0sAAADQ7pLpdHtHCJ2xZ1xJkiRJ86DyTP3zpUYt3Hi4P/qxEaDd3TwyEH1YAgAAgHbX3Uifj73bSpIkSZpnJY3ac+UiO3PzyED0oyNAu1p5oC+UmmBcAgAAgLZVZGfKM7V/EnuvlSRJkjRPSxq1TydF9oPbqvuiHx8B2s3l+7eHdVPV+AMTAAAAtKkkT9/snqn9QuydVpIkSdI8r5Qf+8mkyL57VzYcOvvjHyIB2sHSga3hsZNHow9MAAAA0Ma+312kPxN7n5UkSZLUIm2YGu8pF9lf3jd2KCzs3xL9IAnQyhbt6Q0PH6/EHpcAAACgbSV59q31jbGNsXdZSZIkSS3Whun66qTIvvbQxJGwZGBr9MMkQCvq3P1CuHfsYPSBCQAAANpWkf2nDdPVNbH3WEmSJEkt2sZi/L5ykf7pI5MjYdnebdEPlACt5o7aYPyBCQAAANpW9qUNU+lHY++wkiRJklq80unRG5Mi/e1HTx4Nl+3fHv1ICdAqbhkZaIKBCQAAANpTUqS/91Qx+sHY+6skSZKkNunpV1+9olykJ9ZOVcNVQzuiHysB5rtrD70UfWACAACA9lVrPHGqclXs3VWSJElSm7WpUlmS5OmBdY1qWHlgV/SjJcB8deXgjtDVqDXByAQAAADtp7tRG9pUqSyJvbdKkiRJatdCWNDdqG0uNWrhxsP90Y+XAPPNJfu2hTWnRqOPTAAAANCOkul6b0cInbFnVkmSJEnqSBq158p5+tbNIwPRj5gA88XiPb1h9eRI9JEJAAAA2k2Sp292z6T/MPauKkmSJElva/10+lPlIv3Oh6v7ox8zAZrdwv4t4YGJw9GHJgAAAGg3SZ59rzxT/9nYe6okSZIkvWNPFBOPJ0X2tY/WD4aFe7ZEP2wCNKu76sPRhyYAAABoQ994oqh2xd5RJUmSJOk9K3+hek8pT//kweNHwpKB3ujHTYBmc+vovtgjEwAAALSdpEj/eGMxeXfs/VSSJEmSzqrS6dEbk0b2W4+cqIRL9m2LfuQEaBY3HtkdfWgCAACA9pP97vrXxj4QezeVJEmSpHNqU1G5vFRkx9dMVcNVQzuiHzsBYlt5YFcoNWpNMDYBAABA+ygV2amnJiaujL2XSpIkSdJ5tbkoFpWLev+6RjVcc6Av+tETIJYrB3eEdVMeXQAAAMDFlOTZ/lWn+xbH3kklSZIk6cIKYUF3o7a5lKfhA5U90Y+fABfbpfu2hcdPjUYfmwAAAKCdJNP13o4QFsSeRyVJkiRp1uqeqf1CUmQ/uL26P/oRFOBiWTLQG1afGIk+NgEAAEC7SPL0zVIx9t/H3kMlSZIkaU4q5cd+spxn3/5o/WBYuGdL9IMowFxa2L8lPDhxOPrgBAAAAO0j+/b66bFPxd5BJUmSJGlO68rTx8pF/asPHj8Slgz0Rj+MAsyFzv4Xwn3jB5tgcAIAAID2kOTp13vybF3s/VOSJEmSLko9rx6/K2nU/mD15Ei4dP+L0Q+kALPtI9lQ9MEJAAAA2kVSZK9/vMjuiL17SpIkSdJF7eMnKlcn01m+ZqoarhraEf1ICjBbbh3dF31wAgAAgLZRpFNdr4yviL13SpIkSVKUNhfFovJMtnNdoxquOdgX/VgKcKFuOtIff3ACAACAdlHU+1ed7lsce+eUJEmSpOiVZ8Y+V8rTtz5Y2RP9aApwvq452BdKsQcnAAAAaAdFdqa7Udsce9eUJEmSpKZq/XT6U0mefevOdCh09sc/oAKciyuHdoSuRi3+8AQAAAAtLsmzb5XyYz8Ze8+UJEmSpKas55WxB8p59qX7xw+FxXt6ox9SAc7GpfteDGtOVaMPTwAAAND6sq905bVVsXdMSZIkSWrqnjx58qakyH7jkROVcOm+bdEPqgDvZdnebeHRk0ebYHgCAACA1pYU6W9vnJm8OfZ+KUmSJEnzok9PTl7W3Uhra6eqYcXQruiHVYB3snhPb1h1ohJ9eAIAAICWV6RHV50+fWns3VKSJEmS5lchLOhu1DaXGrXwgSP90Q+sAH/dwv4t4cGJw/GHJwAAAGhxyXS9tyOEzthzpSRJkiTN28oz43+vnKffv726P/qhFWDB7hdCZ/8L4b7xQ9GHJwAAAGhx3++eyX4+9j4pSZIkSS1RT56tKxf1r943figs6u+NfnQF2ts99QOxhycAAABodd94oqh1x94lJUmSJKmleqoxcXtSZK+vOlEJy/Zui354BdrT7dX9sYcnAAAAaGlJkX2x59Xjd8XeIyVJkiSpJet6ZXxFOa81Hj85Gq4c3BH9AAu0l1tH90UfnwAAAKClFenUM0VteewdUpIkSZJaus1FsSiZTrd3Narh+sO7ox9igfbwgcqe+OMTAAAAtLDuRrp71em+xbH3R0mSJElqm8ozY58r5+lbt43uj36QBVrb9Yd2Rx+fAAAAoGUV2ZnuRm1z7L1RkiRJktqyUn7sJ5Mi/ebd2XBY2N8b/TgLtJ6VB3aFUqMJRigAAABoRUX2l+unxz4Ve2eUJEmSpLau59XjdyVF9vrDx4+EZXu3RT/SAq3jqqGdYV2jGn+EAgAAgBaU3SOvfgAAIABJREFUFNkX17164t7Y+6IkSZIkqaOj46mJiSuT6bS+5lQ1rBjeGf1YC8x/l+9/Mayd8ugCAAAA5kKpyI53vTK+IvauKEmSJEn6a22qVBZ2N9LnS0V65sYj/dGPtsD8dcnebeHxk6PRRygAAABoOUV2pruRPr+pUlkYe0+UJEmSJL1L3TNjP5fk2bfuqA2Gzv74B1xgflk6sDWsnjwaf4gCAACAFpPk2beSRrYp9n4oSZIkSTqLel4Ze6BcZH/0wLEjYenA1uiHXGB+WDKwNTxyohJ9iAIAAICWU6R/2pXXVsXeDSVJkiRJ59CGX6+uLBXZqcdOjoYrB3dEP+gCzW1Rf2946PiR+EMUAAAAtJqiPr1xcvK62HuhJEmSJOk82lSpLOxupM93NarhhsO7ox92gea0sH9LeGDicPwhCgAAAFpMktf7Vp3uWxx7J5QkSZIkXWDlmbG/U86zb99e3R86m+DICzSPzt1bwn3jh6IPUQAAANBKkiL7bqmoPRt7F5QkSZIkzWLl1yYeKuXpn9w/figsHuiNfuwF4uvc/UL4aP1A9DEKAAAAWklSpF/eMF1fHXsPlCRJkiTNQZ8qimuS6SxfPTkSLtu/PfrRF4jr7vpw9DEKAAAAWkmpqL/y9FR2fewdUJIkSZI0h20uikXdjfT5dVPVcO3Bl6IffoE47kyHoo9RAAAA0EqSvN636nTf4tj7nyRJkiTpIpU0ap9Oiuy7t43uj34ABi6uD1f3Rx+jAAAAoFUkefa97pnaL8Te+yRJkiRJEdowXV1TLtI/++jYgbCovzf6MRiYex8a3Rd9kAIAAIDWkX3liWLi8dg7nyRJkiQpYk+ePHlTUmRfWH1iJFw+uD36URiYOx8cGWiCQQoAAABaxv9dOj16Y+x9T5IkSZLUBD03MbE0yWt7uqZq4cbD/dGPw8Dsu/Fwf+wxCgAAAFpHke7aVKksib3rSZIkSZKarPJM+plynn379tpg6OyPfygGZsf1h1+KP0gBAABAC0iK7LulYuwXY+94kiRJkqQm7smi9mBSZF986PiRcMnebdEPxsCFufZQXyg1atGHKQAAAJjvkkbtDzZMZR+Lvd9JkiRJkuZBT01MXNndyEbWnKqGqw/sin44Bs7PtQdfCqVG/GEKAAAA5r2ilj5T1JbH3u0kSZIkSfOpEBaUZ8Y+VyrSNz40ui/6ARk4NysP7ApdvnQBAAAAFyQpsh+UZ+qf7whhQey5TpIkSZI0T9swNV4q59lX7h07GBbv6Y1+TAbe39UHdoWuRjX6OAUAAADzWZJn/6Enz9bF3uckSZIkSS3QUy9Xrk2maydXnxgJlw9uj35UBt7d1cMeXQAAAMCFSqaz/JNFcUPsXU6SJEmS1EJtqlQWdjdqm9dN1d667vDu6Mdl4MddfWBX6JryexEAAAA4b0V2pruRPr+pUlkYe4+TJEmSJLVopXz8J8p5+o0706HQuXtL9EMz8EPLh3eEdR5dAAAAwHlL8vTrG4rsE7H3N0mSJElSG7RxZvLmpMi+8ODE4bB0YGv0gzO0u6uGdoR1U34vAgAAAOerO09Pb5yZvC327iZJkiRJaqOem5hYmkzXex8/NRpWDO+MfniGdnXVoEcXAAAAcCGSvN63qVJZEntvkyRJkiS1ad0zY383ybNv3Ta6P3Q2wREa2skVgzvC2lMeXQAAAMD5SIr0m93F+N+Ova9JkiRJktSxsZi8OynS33vgmF+PwMVyxeD2sNaXLgAAAOC8JEX2+rpXT9wbe1eTJEmSJOlHbSoql3c3skNrTlXDygN90Y/S0Mou3789rPHoAgAAAM5PkQ1/enLysth7miRJkiRJ71hPXvtsOU+/f+voPr8egTlw+f7tYc2p0fgjFQAAAMwzSZ59rzwz9rnY+5kkSZIkSe9b6eWxR8tF9kcPTPj1CMymKwY9ugAAAIDzkRTZF7vy2qrYu5kkSZIkSWfdUxMTV5aLbHjNqdGw8sCu6AdrmO+uGNzh9yIAAABwHpLprPJMUVseey+TJEmSJOm8Ks+kn0mK9Ju3V/eHzv74x2uYjzy6AAAAgHOXFOk3e/LaZ2PvY5IkSZIkXXA9rx6/KynS335g4nBYtndb9CM2zCdXDG4Paz26AAAAgHNU+82uV6ofib2LSZIkSZI0az03MbE0ma73rpmqnvHrETg7VwxuD2tPeXQBAAAAZ63IziTT9d7nJiaWxt7DJEmSJEmak8oz408nefp1vx6B93bV0I6wruHRBQAAAJytpMi+1lVU/5vY+5ckSZIkSXPe01PZ9eU8nXzg2JGwbO/W6AduaDbLh3eEdX4vAgAAAGctmc7yJ0+evCn27iVJkiRJ0sUrhAXlmbHPrW1U37ju8O7oh25oFh5dAAAAwNlLiuwH3Y3a5k2VysLYc5ckSZIkSVHqytPHynn9D+/KhsOi/t7oR2+IafnQTo8uAAAA4KxlX+rJs3Wx9y1JkiRJkqL3xKnKVd2N7NAjJyrhisEd0Y/fEMMPH13UmmC0AgAAgOaX5LXRrlfGV8TetSRJkiRJaqrKM+lnSo3s2x8a3Rf9CA4X0/Jhjy4AAADgrBTpd8ozY5+LvWNJkiRJktS0lb9QvaecZ797//ihsHRgW/SDOMy1lQf6QpdHFwAAAHAWsn9bfu3Y/bH3K0mSJEmSmr5ni2JZMl3vXXOqGq450Bf9MA5zZeXBXaGrUW2C4QoAAACaWylPB1edPn1p7N1KkiRJkqR51frp9KfKefqNO9OhsLB/S/QjOcym6w7vDqVG/OEKAAAAmlmSp39enqn/bOydSpIkSZKkedsnG8c+lEynLz8yORIu3789+rEcZsP1h18KpYbfiwAAAMB7KRVpsXFm8ubY+5QkSZIkSfO/EBaUZ8Y+V2qk3/tgZU/0ozlciJuO7Ik+XAEAAEAzS4rsu+WZ+uc3VSoLY89SkiRJkiS1VOtePXFvUqS/ff/4obB0YFv0Azqcq1tGBqKPVwAAANDMkiL9vSeL2oOxdyhJkiRJklq2Vaf7Fnc3apvXnBp9c+WBXdEP6XC2bjnq0QUAAAC8h7eS6XrvcxMTS2PvT5IkSZIktUXrG+NrS3n67z9c3R8W9vdGP6rDe/lwdX/s8QoAAACaVlKkf9yTV5PYe5MkSZIkSW3XUxMTVyZ5ve+RyZFwxeCO6Md1eCe31wajD1gAAADQrEp5Ovj0q69eEXtnkiRJkiSprSvPjH2yPJX+2W2j+0Nnf/xDOyzY/ULo3P1C+Eg2FH3AAgAAgKZU1L/aXdSeib0rSZIkSZKk/9LGycnrkjzLHpo4Ei7d92L0ozvtrbN/S7g7G44/YgEAAEATKhXZ8dLp0Rtj70mSJEmSJOkdKs+knynltW/ecnQg+vGd9tS5e0v46NiB6CMWAAAANJ0i+8uevPbZ2PuRJEmSJEl6nz5R1G4t59nMfeMHw9KBrdEP8bSPRf294f5jh+IPWQAAANBkkiL7wseL7I7Yu5EkSZIkSTrbQugsz4x9bu1U9fs3HNod/SBP61u8pzc8OHEk+pAFAAAATaVI3+hu1DZvqlQWxp6LJEmSJEnSeVR+7dj93Xn9d+4ZOxCW7OmNfpynNS0d2BZWnajEH7MAAACgqWT/tvTyiYdj70OSJEmSJOkCe7YolnU30ucfPzX61sqDu6If6Wktl+zbFlZPjjTBmAUAAABNosjOJHm9b9Xp05fG3oUkSZIkSdIs1pNn68p5/Q/vTIfCoj1boh/smf8u2/dieOzk0fiDFgAAADSN7EsbpsZ7Yu9AkiRJkiRpjnqmqC1P8tqeR0+Nnlk+tDP64Z7568rBHWHNqdEmGLQAAACgCRTZme5GuvupiYkrY+8/kiRJkiTpIrS+MbaxK0//5NbRfWFhv69fcG6uHt4V1jWq8UctAAAAaAJJkf7xhqnsydh7jyRJkiRJusitOn360u5G+vwjkyNvXTm4I/oxn/nhmoMvhS6PLgAAACCUi+xMktf7nn711Sti7zySJEmSJCliTxTVrnKe/v6d6ZCvX/Cebji8O5QatfjDFgAAAERX/8P1jYn1sXcdSZIkSZLUJG16rXJJdyN9/rHJo28uH94Z/cBP8/lgZU8TjFoAAAAQ3VtJXu/79OTkZbH3HEmSJEmS1IRtmK6uSYrs9TvTobCovzf6sZ/m8KHRfbFHLQAAAIguKbIvrm8cK8febyRJkiRJUpP3bFEs626kzz928uibK3z9oq117n4h3JkORR+2AAAAIKakyH7Q3Uiff7YolsXebSRJkiRJ0jzqyaL2YNLIfuv26v6wsH9L9EcAXFwL+7eEj9YPRB+3AAAAIKakSH9vw3R9deydRpIkSZIkzdNWne5bXJ6pf/7RU0ffWDG8K/pjAC6ORXu2hPuPHYo+bgEAAEAsf/WVi+cmJpbG3mckSZIkSVILVH7t2P1Jkf3GnelQWLSnN/rDAObO0r1bw8PHK9EHLgAAAIilO6//TunlEw/H3mMkSZIkSVKLtbkoFpVn6p9fPXn0+1cf8PWLVnTpvm1h9eTR6AMXAAAARFGkb3Q30udXne5bHHuHkSRJkiRJLdy6V0/cW87TX/f1i9Zy5eCOsOZUNf7IBQAAABEkRfaF8heq98TeXSRJkiRJUrsUQmdPXvvsoydHv73yQF/0RwNcmJUHd4WuRi36yAUAAAAXXZF+pzxT//ymSmVh7LlFkiRJkiS1YT2vHr+rnGcz944fDMv2bov+gIBzd8Ph3aHUaIKhCwAAAC6yZDrLP15kd8TeVyRJkiRJUrsXwoLyTPqZdY30ax+s7In+kICz98HKnugjFwAAAFx0RfafevLaZztCWBB7VpEkSZIkSfpRHz9RuTrJ630PHK+cuWz/i9EfFfDuOne/EO6oDcYfugAAAOBiKrIzpTwdfOrlyrWxdxRJkiRJkqR3bX3jWLkrz16/bXR/WNi/JfojA95uYf+WcE/9QPyxCwAAAC6ipMi++ESRPhF7N5EkSZIkSTqrVp3uW1yeqX/+kRMj318xtCv6YwN+aPGe3vDAscPRxy4AAAC4aIr0je5G+vxzExNLY+8lkiRJkiRJ59zHi+yOUp5O3VEbDIv39EZ/eNDOlu3dFlYdr8QfvAAAAOBiKerTG4vJu2PvI5IkSZIkSRdc0sg2PXaq+vUbDu2O/gChHV2+/8Xw2Mmj8QcvAAAAuDi+0ZPXPtsRwoLYm4gkSZIkSdKs1fXK+Iokr/fde+zQmWV7t0V/jNAuVgzvDGunqrEHLwAAAJh7RXamlKeDnyqKa2LvIJIkSZIkSXPWhqnx0tq8+voHK3tCZxM8TGhlNxzZHUqN/7+9uw+y66wPOy7J8jv4hRcDjouJHSDBYFJE6xDvPefu6lq2NMjj/LGZpIkVN+mIzGQcddKkapNpu3+0jJrOtFaMA2tsYwvMy7W15znnrtZarc557kUbYehCZ0gMExIHQoIpmDfz7hf59g9HKRhwZFvSc3f385n5/mtbXu09z/N7nrlnBAZfkiRJkiSd4PK6+Mx4U2xMPfcAAAAAOCk2LE2fmg2qnW/c96FHX7DnluQXFFZiF++9M/nQS5IkSZKkE10ey++162Lqxrm501PPOwAAAABOuqtj+TNjMSxcOnPXcP1tu5NfVlgJrXv3TcPXVu9LPviSJEmSJOmEF6v+pjj/s6nnGwAAAADJ5XU5ecXBmYdf/oF3J7+4sJxbf/vu4etn359+8CVJkiRJ0ontq+NNsX3NcLg29UwDAAAAYGSMHZo9P+9Xuy+/74NPnn3XO5JfYlhunfGem4dvuq+bevAlSZIkSdKJK5ZPtpqwZ2uML0k9xwAAAAAYWRP1viyrwycvnblruP72m5JfaFgOveCuW4ZXHNibfgAmSZIkSdIJKq/LT4w35ZWp5xYAAAAAy8NwuC4bhG2/cODer770A7cmv9gwyr3ofe8aXlnPJB+ASZIkSZJ0Qorl17JBb8dkt3tK6nEFAAAAwLJz9f7ui/J+tfuy3t1Hzrzz5uSXHEatV3zwtmGrHoEhmCRJkiRJx78jrSbs2fzh7ktTzycAAAAAlr3Wh/e/aezgzEcu3nvn8JTbvH5k7bv/1/DivXemHoBJkiRJknRCyvvFx8aacEXqeQQAAADAyjIcrs0GYdub5+/5yvnve1fyiw+pOuX2m4Y/V92dfAgmSZIkSdLxLo/lF8ebYvua4XBd6jEEAAAAwIrVWeie267Drjfs+8DjZ7xndb1+5LQ7/mT4xn0fSj4IkyRJkiTpuBbDY3m/2r15bu6c1HMHAAAAgFVjfPG+1/7iQnHwonvuGK5bBa8fecFdtwyvOHBv+mGYJEmSJEnHsbxfNlcu7r8s9ZwBAAAAYNWa6Pe2bjjQ/fsX371yXz/y4runh1fWM8mHYZIkSZIkHa/yGP4uG4RtqecKAAAAAKxZs2bD0tJZ7bqYuqz3gUfPXGGvH7moe/uwNQIDMUmSJEmSjksxfLddh12TsfuC1PMEAAAAAJ5mcz136ZVx772Xztw1XH/77uSXJp5P6267afgzxZ70AzFJkiRJko5T7brqbRrM/3Tq+QEAAAAA/4RODJ0rDs785YUfui35BYrn0ql37B5evu+DyQdikiRJkiQdj/K6+Ew26G1JPS8AAAAA4FnYsDR9ajbo7XjTXPc75+750+SXKY61s+68efjm/fckH4pJkiRJkvR8y5vy2+26mLpxbu701HMCAAAAAJ6jzXHvRfmgd/drq7ufPP2Om5NfrHimzn3vO4dvWZhJPhiTJEmSJOl5diRvyruuOnDgwtRzAQAAAACOk6vivjePNXsXL9575/CU225Kfsni6b3ig7cNW02RejAmSZIkSdLzKo/lRzb2Z96Seg4AAAAAwAky0e9t3XDfvZ+74P23Jr9scbSL996ZfDAmSZIkSdLzKa+Lz+R1OZl63w8AAADASbBhafrU8abY/vp9H/jGWXe+I9mFi/W37x5e1rs7+XBMkiRJkqTn0VezQbXzxrm501Pv9wEAAAA4ycYOzZ7fijP/49Kw5/FTb999Ui9dnPmem4cb9t+TejgmSZIkSdJzK4bH8qaa3hrjS1Lv7wEAAABILLu/9+orDt4bXnnPHcNTbrvphF+6OO+97xy+ZWFv+iGZJEmSJEnPoXZd9TbXc5em3s8DAAAAMGLGmnDFhv3dj1/w/ltP2KWLCz9027BVpx+SSZIkSZL0bMv7xcc2Hpxtpd6/AwAAADDKhsO1eV1O/vx9H/jCue9953G7cLHutpuGlxZ7kg/JJEmSJEl61sXw+WwQtq0ZDtem3rYDAAAAsExMdrunteLsv31d7+7vnPmem5/XpYvT7viT4eVzH0g/KJMkSZIk6VmUx/Ctdl1M3RDjGan36QAAAAAsUxs/OvPisWbmHZfM3HXk1Nt3P+tLFy+465bhv5y/N/mwTJIkSZKkYy2P5eN5U01fe7B8Wep9OQAAAAArxKY4/7NXHLw3vPLeO4an3HbTMV26uOD9tw6vrGeSD8wkSZIkSTrWWrFcyA7ve0PqfTgAAAAAK9R4U2zcMN/91AXvv/UZL1288t47kg/LJEmSJEk69soHskFvS+p9NwAAAACrwGS3e0o2mP3NN851v3jue9/5Qxcu1t9+0/B1vbtHYGAmSZIkSdI/XasJn2sPyt9YMxyuS73fBgAAAGCVmex2T2sPqre9tnrf1898z83DM95z8/BN930o+dBMkiRJkqR/qjyWD2eDaucNMZ6Ren8NAAAAwCp3/fz82b8YZ/7oLQvhkdSDM0mSJEmSnqk8hm+167Br89zcOan30wAAAADwQzZ+dObF7TrsymL4bupBmiRJkiRJT+vRvKmmN83PX5B6/wwAAAAAz2hz3HtR3lTTeSwfH4HBmiRJkiRpNRfDY3lTTU8c7v1U6v0yAAAAADwr18TiVXlTTWdNOJJ80CZJkiRJWl3F8sm8X3az+3uvTr0/BgAAAIDnZVOcfX3eL7vJh26SJEmSpFVRK5YLrQ/vf1Pq/TAAAAAAHFcb+zNvyWLVTz2AkyRJkiStzPJ+ODzezOSp978AAAAAcEJ1YujkdfmJ1AM5SZIkSdLKKI/hz/O6nEy93wUAAACAk2c4XJvX5WReF59JPaCTJEmSJC3P8hg+O94U29cMh+tSb3MBAAAAIIkNS9OnjjfF9qwpv5B6YCdJkiRJWh7lMfzdeFNsn4pxfep9LQAAAACMhMnD3TPHm+Lf57F8OPUAT5IkSZI0sn1pvOn93g0xnpF6HwsAAAAAI+n6+fmzs0FvRxbDQyMw0JMkSZIkjUB5E77SroupzXNz56TetwIAAADAsuAChiRJkiTp6IWLzkL33NT7VAAAAABYljYsLZ2VDXo7sqb8QuqBnyRJkiTppPVVFy4AAAAA4Di6cW7u9PGm2O4ChiRJkiSt4GL5zXYddl0Xi/NS70MBAAAAYEU6egEjb8q/Tz4QlCRJkiQdn1y4AAAAAICTa/Jw90yvIJEkSZKkZd9Xx5vwn124AAAAAIBEJrvd08abYnsew9+NwMBQkiRJknQM5bF8uF0XUy5cAAAAAMCIcAFDkiRJkpZBsfpyuy6mNs/NnZN6HwkAAAAA/BiT3e5p2SBsy5rqweQDRUmSJEnS0b6UDaqdG5aWzkq9bwQAAAAAjsHRCxitJvz1CAwYJUmSJGmVVv5tNujtmDzcPTP1PhEAAAAAeA6OvoLEBQxJkiRJOnnlsfyrVuz9m8lu97TU+0IAAAAA4HgYDtdN9Htb81j+79QDSEmSJElaqeV1+GQ2CNumYlyfehsIAAAAAJwgnRg6WRP+LPVAUpIkSZJWTLFcnOj3tq4ZDtem3vMBAAAAACdJJ86Mteuql8XyyeRDSkmSJElajh29cAEAAAAArF7jh3pvbDVhT96EJ5IPLSVJkiRp9DvSrqvexn71L1Lv5wAAAACAETK+eN9r86a4PWvCoyMwyJQkSZKkkSpvyu+3mvLW7P7eq1Pv3wAAAACAEXbtwfJl7bqYymL5tdSDTUmSJElKX/lI3q92Txzu/VTq/RoAAAAAsIxcu7j4wmzQ25HF8Pn0g05JkiRJOrnlsfxiuy6mrovFean3ZwAAAADAMrZhafrUbBC25TH8eerBpyRJkiSd6PI6fHK8KbbfODd3eur9GAAAAACwwnTizFi7rnqpB6GSJEmSdNyL5eJEv7d1zXC4NvXeCwAAAABY4caacEW7Lu/Jm/BE8uGoJEmSJD3H8lg+njfVh66K+96cep8FAAAAAKxCmwbzP92uw648hq+nHphKkiRJ0jEXy2/m/Wr3NbF4Vep9FQAAAADAmmsXF1+YDXo7Wk34XPIBqiRJkiT9hPIYPpsNqp1jh2bPT72PAgAAAAD4UcPhuol+b2vWhD9LPVCVJEmSpKO1m7CUDcK2qRjXp942AQAAAAAck7Gm2NBqwp48lo+nHrJKkiRJWpUdaddVrxNDJ/X+CAAAAADgORs7NHtJuy5uyprykREYvEqSJEla4eVN+MZ4U/3Pa2LxqtT7IQAAAACA4+baxcUXjjfF9qwpH0g9iJUkSZK08spj+VfZoNp5XSzOS73/AQAAAAA4cYbDtZ0YOu266mWxfDL1cFaSJEnSMi6WT7ZiuTDR721dMxyuTb3dAQAAAAA4qa6O5c+067Arj+HryQe2kiRJkpZNeQzfyptqeuPB8LrU+xoAAAAAgOSOvoYkr8OnUg9wJUmSJI1y1YPZoNo5dmj2/NT7GAAAAACA0TMcrpvo97ZmMezPmnAk/VBXkiRJ0gh0pBXL+8bizFvXDIfrUm9bAAAAAACWhc313KVPvYakfHgEBr2SJEmSTnJ5E77hdSIAAAAAAM/TjXNzp+d1OZnFcjH14FeSJEnSia/dhKXxpti+YWnprNT7EQAAAACAFWWsKTbkTTWdNeV3Ug+DJUmSJB2/8qb8ft4vu50YOqn3HQAAAAAAK951sTgvG/R2ZE31YOoBsSRJkqTnXqsJf50Nqp1bY3xJ6n0GAAAAAMDqMxyu2xjLa9p1KPJYPp56aCxJkiTpGIrhsbwp9raa2avXDIfrUm8rAAAAAABYs2bNlhhfng2qnVks/yb5IFmSJEnSj5Q35d+367Crs7DwytT7BwAAAAAAfpLhcF0nhk7eL7tZDI+lHi5LkiRJq7wjrVgu5HU5ORXj+tTbBQAAAAAAnoXW0t5XZINqZx7DZ0dg4CxJkiStosov+HYLAAAAAIAVYrLbPWUszrw1b8oyj+Xj6YfQkiRJ0goshseyWIRs0NuyZjhcl3ofAAAAAADACbAlxpdng96OPIY/Tz6YliRJklZAeSw/nQ2qndceLF+Wer0PAAAAAMBJNNYUG/Kmms6b8tuph9WSJEnScipvwjfyppruxJmx1Ot6AAAAAAAS2zw3d042CNtasVxIPcCWJEmSRrgjWSwXx5ti+/Xz82enXscDAAAAADCCso/M/Fy7DruyWH15BAbbkiRJUvpi+Hy7DrvGDs1eknq9DgAAAADAMnHj3NzpE/3e1rxfdrMYHks+7JYkSZJOYnksv5f3y24nhs6a4XBt6vU5AAAAAADL2NX7uy8ab4rtWVN8PPUAXJIkSTqRtZuwlA16O67e331R6nU4AAAAAAAr0JWL+y9r12FX1oQvpR6KS5IkScelGB7K+9XujQfLy1OvtwEAAAAAWCUmu91TOjF08n7ZzZrwaPJhuSRJkvTserRdV728Lic3LE2fmnp9DQAAAADAKrb5w92Xjjfhd7MmfHQEBuiSJEnSTy6W9+d1cePWGF+Seh0NAAAAAAA/Yku97+JsUO3M6+IzyYfqkiRJUhOGWVP+bbsOu8YOzbwm9XoZAAAAAACO2VhTbMj71e6sCV9KP2yXJEnSqiqWX2s1YU8nhs6a4XBt6rUxAAAAAAA8Z5Pd7imdGDqtJuzJm/LbyYfwkiRJWpHlsfxeu656eV1OTna7p6VeBwMAAAAAwHHXWeiem9fhX+f94kDehCdSD+cdcekQAAAPC0lEQVQlSZK0vMtj+XgWw/72oPyNzXNz56Re7wIAAAAAwElz9f7ui7JB2NaK5ULWhCOph/aSJElaNh3JYrmYDXo7tsT48tTrWgAAAAAASG5z3HtRNujtyGK5mMXyyREY5kuSJGnkKh9o18XU2KHZS1KvXwEAAAAAYGRtqfddnA16O7Km+Hj64b4kSZLSdvSyxcxrUq9TAQAAAABg2dl4sLx8vCnentfFZ9IP/SVJknSS+st2Xf3X7PC+N6RejwIAAAAAwIpx5eL+y9p1MZXH8tMjcBggSZKk41ks/ybvV7s7cWYs9boTAAAAAABWvH+8hFGHTyU/JJAkSdJzrHrQZQsAAAAAAEjs6CWMrCkfSH94IEmSpGfOZQsAAAAAABhZm+Ls67NB77/kMfyf9IcKkiRJypowzOvyE61+8Z82HgyvS71eBAAAAAAAjtGWet/F2aC3oxXLhTyWj6c+cJAkSVpFHWk3YaldF1Njh2Zek3pdCAAAAAAAPE9bY3xJNgjb2nXVy5rw6AgcRkiSJK2o8iY8kcVyMRv0dlx14MCFqdd/AAAAAADACXL9/PzZE/3e1lYT9mSx/GbqQwpJkqRlWwzfbddVLxuEbdfF4rzU6zwAAAAAAOAkmzzcPfOpSxjlrVkMDyU/vJAkSRr5yi/kTTU9FmfeOnm4e2bq9RwAAAAAADBCrlzcf1m7LqbaTVjKYvlk+oMNSZKkUah8oF2HXZ04M7ZmOFyXes0GAAAAAAAsA1vqfRePN8X2dl318qb8fvoDD0mSpJNT3oQnslguZoNq59ihmdekXpcBAAAAAADL3Oa5uXOyQfXL7bp4bx7Lh1MfhkiSJB33YvXlvCnvyuty8trFxRemXn8BAAAAAAAr1XC4bqwpNmSDamcWy0WvJJEkScu3o68QCZ2pGNenXmYBAAAAAACr0OYPd1+a1+Vkqwl78iZ8I/0BiiRJ0o8vb8pvt+uqN94U2ycO934q9ToKAAAAAADgh0x2u6d04sxYuw672k1YSn24IkmSlDXVg3lTTU/0e1snu93TUq+XAAAAAAAAjtmmwfxPt2Lvt9t1KLKmfCT9wYskSVrp5U34Rt4Ue9uD6m3XxOJVqddDAAAAAAAAx8Vkt3vKWFNsyAbVzlYsF/JYPp76YEaSJK2IjrSbsNSuw65ODB3fagEAAAAAAKwKGz868+K8LifzpprOYvj8CBzaSJKk5dOX8n7ZHW+K7a2lva9Iva4BAAAAAABIazhcu/FgeXk2KP5dK5b35U357RE40JEkSSNSHsO38ibsG296v7cpzr4+9dIFAAAAAABgpE3FuP4HX0uSNeHR1Ac+kiTp5JU34YkffH3IjXNzp6denwAAAAAAACxb18/Pn92JodOuw652E5ayWD6Z+kBIkiQd76oH86aazuty8rpYnJd6/QEAAAAAALBitZb2vqIdy19vNdUdWVM9mP6gSJIkPdtaTfjrvCluzwa9f7UlxpenXl8AAAAAAACsWq2lva/I63Iyb6rprCkfSH2QJEmSfkwxPJT3y+54U2y/JhavSr1+AAAAAAAA4CdwEUOSpBHIRQsAAAAAAICVobOw8MpsELblTXF71oS/TH4QJUnSCiyP5afbdXh3XhfXbxrM/7PUz38AAAAAAABOkE3z8xdM9Htb23XYlcVyMWvCo6kPqyRJWk7lTXgia8oH8qaazgZhm4sWAAAAAAAAq9j18/Nnd+LMWDaodrZiuZDF8N3UB1qSJI1W5XeyWC6267Brot/bel0szkv9/AYAAAAAAGBETXa7p03Us7/Y6vf+oF2HIm/K/5v+wEuSpJNXHssv5v1ypl1Xv7+xP/OWDUvTp6Z+PgMAAAAAALCMXXXgwIV5XU7m/Wq315NIklZST39tyJWL+y9bMxyuTf3sBQAAAAAAYAX7/68n6e3I+2U3i9WXUx+cSZJ0bJWPtGK50K6LKa8NAQAAAAAAYGSMHZp5TTuWv95qwp9ksbw/b8rvpz9ckySt5vJYfi+P5UfyfrW7Pej9WnZ/79Wpn5cAAAAAAABwTKZiXH/l4v7LskHYljfVdNaUD2RNOJL6EE6StJKrHmw1YU826O3oxJmxG2I8I/XzEAAAAAAAAI6bzkL33PGm2DjeVH/YrkORxfD59Id0kqTlWfm37ToUrX75H8ebYuPmublzUj/nAAAAAAAA4KS7LhbndeLMWDbo7Wg1YU/WlA9ksXwy/YGeJGlkiuGhdl312nUxNdHvbb32YPmy1M8vAAAAAAAAGFmdhe65P3IZw2tKJGl19LRLFpvm5y9I/VwCAAAAAACAZe+6WJw33szk40343bwpbm83YSlvyu8nPyCUJD2n8lh+r92EpSxWt+V1ceNEvS/rLHTPTf28AQAAAAAAgFVjKsb1Y4dmL5no97a262KqXVe9LIaHUh8mSpKeViy/lsVyMe9Xu7NB2DbWFBtunJs7PfVzBAAAAAAAAPgxWkt7X7ExlteMN8W/z5vyrqwpPp7H8nvJDx4laaUXw3f/4RuJ7mr1e3/Qamav3hLjy1M/FwAAAAAAAIDj4KoDBy6c6Pe2ZoNqZ6sJe9pNWHIhQ5KefXksH8+a6sF2XfXaddiVDcK2Kxf3XzbZ7Z6S+rMeAAAAAAAAOIkmu93Txg/13pjX1a+ON8Xb86bYm8fy01kMj6U+2JSk5MXwWF6HT+VNsbfVD/+tHWd/ZePB8vLJbve01J/fAAAAAAAAwAibinH92KHZSzoxdLJBb0feVNNZLBezWH4z+UGoJB3n8qb8ftaUD+T9stuui6m8LifHmmLDDTGekfrzGAAAAAAAAFhhttT7Lp6oe5uyQW9Hq+n9aSuWC60mfC5rwpHUh6eS9AwdyWP4bN4vDuT9cMt4E353ou5t6iwsvDL15yoAAAAAAADAmslu97Snf0tGK5YLWVM9mMXyyRE4dJW0Gorl19pNWHr6t1dcPz9/durPSQAAAAAAAIDn5NrFxRe2Prz/Tdmg+uV2Hf5DqylvzWI4mMXyb/JYPp78oFbSsumpz4zqwVYsF/Kmms4G1c68Liezw3P/fDJ2X5D68w4AAAAAAADgpNqwNH3q5nru0o0Hy6tasffb4035x1kM9+Z1+Ym8Cd9Ifcgr6eSXx/D1rCk+3q7Le1r93n9vD6q3bTxYXrW5nrt0w9L0qak/twAAAAAAAACWjcnD3TOPvsJkvCm2t+uwq9WEPf/4GpMmHEl9SCzpWfYPrwNp11XvB7+1YqwpNowdmj0/9ecOAAAAAAAAwKpxQ4xnjB2aeU0nhk57UPxWuy6m8qa4vRXL+9pN+Re+NUM6ueUxfL3dlH/RiuV9Waxua9fFVDaY/c1ODJ3s/t6rb5ybOz315wYAAAAAAAAAz8L18/NnZx+Z+bnxptiYDcK2bBD+KO+HW/J+qLKm+HgWw0N5E55IfWAtjXJ5E57IYngoa4qP5/1Q5f1wSzYIf5QNwraJem5iU5z/2Q1LS2el/n0HAAAAAAAAIJGxQ7PnX7m4/7JOnBnL63IyG/R2/PCrTcoHnjp4Tn8ILh2v8lh+L4vhoR989Ue7LqbGm2L7RL+3tRNnxsYOzV4yFeP61L+jAAAAAAAAAKwAk4e7Z1514MCFP3pJo5jK+9XuvF92s1gu/uNFjVg+mfpwXaunoxcpsqZ8oBXLhVYT9uT9avfTL1Ncubj/srFDs+en/n0CAAAAAAAAgGd0Q4xnbI57L9p4sLx8vJnJJ/rhl9qD4rda/d4fjDfF27MY3vXUZY1wMK/LT7Sa8LmsKR9JfYCv1JWP5DF8Nq/LT2QxHPyHvyPvGm+Kt7fr6vezwexvTvTDL403M3l2eN8bNse9F90Q4xmp/74DAAAAAAAAwGgYDteOHZo9/5pYvGrjwfLyTpwZywa9LXld/Wp7UL0tG1Q7n7q4Ub6j1YQ9WSxCK5YLeb/4WF6HT2ZN9WAey4fzpvx2+ksEq6M8hm/lsXw4a6oHn/oZhI+2YrmQxSI89TMq3zHeFG/PBtXO9qB6WzvO/ko26G3pxJmxjQfLy6+Jxat8CwUAAAAAAAAAjKDNc3PnXHuwfNnYodlLrorFz3fi3C90YuiMxZm35nU52R70fm28Kba3B+F3nrrUUf1huw67xpvyj/Omms6bajrvl92nvnnhqUseR8v7xcfaTVhqN2Hp6KWPo+VN+EoWy689Q9885ssNsfzmM/2z8iZ85Yf+3XX45NH/rqOXII6WxSIc/fMc/fONN+UfP/Vnrv7wqcsR4Xee+n/S+7W8LifH4sxbOzF0OnHuF66Kxc+PHZq9ZNP8/AWb5+bOSf3zBQAAAAAAAAAAAAAAAAAAAAAAAAAAAAAAAAAAAAAAAAAAAAAAAAAAAAAAAAAAAAAAAAAAAAAAAAAAAAAAAAAAAAAAAAAAAAAAAAAAAAAAAAAAAAAAAAAAAAAAAAAAAAAAAAAAAAAAAAAAAAAAAAAAAAAAAAAAAAAAAAAAAAAAAAAAAAAAAAAAAAAAAAAAAAAAAAAAAAAAAAAAAAAAAAAAAAAAAAAAAAAAAAAAAAAAAAAAAAAAAAAAAAAAAAAAAAAAAAAAAAAAAAAAAAAAAAAAAAAAAAAAAAAAAAAAAAAAAAAAAAAAAAAAAAAAAAAAAAAAAAAAAAAAAAAAAAAAAAAAAAAAAAAAAAAAAAAAAAAAAAAAAAAAAAAAAAAAAAAAAAAAAAAAAAAAAAAAAAAAAAAAAAAAAAAAAAAAAAAAAAAAAAAAAAAAAAAAAAAAAAAAAAAAAAAAAAAAAAAAAAAAAAAAAAAAAAAAAAAAAAAAAAAAAAAAAAAAAAAAAAAAAAAAAAAAAAAAAAAAAAAAAAAAAAAAAAAAAAAAAAAAAAAAAAAAAAAAAAAAAAAAAAAAAAAAAAAAAAAAAAAAAAAAAAAAAAAAAAAAAAAAAAAAAAAAAAAAAAAAAAAAAAAAAAAAAAAAAAAAAAAAAAAAAAAAAAAAAAAAAAAAAAAAAAAAAAAAAAAAAAAAAAAAAAAAAAAAAAAAAAAAAAAAAAAAAAAAAAAAAAAAAAAAAAAAAAAAAAAAAAAAAAAAAAAAAAAAAAAAAAAAAAAAAAAAAAAAAAAAAAAAAAAAAAAAAAAAAAAAAAAAAAAAAAAAAAAAAAAAAAAAAAAAAAAAAAAAAAAAAAAAAABGz/8Dz0iMDNpN4JMAAAAASUVORK5CYII=;labelBorderColor=none;fontSize=18;" parent="1" vertex="1">
          <mxGeometry x="1154" y="423.75" width="172.5" height="172.5" as="geometry" />
        </mxCell>
        <mxCell id="QxIThn4V1b4HbERtiuYh-8" style="edgeStyle=orthogonalEdgeStyle;rounded=0;orthogonalLoop=1;jettySize=auto;html=1;dashed=1;dashPattern=1 4;fontFamily=Verdana;fontSize=18;endSize=18;strokeWidth=3;" edge="1" parent="1" target="tc2cRqG1eZlLA8XT75nJ-31">
          <mxGeometry relative="1" as="geometry">
            <mxPoint x="890" y="510" as="sourcePoint" />
          </mxGeometry>
        </mxCell>
        <mxCell id="tc2cRqG1eZlLA8XT75nJ-35" value="" style="rounded=1;whiteSpace=wrap;html=1;dashed=1;labelBorderColor=none;fontFamily=Verdana;fontSize=16;strokeColor=#000000;strokeWidth=2;align=right;verticalAlign=middle;" parent="1" vertex="1">
          <mxGeometry x="445" y="370" width="545" height="360" as="geometry" />
        </mxCell>
        <mxCell id="tc2cRqG1eZlLA8XT75nJ-34" value="" style="shape=image;verticalLabelPosition=bottom;labelBackgroundColor=#ffffff;verticalAlign=top;aspect=fixed;imageAspect=0;image=data:image/png,iVBORw0KGgoAAAANSUhEUgAABh4AAAbWCAYAAABN7s0CAAAgAElEQVR4nOzd/7Nc913f8bX8JU5I4thE1p6zK1kWThwCJaYqQ2BcMMSd0JDATMGEmU5MC6mnQNq0FOq2UDC0bp2BdsZT2ozp0AaXKc0NnU5jImzdPedcWarBjSaUgklKMF9ShyQ4SNbuZ6+u/EWnPyR2bUey7pe9932+PB4zzz/B97w/8xp5BwMAAAAAAAAAAAAAAAAAAAAAAAAAAAAAAAAAAAAAAAAAAAAAAAAAAAAAAAAAAAAAAAAAAAAAAAAAAAAAAAAAAAAAAAAAAAAAAAAAAAAAAAAAAAAAAAAAAAAAAACAZpmX2cF5md0mqZ1NJ+MfmBXDW15cKrO3rlX5zc9vurzvxvkX/ps/OC+zg9Nq/xueOLrvQP3wG778xPKVV0T/PQIAAAAAOmBWjO+YFVktSbMiq1ORn5mV+YlU5I/NiuzRNMl/azrJPpqqfHlaZh+ZFaOl+WT4i9OV7F/NV4b/dFaM/04qRu+ar+TvmC7vu3FW7fnquhqN62r3K6P/vgEAAAAAAQwPkrarVGZPzcr88Vk5/OR0kn10WmW/Pi2ze6fF6OdWJ8N/kI4Mb11bGf7VVO2/YX54b14fH1wa/TcRAAAAANgiw4OkRlXmj8+K7JFZma2kYvgraZLfPa9GP56K0btOl8NvfqLY+xX1oeteFv23EwAAAAA4D8ODpFZW5idmRfZIqvLl2SS7Z1qNb09HhreuVfnNTxzdd6CuBpdE/30FAAAAgF4yPEjqYqnInk5F/iepGJWzMv+F6WT8D1fL8Xelo6M3+f0JAAAAANhGhgdJvazMT6QyOz4rRkurxfCueZndtlblN9fHX5tF/10GAAAAgFYzPEjSiyrzx2dltjIrsvfPqvF7ZsWeb60nV++J/nsNAAAAAK1geJCkdVbmJ1OZHZ+W2b3Tanz7fCV/xxNH9x2o68FF0X/LAQAAAKAxDA+StMXK/MSszI/Niuz98zK7bb4y/Lq6uuny6L/vAAAAABDC8CBJiy8V2dOzIntkVoyWZsX4jvlK/o76weHu6L/5AAAAALDtDA+StKM9OptkvzovRj9xqhx9+/zw3jz6OwAAAAAAC2V4kKTY0mT0p/NidN+z/zLiZHXDa6K/DQAAAACwaYYHSWpWz/5vmqZldu+8zG6bHdv3VXU92BX9vQAAAACAdTE8SFILKvOTaZLfP1sZ//TakeHb6vvHV0V/PwAAAADgnAwPktTaHp1NsnvSkeGt9fKBfdHfEwAAAAAYDAaGB0nqUI8++79nOv3Anmujvy8AAAAA9JThQZK6WZqM/nRWjJae9zsRF0V/cwAAAADoAcODJPWjVAw/PS2ze1Mxeleqdg+jvz8AAAAAdJThQZJ626OzSXbPrBjeUh+66tXR3yMAAAAAOsLwIElKZfZUKrPjq8XwrrUqv7muBpdEf58AAAAAaCnDgyTpSyrzx1M5+uC0Gr979Ui+N/pbBQAAAECLGB4kSevoEf8aAgAAAIB1MTxIkjZUmT8+K0ZL6cjw1hPLV14R/R0DAAAAoGEMD5KkzZaK7OlZmR+bVuPbp9X+N0R/0wAAAABoAMODJGmBPbK6MnzfdHnfjXU92BX9jQMAAAAggOFBkrQtlfnj0zK7d76Sv6M+Prg0+nsHAAAAwA4xPEiStr/8z58bIQ5d97Lobx8AAAAA28jwIEnayVKRz+fF6L50ZHhrXe1+ZfR3EAAAAIAFMzxIkqKaF1maFaOlWZW/0wgBAAAA0BGGB0lSE0plfnpejO6bFcNb6qVbLov+PgIAAACwSYYHSVLjKvOTz/0mRDW4JPpbCQAAAMAGGB4kSU0uFfljaZLfPV3ed2P0NxMAAACAdTA8SJJa1O/NivEda0cPvD76+wkAAADAeRgeJEmtbDL6jVk1fk99//iq6G8pAAAAAM9jeJAktblU5GvP/Si134MAAAAAiGd4kCR1pVQMP71aDO86dfjA66K/rwAAAAC9ZXiQJHWxVGbH52V22+PHrn9V9LcWAAAAoFcMD5KkLpfK/PSsGC2tVfnNdT24KPq7CwAAANB5hgdJUm8qh5+cVuPb6weHu6O/vwAAAACdZXiQJPWtVORn/CsIAAAAgG1ieJAk9boy/8S0Gt9e3z++KvqbDAAAANAJhgdJkr7wWxDTMrv3yeX8a6O/zQAAAACtZniQJOmFpTI7Pi+z2+rjB18R/Z0GAAAAaB3DgyRJ5yv//LQa/+zJav/+6O81AAAAQGsYHiRJeulSkT0zL0b3rVX5zdHfbQAAAIDGMzxIkrT+UpF/bF5mt9XVTZdHf8MBAAAAGsnwIEnSxktF9tnVYnjX/PDePPpbDgAAANAohgdJkjZfKvK1aZnde2Zy7ddEf9MBAAAAGsHwIEnSYkrlcDKv9ry9rge7or/vAAAAAGEMD5IkLbhy+MnVSfZevwMBAAAA9JLhQZKk7SmV2WdmxfiOE8tXXhH9vQcAAADYMYYHSZK2vVNpkt9dH39tFv3dBwAAANh2hgdJknamZ3+I+tThA6+L/v4DAAAAbBvDgyRJO1sqsmfmxei+eZkdjL4DAAAAABbO8CBJUkypzM7Oi+GHV1eu+YboewAAAABgYQwPkiQ1oDI/NpuMviX6LgAAAADYMsODJEkNqsyPzYo93xp9HwAAAABsmuFBkqQGZoAAAAAA2srwIElSgyvzY6fLfW+JvhcAAAAA1s3wIElSCyrzY2tVfnP03QAAAABwQYYHSZJaVJmtnC72flP0/QAAAABwXoYHSZLaV6ry5XmZHYy+IwAAAAC+hOFBkqR2lsrs7KwYLa0dPfD66HsCAAAA4DmGB0mS2l0qsmdmxWjp9AN7ro2+KwAAAAAMD5IkdaRU5Gdmk+yeenL1nuj7AgAAAOgxw4MkSR2rzGarxfCu+tBVr46+MwAAAIAeMjxIktTNUpF9blaO/2596LqXRd8bAAAAQI8YHiRJ6napyj+VjgxvrevBRdF3BwAAANADhgdJkvrRvMgeni7vuzH69gAAAAA6zvAgSVK/mhej+544uu9A9A0CAAAAdJThQZKk/pWK/Eya5HefWL7yiuhbBAAAAOgYw4MkSX0u//zqJHtvXQ0uib5JAAAAgI4wPEiSpFmZf2JWDG+JvksAAACADjA8SJKkZ0tVvjyr9nx19H0CAAAAtJjhQZIkPb9UZk/5/QcAAABg0wwPkiTp3H3x9x/qwa7oewUAAABoEcODJEl6qaaT7KOnqtGbo28WAAAAoCUMD5Ik6UKlIntmWmb3zh7Yc3X07QIAAAA0nOFBkiStuzI/sTrJ3lsvDS6OvmEAAACAhjI8SJKkjZYm+W9Nl/fdGH3HAAAAAA1keJAkSZspldnZ6ST7pfrB4e7oewYAAABoEMODJEnaUmV+cnWSvbeuB7ui7xoAAACgAQwPkiRpIVX50TOT4RujbxsAAAAgmOFBkiQtqlSOnlwthnfV1U2XR984AAAAQBDDgyRJWnjl6A/WJvv+SvSdAwAAAAQwPEiSpO1rtOTHpwEAAKBnDA+SJGlbK/MT8zK7ra4HF0XfPQAAAMAOMDxIkqSdKFVZtVaNr4u+fQAAAIBtZniQJEk7VSrz1Wk1vr1eGlwcfQMBAAAA28TwIEmSdrzJ6DfOHLnmK6PvIAAAAGAbGB4kSVJEqcxPz4rxHfXxwaXR9xAAAACwQIYHSZIUWSrz//Xkcv610TcRAAAAsCCGB0mSFF0qR0+uFsO76qVbLou+jQAAAIAtMjxIkqSmlIrhb8/L7GD0fQQAAABsgeFBkiQ1qVSOnpytjH/av34AAACAljI8SJKkJpbK7HfS0dGbom8lAAAAYIMMD5IkqamlMj89rca31/VgV/TNBAAAAKyT4UGSJDW9VI6K1SP53ui7CQAAAFgHw4MkSWpJp+Zldlv07QQAAABcgOFBkiS1rA/VD7/hy6NvKAAAAOA8DA+SJKltpSL77Lza8/boOwoAAAA4B8ODJElqY6nMzs4m2T31A3u+LPqeAgAAAJ7H8CBJklpdmX/8yQev+YvRNxUAAADwRYYHSZLU9lI5enJWjO+o68Gu6NsKAAAAes/wIEmSulIq8sOp2j2Mvq8AAACg1wwPkiSpS6Ui+2wqs7dG31gAAADQW4YHSZLUtVKZnU2T/O76+ODS6FsLAAAAesfwIEmSutq8yB5+4ui+A9H3FgAAAPSK4UGSJHW70ROzSf690TcXAAAA9IbhQZIk9aFpmd1bHz/4iujbCwAAADrP8CBJkvpSKkb/e+1Yfn30/QUAAACdZniQJEm9qsymsyp/Z/QNBgAAAJ1leJAkSb1skt1TL91yWfQtBgAAAJ1jeJAkSX1tOsk+erLavz/6HgMAAIBOMTxIkqReV+aPpzJ7a/RNBgAAAJ1heJAkSX0vldnZ1WJ4V10PdkXfZgAAANB6hgdJkqQvlMpRMXtgz9XR9xkAAAC0muFBkiTp/5eq/FOnqtGbo280AAAAaC3DgyRJ0gtLRb42r0Z/O/pOAwAAgFYyPEiSJJ2nMv+FeumWy6LvNQAAAGgVw4MkSdJLVOb/oz7+2iz6ZgMAAIDWMDxIkiS9dKkYfvpUuefro+82AAAAaAXDgyRJ0oVLRb42P5J/f/TtBgAAAI1neJAkSdpAk+ye+vjg0ugbDgAAABrL8CBJkrTByuzI7IE9V0ffcQAAANBIhgdJkqSNl6r8U/MyOxh9ywEAAEDjGB4kSZI217zI0upk+N3R9xwAAAA0iuFBkiRp86UyO7taDO+q68FF0XcdAAAANILhQZIkaeulcvTB+qHxy6NvOwAAAAhneJAkSVpUw4f86DQAAAC9Z3iQJElaXPMq+8Mzk+Ebo288AAAACGN4kCRJWnBlNl07Mnxb9J0HAAAAIQwPkiRJiy+V2VOzSf7D0bceAAAA7DjDgyRJ0vaVJvnd9dLg4uibDwAAAHaM4UGSJGl7m1bZr9eHrnp19N0HAAAAO8LwIEmStP2lIv/Y/PDePPr2AwAAgG1neJAkSdqZUjH8dDo6elP0/QcAAADbyvAgSZK0g5X5idPF3m+KvgEBAABg2xgeJEmSdrZU5GuzKn9n9B0IAAAA28LwIEmStPOlMjubiuGPRt+CAAAAsHCGB0mSpLjSJL+7rge7om9CAAAAWBjDgyRJUngfqqubLo++CwEAAGAhDA+SJEnxpXJUnFi+8oro2xAAAAC2zPAgSZLUjFKZ/U5djcbR9yEAAABsieFBkiSpOc3L7I/Wjh54ffSNCAAAAJtmeJAkSWpWqcg+l6r9N0TfiQAAALAphgdJkqQGVuYnp8v7boy+FQEAAGDDDA+SJEnNLBX5PFXjb4u+FwEAAGBDDA+SJEnNLRX5mdmR0fdE34wAAACwboYHSZKkZpeK7Olpkf2t6LsRAAAA1sXwIEmS1PxSmZ1NK/mPRd+OAAAAcEGGB0mSpPa0Wgzvir4fAQAA4CUZHiRJklrX++t6sCv6jgQAAIBzMjxIkiS1r1Tlv1xXg0uib0kAAAD4EoYHSZKk1vah+vjg0uh7EgAAAF7A8CBJktTe5pPRr9WHrntZ9E0JAAAAzzE8SJIktbtpkR2qq5suj74rAQAAYDAYGB4kSZK6UJrk99cPjV8efVsCAACA4UGSJKkrldlKXe1+ZfR9CQAAQM8ZHiRJkrpU/uDjx65/VfSNCQAAQI8ZHiRJkjpWmR+rD1316ug7EwAAgJ4yPEiSJHWv6ST76BNH910ZfWsCAADQQ4YHSZKkbjYvsodPVje8JvreBAAAoGcMD5IkSd0tFfnH/MsHAAAAdpThQZIkqesNH/KD0wAAAOwYw4MkSVIPKvNjdbX7ldG3JwAAAD1geJAkSepHqcqX6+qmy6PvTwAAADrO8CBJktSfUpk/UB+67mXRNygAAAAdZniQJEnqW/l/q48PLo2+QwEAAOgow4MkSVIPK7P/WleDS6JvUQAAADrI8CBJktTXRkv10uDi6HsUAACAjjE8SJIk9bdpNfpAXQ92Rd+kAAAAdIjhQZIkqeeVo38XfZMCAADQIYYHSZIkzVZGd0bfpQAAAHSE4UGSJEmzIqtTMfzR6NsUAACADjA8SJIkaVZkdSqzs9Nq/O7o+xQAAICWMzxIkiTp2VKRPT0rhrdE36gAAAC0mOFBkiRJzy8V+ZlUZm+NvlMBAABoKcODJEmSXlwq8vlqkX9j9K0KAABACxkeJEmSdO7yz5+ZDN8Yfa8CAADQMoYHSZIkna9U5I+drPbvj75ZAQAAaBHDgyRJkl6ycvjJVO0eRt+tAAAAtIThQZIkSRcqldnxx49d/6ro2xUAAIAWMDxIkiRpPaVyVNRLt1wWfb8CAADQcIYHSZIkrbdU5b9c14OLom9YAAAAGszwIEmSpI01viP6hgUAAKDBDA+SJEnaaPNy+EPRdywAAAANZXiQJEnSRktF9vS03Pud0bcsAAAADWR4kCRJ0mZKRT4/VY3eHH3PAgAA0DCGB0mSJG26MvuztWp8XfRNCwAAQIMYHiRJkrSlyuEn6weHu6PvWgAAABrC8CBJkqStNi+yh+vjB18RfdsCAADQAIYHSZIkLabRUl0PLoq+bwEAAAhmeJAkSdLCqrJ/Fn3fAgAAEMzwIEmSpEWVyuxsKkbvir5xAQAACGR4kCRJ0iJLRX7mdDn85ug7FwAAgCCGB0mSJC2+/PNPFHu/IvrWBQAAIIDhQZIkSdvU752sbnhN9L0LAADADjM8SJIkabtKk/z+uhpcEn3zAgAAsIMMD5IkSdrO0iS/O/rmBQAAYAcZHiRJkrTdzcvhD0XfvQAAAOwQw4MkSZK2u1RkT68dGb4t+vYFAABgBxgeJEmStCOV+cm1Y/n10fcvAAAA28zwIEmSpB2rzD9xYvnKK6JvYAAAALaR4UGSJEk7Wjn873U92BV9BwMAALBNDA+SJEna+cZ3RN/BAAAAbBPDgyRJkna6VGZnVyfD746+hQEAANgGhgdJkiSFVGbT2bF9XxV9DwMAALBghgdJkiTFlf+fk9UNr4m+iQEAAFggw4MkSZIiS5P8/nppcHH0XQwAAMCCGB4kSZIU3mT0M9F3MQAAAAtieJAkSVJ0qczOzorhLdG3MQAAAAtgeJAkSVIjKrPpmcnwjdH3MQAAAFtkeJAkSVJzyn+/PnTVq6NvZAAAALbA8CBJkqQmlcrRB6NvZAAAALbA8CBJkqTGNcl/OPpOBgAAYJMMD5IkSWpaqRw9ubpyzTdE38oAAABsguFBkiRJTSwV+Z9Mq9e/NvpeBgAAYIMMD5IkSWpq0zL7SF0PdkXfzAAAAGyA4UGSJElNblqM/1H0zQwAAMAGGB4kSZLU5FKRPb1W5TdH380AAACsk+FBkiRJTS8V2Wfnh/fm0bczAAAA62B4kCRJUisqs5W6GlwSfT8DAABwAYYHSZIktah/Hn0/AwAAcAGGB0mSJLWlVGTPnC73vSX6hgYAAOAlGB4kSZLUplKRPzatXv/a6DsaAACA8zA8SJIkqW1Ni+xQXQ8uir6lAQAAOAfDgyRJklpZNX5P9C0NAADAORgeJEmS1MZSka+lav8N0fc0AAAAL2J4kCRJUot7pD5+8BXRNzUAAADPY3iQJElSq5tk90Tf1AAAADyP4UGSJEmtb5J/b/RdDQAAwBcZHiRJktT6yvzkyWr//ujbGgAAgIHhQZIkSR2pyo/W1eCS6PsaAACg9wwPkiRJ6krzavhT0fc1AABA7xkeJEmS1JVSmT11qtzz9dE3NgAAQK8ZHiRJktSpyvzj9UPjl0ff2QAAAL1leJAkSVLXSpP87ug7GwAAoLcMD5IkSepaqczOpmr8bdG3NgAAQC8ZHiRJktTFUpE/9sTRfVdG39sAAAC9Y3iQJElSV5sW2X+KvrcBAAB6x/AgSZKkTndk9D3RNzcAAECvGB4kSZLU7fLP18dfm0Xf3QAAAL1heJAkSVLXS2X+QF0PLoq+vQEAAHrB8CBJkqQ+NC+z26JvbwAAgF4wPEiSJKkXldns9AN7ro2+vwEAADrP8CBJkqS+lIpR6X+5BAAAsM0MD5IkSepT02r87ugbHAAAoNMMD5IkSepZp1aP5Huj73AAAIDOMjxIkiSpb03L7CPRdzgAAEBnGR4kSZLUx05X2V+PvsUBAAA6yfAgSZKkfpZ/vp5cvSf6HgcAAOgcw4MkSZL6WipHH4y+xwEAADrH8CBJkqQ+t3pk/Neib3IAAIBOMTxIkiSpz6Uy+0x9//iq6LscAACgMwwPkiRJ6nvTavSB6LscAACgMwwPkiRJUlanMntr9G0OAADQCYYHSZIkKaunZfbH9QN7viz6PgcAAGg9w4MkSZL0xVZGd0bf5wAAAK1neJAkSZK+UCqzp85Mrv2a6BsdAACg1QwPkiRJ0vOq8qN1Pbgo+k4HAABoLcODJEmS9MLmR/Lvj77TAQAAWsvwIEmSJL24/M9nD+y5OvpWBwAAaCXDgyRJkvSlTSfZL0Xf6gAAAK1keJAkSZLO3ely31ui73UAAIDWMTxIkiRJ5yv//bq66fLomx0AAKBVDA+SJEnS+ZtPhj8ZfbMDAAC0iuFBkiRJOn+pzE+fOnzgddF3OwAAQGsYHiRJkqSXLhX54ei7HQAAoDUMD5IkSdKFm6/k74i+3QEAAFrB8CBJkiStq0f90DQAAMA6GB4kSZKk9TWvRj8efb8DAAA0nuFBkiRJWl+pyOd1ce010Tc8AABAoxkeJEmSpPWXiuGvRN/wAAAAjWZ4kCRJkjbY8vim6DseAACgsQwPkiRJ0sZKZfa7dTW4JPqWBwAAaCTDgyRJkrSJqvF7om95AACARjI8SJIkSZuozE/UDw53R9/zAAAAjWN4kCRJkjbZJLsn+p4HAABoHMODJEmStLlSkT3z5HL+tdE3PQAAQKMYHiRJkqTNl6qsir7pAQAAGsXwIEmSJG2tebXn7dF3PQAAQGMYHiRJkqQtVuafqI8PLo2+7QEAABrB8CBJkiRtvXkx/MHo2x4AAKARDA+SJEnSAiqzPzuxfOUV0fc9AABAOMODJEmStKBWRndG3/cAAADhDA+SJEnSYkplfrourr0m+sYHAAAIZXiQJEmSFte0zO6NvvEBAABCGR4kSZKkxZXK7Oy82vuXou98AACAMIYHSZIkacGV2Ur0nQ8AABDG8CBJkiQtvvmR/Duib30AAIAQhgdJkiRpW/q9emlwcfS9DwAAsOMMD5IkSdL2lKrh90Xf+wAAADvO8CBJkiRtT9My++P60HUvi775AQAAdpThQZIkSdrGqvF7om9+AACAHWV4kCRJkravVGSfe/zY9a+KvvsBAAB2jOFBkiRJ2t6mK9k/jr77AQAAdozhQZIkSdrmyvxkff/4qujbHwAAYEcYHiRJkqQdaGV0Z/TtDwAAsCMMD5IkSdL2Ny+ylKrdw+j7HwAAYNsZHiRJkqSdKU3yu6PvfwAAgG1neJAkSZJ2plTkZ544uu9A9BsAAABgWxkeJEmSpJ1rXg7/Q/QbAAAAYFsZHiRJkqSdKxXZ06cOH3hd9DsAAABg2xgeJEmSpJ1tWo0+EP0OAAAA2DaGB0mSJGln868eAACATjM8SJIkSTvffDL8xei3AAAAwLYwPEiSJEk7XypHT55+YM+10e8BAACAhTM8SJIkSUGV+S9EvwcAAAAWzvAgSZIkxZTK0ZMnq/37o98EAAAAC2V4kCRJkkJ7f/SbAAAAYKEMD5IkSVJcqRw9WRfXXhP9LgAAAFgYw4MkSZIU27wa/3z0uwAAAGBhDA+SJElSbKnI1+pqNI5+GwAAACyE4UGSJEmKL03yu6PfBgAAAAtheJAkSZLiS2W+Wk+u3hP9PgAAANgyw4MkSZLUkFZGd0a/DwAAALbM8CBJkiQ1pdETJ5avvCL6jQAAALAlhgdJkiSpOa2Wox+JfiMAAABsieFBkiRJak6pyB+rl265LPqdAAAAsGmGB0mSJKlZpWr0N6LfCQAAAJtmeJAkSZIaVpl/vK4Hu6LfCgAAAJtieJAkSZKa1/xI/h3RbwUAAIBNMTxIkiRJzWtejn4z+q0AAACwKYYHSZIkqZlNl/fdGP1eAAAA2DDDgyRJktTM5sXovuj3AgAAwIYZHiRJkqRmlsrs7Kza89XRbwYAAIANMTxIkiRJzW1ejP5j9JsBAABgQwwPkiRJUnNLRb6Wqt3D6HcDAADAuhkeJEmSpGY3r4Y/Ff1uAAAAWDfDgyRJktTsUpF9rq5uujz67QAAALAuhgdJkiSp+aUjw1uj3w4AAADrYniQJEmSml8q8o9Fvx0AAADWxfAgSZIktaPpJPvL0e8HAACACzI8SJIkSS1pkv1q9PsBAADgggwPkiRJUjtKRfb06Qf2XBv9hgAAAHhJhgdJkiSpPU2r8c9GvyEAAABekuFBkiRJalFlfrKudr8y+h0BAABwXoYHSZIkqV3Ny+EPRb8jAAAAzsvwIEmSJLWsMv9EXQ8uin5LAAAAnJPhQZIkSWpfp8t9b4l+SwAAAJyT4UGSJElqY6Ol6LcEAADAORkeJEmSpPaVyuyp+eG9efR7AgAA4EsYHiRJkqR2Nq9GPx79ngAAAPgShgdJkiSpnaUi/5N6aXBx9JsCAADgBQwPkiRJUns7VY6+PfpNAQAA8AKGB0mSJKm9zYvhh6PfFAAAAC9geJAkSZLaWyqyZ+ri2mui3xUAAADPMTxIkiRJLW8y+pnodwUAAMBzDA+SJElSu0tl9pn6+ODS6LcFAADAYDAwPEiSJEldaLUcf1f02wIAAGAwGBgeJEmSpC6Uivxw9NsCAABgMBgYHiRJkqQulMrs7BPF3q+Ifl8AAAAYHiRJkqSu5EemAQCAJjA8SJIkSd0olfn/rZcGF0e/MQAAgJ4zPEiSJEndaa3Kb45+YwAAAD1neJAkSZK6U6ryX45+YwAAAD1neJAkSZK6Uyrz1ZPVDa+JfmcAAAA9ZniQJEmSutW8zG6LfmcAAAA9ZniQJEmSOtZk9BvR7wwAANscbwYAACAASURBVKDHDA+SJElS9zpz5JqvjH5rAAAAPWV4kCRJkrrXajG8K/qtAQAA9JThQZIkSepeqcw+U1eDS6LfGwAAQA8ZHiRJkqRutnZk+Lbo9wYAANBDhgdJkiSps30o+r0BAAD0kOFBkiRJ6mapyM/U94+vin5zAAAAPWN4kCRJkrrbdDL+geg3BwAA0DOGB0mSJKm7pXI4iX5zAAAAPWN4kCRJkrpbKrJn6ofGo+h3BwAA0COGB0mSJKnbrU6y90a/OwAAgB4xPEiSJEndbl6OfjP63QEAAPSI4UGSJEnqfqcOH3hd9NsDAADoCcODJEmS1P3mxegnot8eAABATxgeJEmSpB5U5h+PfnsAAAA9YXiQJEmS+lGq9t8Q/f4AAAB6wPAgSZIk9aPVleH7ot8fAABADxgeJEmSpH6UqvxTdT3YFf0GAQAAOs7wIEmSJPWn6fK+G6PfIAAAQMcZHiRJkqT+lCb53dFvEAAAoOMMD5IkSVJ/SkX+WF0PLop+hwAAAB1meJAkSZL61alyz9dHv0MAAIAOMzxIkiRJ/Wp1Zfi+6HcIAADQYYYHSZIkqV/Nq+wPo98hAABAhxkeJEmSpP6Vjo7eFP0WAQAAOsrwIEmSJPWwlfFPR79FAACAjjI8SJIkSf0rldnvRr9FAACAjjI8SJIkSf1sWu1/Q/R7BAAA6CDDgyRJktTPppPsn0S/RwAAgA4yPEiSJEn9LJXZ8ej3CAAA0EGGB0mSJKm/PXF034HoNwkAANAxhgdJkiSpv62Wox+JfpMAAAAdY3iQJEmS+luqsir6TQIAAHSM4UGSJEnqb6nMnjpZ3fCa6HcJAADQIYYHSZIkqedV+Tuj3yUAAECHGB4kSZKkfjcts3uj3yUAAECHGB4kSZKkvpf/eb00uDj6bQIAAHSE4UGSJEnSapF/Y/TbBAAA6AjDgyRJkqTZyujO6LcJAADQEYYHSZIkSakY/nb02wQAAOgIw4MkSZKkWZHVdXHtNdHvEwAAoAMMD5IkSZJmRVbPi+EPRr9PAACADjA8SJIkSZoVWT2fjH4t+n0CAAB0gOFBkiRJ0qzI6lTmq/Xxg6+IfqMAAAAtZ3iQJEmS9Gzzas/bo98oAABAyxkeJEmSJD3bvBj+m+g3CgAA0HKGB0mSJEnPVeYfj36jAAAALWd4kCRJkvT8Vo/ke6PfKQAAQIsZHiRJkiQ9v1TkfzP6nQIAALSY4UGSJEnS80tl/p+j3ykAAECLGR4kSZIkvaAyf7yuB7ui3yoAAEBLGR4kSZIkvbhU7b8h+q0CAAC0lOFBkiRJ0otLK/mPRb9VAACAljI8SJIkSXpxqcgPR79VAACAljI8SJIkSXpxqcxP1w+NXx79XgEAAFrI8CBJkiTpXK1V+c3R7xUAAKCFDA+SJEmSztXqyvB90e8VAACghQwPkiRJks5VKvKPRb9XAACAFjI8SJIkSTpXqcieqR9+w5dHv1kAAICWMTxIkiRJOl/Tcu93Rr9ZAACAljE8SJIkSTpf02L0c9FvFgAAoGUMD5IkSZLO17TI/mf0mwUAAGgZw4MkSZKk85XK7Kn60FWvjn63AAAALWJ4kCRJkvRSpWr8bdHvFgAAoEUMD5IkSZJespXRndHvFgAAoEUMD5IkSZJesio/Gv1uAQAAWsTwIEmSJOmlSkV+pj5+8BXRbxcAAKAlDA+SJEmSLtjy+KbotwsAANAShgdJkiRJF2o+Gf5k9NsFAABoCcODJEmSpAuVyuEk+u0CAAC0hOFBkiRJ0oVKRT6vl265LPr9AgAAtIDhQZIkSdJ6OlWN3hz9fgEAAFrA8CBJkiRpPa2ujP5+9PsFAABoAcODJEmSpPWUquF/iX6/AAAALWB4kCRJkrSe5mX2R9HvFwAAoAUMD5IkSZLWW6p2D6PfMAAAQMMZHiRJkiStt2m59zuj3zAAAEDDGR4kSZIkrbf5ZPQvot8wAABAwxkeJEmSJK23VI6K6DcMAADQcIYHSZIkSeuuzKb10uDi6HcMAADQYIYHSZIkSRvpzPL4L0S/YwAAgAYzPEiSJEnaSNNq/O7odwwAANBghgdJkiRJGyv/99HvGAAAoMEMD5IkSZI2Uiqz34l+xwAAAA1meJAkSZK0kVKRPVMfuurV0W8ZAACgoQwPkiRJkjba6XL4zdFvGQAAoKEMD5IkSZI22mqV/b3otwwAANBQhgdJkiRJG21ajT4Q/ZYBAAAayvAgSZIkaaOlYvjb0W8ZAACgoQwPkiRJkjZaKrOn6uqmy6PfMwAAQAMZHiRJkiRtpnmZHYx+zwAAAA1keJAkSZK0maaT8Q9Ev2cAAIAGMjxIkiRJ2kzzavzz0e8ZAACggQwPkiRJkjZVmR+Lfs8AAAANZHiQJEmStKnKbFbXg13RbxoAAKBhDA+SJEmSNtva0QOvj37TAAAADWN4kCRJkrTpqvyd0W8aAACgYQwPkiRJkjbbapX/y+g3DQAA0DCGB0mSJEmbLU3y+6PfNAAAQMMYHiRJkiRttlTln4p+0wAAAA1jeJAkSZK02VKZnT2xfOUV0e8aAACgQQwPkiRJkrbSqWr05uh3DQAA0CCGB0mSJElbaX4k//7odw0AANAghgdJkiRJW2lajX82+l0DAAA0iOFBkiRJ0laaltlHot81AABAgxgeJEmSJG2laZn9cfS7BgAAaBDDgyRJkqStlMrs7OPHrn9V9NsGAABoCMODJEmSpK02Xxl+XfTbBgAAaAjDgyRJkqStlqrh90W/bQAAgIYwPEiSJEnaaqvF8K7otw0AANAQhgdJkiRJW21eDD8c/bYBAAAawvAgSZIkaQE9Gv22AQAAGsLwIEmSJGmrpSJ7pn5o/PLo9w0AANAAhgdJkiRJi+jMZPjG6PcNAADQAIYHSZIkSYtofiT/juj3DQAA0ACGB0mSJEmLaLUc/Uj0+wYAAGgAw4MkSZKkhTQZ/dvo9w0AANAAhgdJkiRJiyhN8vuj3zcAAEADGB4kSZIkLaRy9AfR7xsAAKABDA+SJEmSFlEqs6fq44NLo984AABAMMODJEmSpEW1Vo2vi37jAAAAwQwPkiRJkhZVKrO3Rr9xAACAYIYHSZIkSQtrkv9w9BsHAAAIZniQJEmStKimZfavo984AABAMMODJEmSpEU1L4Yfjn7jAAAAwQwPkiRJkhbYI9FvHAAAIJjhQf+Pvbt71T0v6zj+Gy1MIgjKZu+196z7d9+/e233ZD4wBpalThpoQWT0IBapIUiKUmQIBoFRSlbSo9qQB0mWWahFFKSz19pjZg/0gELWgScGZWZZDWt2U4arf6CDDtZ1X9/rd73e8PojLj4HFwAAXJbz06M7FxfTXdl3jiRJkqTEDA8AAMBluvjQlSdk3zmSJEmSEjM8AAAAl+m/P7S5L/vOkSRJkpSY4QEAALhMD5/e863Zd44kSZKkxAwPAADApTq7/ursO0eSJElSYoYHAADgMt25feXN2XeOJEmSpMQMDwAAwGU6v3Xl3dl3jiRJkqTEDA8AAMClOj36cPadI0mSJCkxwwMAAHCZzm8dfTL7zpEkSZKUmOEBAAC4TOenVz938VvTY7NvHUmSJElJGR4AAIDLdvGR69eybx1JkiRJSRkeAACAy/YfZ9e+JvvWkSRJkpSU4QEAALh8V74z+9aRJEmSlJThAQAAuGx3Tq/9UPatI0mSJCkpwwMAAHDZHr599S3Zt44kSZKkpAwPAADAZTs/O3pX9q0jSZIkKSnDAwAAcNnObx19IPvWkSRJkpSU4QEAALhs57eufDT71pEkSZKUlOEBAAC4bOenVz+VfetIkiRJSsrwAAAAXLbzW1f/5+Jiekz2vSNJkiQpIcMDAAAQ4eJDV56Qfe9IkiRJSsjwAAAAhDi7+6uy7x1JkiRJCRkeAACAGHc/N/vekSRJkpSQ4QEAAIhw59Y9L86+dyRJkiQlZHgAAAAi3Hnw6g9k3zuSJEmSEjI8AAAAIW5fe2P2vSNJkiQpIcMDAAAQ4ZGzo3dk3zuSJEmSEjI8AAAAER65de33su8dSZIkSQkZHgAAgBAPXvuT7HtHkiRJUkKGBwAAIMTp0d9m3zuSJEmSEjI8AAAAEc5Pr34q+96RJEmSlJDhAQAAiHB+6+jR7HtHkiRJUkKGBwAAIMrF2f1flH3zSJIkSTpwhgcAACDK+dkTrmTfPJIkSZIOnOEBAACI8l8Pbe7NvnkkSZIkHTjDAwAAEOXO7c3XZt88kiRJkg6c4QEAAIjy6O0r35R980iSJEk6cIYHAAAgyp1b97w4++aRJEmSdOAMDwAAQJRHbl15ZfbNI0mSJOnAGR4AAIAoD9+++vrsm0eSJEnSgTM8AAAAUe7cvvLm7JtHkiRJ0oEzPAAAAGEevPpA9s0jSZIk6cAZHgAAgCjnZ1d+M/vmkSRJknTgDA8AAECY0yu/m33zSJIkSTpwhgcAACDK+dnRB7NvHkmSJEkHzvAAAACEOT36cPbNI0mSJOnAGR4AAIAo57eO/ir75pEkSZJ04AwPAABAmNOjv8u+eSRJkiQdOMMDAAAQ5fzW0Sezbx5JkiRJB87wAAAAhDk9+kz2zSNJkiTpwBkeAACAKOe3jh7JvnkkSZIkHTjDAwAAEOX89OrnLy6mu7LvHkmSJEkHzPAAAABEuvjI9cdn3z2SJEmSDpjhAQAAiHTxZze/LPvukSRJknTADA8AAECki7Nr17PvHkmSJEkHzPAAAABEevSPdjey7x5JkiRJB8zwAAAARDo/m5+WffdIkiRJOmCGBwAAINIjp1efnn33SJIkSTpghgcAACDSf5ze/Yzsu0eSJEnSATM8AAAAke7cOnpm9t0jSZIk6YAZHgAAgEgPP3j1Wdl3jyRJkqQDZngAAABCffD6/dl3jyRJkqQDZngAAAAiPXp29I3Zd48kSZKkA2Z4AAAAIp2fXn1+9t0jSZIk6YAZHgAAgEiPPnTlm7PvHkmSJEkHzPAAAABEeuT20bdk3z2SJEmSDpjhAQAAiPTw7avfln33SJIkSTpghgcAACDSnQevfEf23SNJkiTpgBkeAACAUGdHL8q+eyRJkiQdMMMDAAAQ6T/Prn5P9t0jSZIk6YAZHgAAgEjnD115SfbdI0mSJOmAGR4AAIBI52fXXpZ990iSJEk6YIYHAAAgkuFBkiRJapbhAQAAiGR4kCRJkppleAAAACIZHiRJkqRmGR4AAIBIhgdJkiSpWYYHAAAgkuFBkiRJapbhAQAAiGR4kCRJkppleAAAACIZHiRJkqRmGR4AAIBIhgdJkiSpWYYHAAAgkuFBkiRJapbhAQAAiGR4kCRJkppleAAAACIZHiRJkqRmGR4AAIBIhgdJkiSpWYYHAAAgkuFBkiRJapbhAQAAiGR4kCRJkppleAAAACIZHiRJkqRmGR4AAIBIhgdJkiSpWYYHAAAgkuFBkiRJapbhAQAAiGR4kCRJkppleAAAACIZHiRJkqRmGR4AAIBIhgdJkiSpWYYHAAAgkuFBkiRJapbhAQAAiGR4kCRJkppleAAAACIZHiRJkqRmGR4AAIBIhgdJkiSpWYYHAAAgkuFBkiRJapbhAQAAiGR4kCRJkppleAAAACIZHiRJkqRmGR4AAIBIhgdJkiSpWYYHAAAgkuFBkiRJapbhAQAAiGR4kCRJkppleAAAACIZHiRJkqRmGR4AAIBIhgdJkiSpWYYHAAAgkuFBkiRJapbhAQAAiGR4kCRJkppleAAAACIZHiRJkqRmGR4AAIBIhgdJkiSpWYYHAAAgkuFBkiRJapbhAQAAiGR4kCRJkppleAAAACIZHiRJkqRmGR4AAIBIhgdJkiSpWYYHAAAgkuFBkiRJapbhAQAAiGR4kCRJkppleAAAACIZHiRJkqRmGR4AAIBIhgdJkiSpWYYHAAAgkuFBkiRJapbhAQAAiGR4kCRJkppleAAAACIZHiRJkqRmGR4AAIBIhgdJkiSpWYYHAAAgkuFBkiRJapbhAQAAiGR4kCRJkppleAAAACIZHiRJkqRmGR4AAIBIhgdJkiSpWYYHAAAgkuFBkiRJapbhAQAAiGR4kCRJkppleAAAACIZHiRJkqRmGR4AAIBIhgdJkiSpWYYHAAAgkuFBkiRJapbhAQAAiGR4kCRJkppleAAAACIZHiRJkqRmGR4AAIBIhgdJkiSpWYYHAAAgkuFBkiRJapbhAQAAiGR4kCRJkppleAAAACIZHiRJkqRmGR4AAIBIhgdJkiSpWYYHAAAgkuFBkiRJapbhAQAAiGR4kCRJkppleAAAACIZHiRJkqRmGR4AAIBIhgdJkiSpWYYHAAAgkuFBkiRJapbhAQAAiGR4kCRJkppleAAAACIZHiRJkqRmGR4AAIBIhgdJkiSpWYYHAAAgkuFBkiRJapbhAQAAiGR4kCRJkppleAAAACIZHiRJkqRmGR4AAIBIhgdJkiSpWYYHAAAgkuFBkiRJapbhAQAAiGR4kCRJkppleAAAACIZHiRJkqRmGR4AAIBIhgdJkiSpWYYHAAAgkuFBkiRJapbhAQAAiGR4kCRJkppleAAAACIZHiRJkqRmGR4AAIBIhgdJkiSpWYYHAAAgkuFBkiRJapbhAQAAiGR4kCRJkppleAAAACIZHiRJkqRmGR4AAIBIhgdJkiSpWYYHAAAgkuFBkiRJapbhAQAAiGR4kCRJkppleAAAACIZHiRJkqRmGR4AAIBIhgdJkiSpWYYHAAAgkuFBkiRJapbhAQAAiGR4kCRJkppleAAAACIZHiRJkqRmGR4AAIBIhgdJkiSpWYYHAAAgkuFBkiRJapbhAQAAiGR4kCRJkppleAAAACIZHiRJkqRmGR4AAIBIhgdJkiSpWYYHAAAgkuFBkiRJapbhAQAAiGR4kCRJkppleAAAACIZHiRJkqRmGR4AAIBIhgdJkiSpWYYHAAAgkuFBkiRJapbhAQAAiGR4kCRJkppleAAAACIZHiRJkqRmGR4AAIBIhgdJkiSpWYYHAAAgkuFBkiRJapbhAQAAiGR4kCRJkppleAAAACIZHiRJkqRmGR4AAIBIhgdJkiSpWYYHAAAgkuFBkiRJapbhAQAAiGR4kCRJkppleAAAACIZHiRJkqRmGR4AAIBIhgdJkiSpWYYHAAAgkuFBkiRJapbhAQAAiGR4kCRJkppleAAAACIZHiRJkqRmGR4AAIBIhgdJkiSpWYYHAAAgkuFBkiRJapbhAQAAiGR4kCRJkppleAAAACIZHiRJkqRmGR4AAIBIhgdJkiSpWYYHAAAgkuFBkiRJapbhAQAAiGR4kCRJkppleAAAACIZHiRJkqRmGR4AAIBIhgdJkiSpWYYHAAAgkuFBkiRJapbhAQAAiGR4kCRJkppleAAAACIZHiRJkqRmGR4AAIBIhgdJkiSpWYYHAAAgkuFBkiRJapbhAQAAiGR4kCRJkppleAAAACIZHiRJkqRmGR4AAIBIhgdJkiSpWYYHAAAgkuFBkiRJapbhAQAAiGR4kCRJkppleAAAACIZHiRJkqRmGR4AAIBIhgdJkiSpWYYHAAAgkuFBkiRJapbhAQAAiGR4kCRJkppleAAAACIZHiRJkqRmGR4AAIBIhgdJkiSpWYYHAAAgkuFBkiRJapbhAQAAiGR4kCRJkppleAAAACIZHiRJkqRmGR4AAIBIhgdJkiSpWYYHAAAgkuFBkiRJapbhAQAAiGR4kCRJkppleAAAACIZHiRJkqRmGR4AAIBIhgdJkiSpWYYHAAAgkuFBkiRJapbhAQAAiGR4kCRJkppleAAAACIZHiRJkqRmGR4AAIBIhgdJkiSpWYYHAAAgkuFBkiRJapbhAQAAiGR4kCRJkppleAAAACIZHiRJkqRmGR4AAIBIhgdJkiSpWYYHAAAgkuFBkiRJapbhAQAAiGR4kCRJkppleAAAACIZHiRJkqRmGR4AAIBIhgdJkiSpWYYHAAAgkuFBkiRJapbhAQAAiGR4kCRJkppleAAAACIZHiRJkqRmGR4AAIBIhgdJkiSpWYYHAAAgkuFBkiRJapbhAQAAiGR4kCRJkppleAAAACIZHiRJkqRmGR4AAIBIhgdJkiSpWYYHAAAgkuFBkiRJapbhAQAAiGR4kCRJkppleAAAACIZHiRJkqRmGR4AAIBIhgdJkiSpWYYHAAAgkuFBkiRJapbhAQAAiGR4kCRJkppleAAAACIZHiRJkqRmGR4AAIBIhgdJkiSpWYYHAAAgkuFBkiRJapbhAQAAiGR4kCRJkppleAAAACIZHiRJkqRmGR4AAIBIhgdJkiSpWYYHAAAgkuFBkiRJapbhAQAAiGR4kCRJkppleAAAACIZHiRJkqRmGR4AAIBIhgdJkiSpWYYHAAAgkuFBkiRJapbhAQAAiGR4kCRJkppleAAAACIZHiRJkqRmGR4AAIBIhgdJkiSpWYYHAAAgkuFBkiRJapbhAQAAiGR4kCRJkppleAAAACIZHiRJkqRmGR4AAIBIhgdJkiSpWYYHAAAgkuFBkiRJapbhAQAAiGR4kCRJkppleAAAACIZHiRJkqRmGR4AAIBIhgdJkiSpWYYHAAAgkuFBkiRJapbhAQAAiGR4kCRJkppleAAAACIZHiRJkqRmGR4AAIBIhgdJkiSpWYYHAAAgkuFBkiRJapbhAQAAiGR4kCRJkppleAAAACIZHiRJkqRmGR4AAIBIhgdJkiSpWYYHAAAgkuFBkiRJapbhAQAAiGR4kCRJkppleAAAACIZHiRJkqRmGR4AAIBIhgdJkiSpWYYHAAAgkuFBkiRJapbhAQAAiGR4kCRJkppleAAAACIZHiRJkqRmGR4AAIBIhgdJkiSpWYYHAAAgkuFBkiRJapbhAQAAiGR4kCRJkppleAAAACIZHiRJkqRmGR4AAIBIhgdJkiSpWYYHAAAgkuFBkiRJapbhAQAAiGR4kCRJkppleAAAACIZHiRJkqRmGR4AAIBIhgdJkiSpWYYHAAAgkuFBkiRJapbhAQAAiGR4kCRJkppleAAAACIZHiRJkqRmGR4AAIBIhgdJkiSpWYYHAAAgkuFBkiRJapbhAQAAiGR4kCRJkppleAAAACIZHiRJkqRmGR4AAIBIhgdJkiSpWYYHAAAgkuFBkiRJapbhAQAAiGR4kCRJkppleAAAACIZHiRJkqRmGR4AAIBIhgdJkiSpWYYHAAAgkuFBkiRJapbhAQAAiGR4kCRJkppleAAAACIZHiRJkqRmGR4AAIBIhgdJkiSpWYYHAAAgkuFBkiRJapbhAQAAiGR4kCRJkppleAAAACIZHiRJkqRmGR4AAIBIhgdJkiSpWYYHAAAgkuFBkiRJapbhAQAAiGR4kCRJkppleAAAACIZHiRJkqRmGR4AAIBIhgdJkiSpWYYHAAAgkuFBkiRJapbhAQAAiGR4kCRJkppleAAAACIZHiRJkqRmGR4AAIBIhgdJkiSpWYYHAAAgkuFBkiRJapbhAQAAiGR4kCRJkppleAAAACIZHiRJkqRmGR4AAIBIhgdJkiSpWYYHAAAgkuFBkiRJapbhAQAAiGR4kCRJkppleAAAACIZHiRJkqRmGR4AAIBIhgdJkiSpWYYHAAAgkuFBkiRJapbhAQAAiGR4kCRJkppleAAAACIZHiRJkqRmGR4AAIBIhgdJkiSpWYYHAAAgkuFBkiRJapbhAQAAiGR4kCRJkppleAAAACIZHiRJkqRmGR4AAIBIhgdJkiSpWYYHAAAgkuFBkiRJapbhAQAAiGR4kCRJkppleAAAACIZHiRJkqRmGR4AAIBIhgdJkiSpWYYHAAAgkuFBkiRJapbhAQAAiGR4kCRJkppleAAAACIZHiRJkqRmGR4AAIBIhgdJkiSpWYYHAAAgkuFBkiRJapbhAQAAiGR4kCRJkppleAAAACIZHiRJkqRmGR4AAIBIhgdJkiSpWYYHAAAgkuFBkiRJapbhAQAAiGR4kCRJkppleAAAACIZHiRJkqRmGR4AAIBIhgdJkiSpWYYHAAAgkuFBkiRJapbhAQAAiGR4kCRJkppleAAAACIZHiRJkqRmGR4AAIBIhgdJkiSpWYYHAAAgkuFBkiRJapbhAQAAiGR4kCRJkppleAAAACIZHiRJkqRmGR4AAIBIhgdJkiSpWYYHAAAgkuFBkiRJapbhAQAAiGR4kCRJkppleAAAACIZHiRJkqRmGR4AAIBIhgdJkiSpWYYHAAAgkuFBkiRJapbhAQAAiGR4kCRJkppleAAAACIZHiRJkqRmGR4AAIBIhgdJkiSpWYYHAAAgkuFBkiRJapbhAQAAiGR4kCRJkppleAAAACIZHiRJkqRmGR4AAIBIhgdJkiSpWYYHAAAgkuFBkiRJapbhAQAAiGR4kCRJkppleAAAACIZHiRJkqRmGR4AAIBIhgdJkiSpWYYHAAAgkuFBkiRJapbhAQAAiGR4kCRJkppleAAAACIZHiRJkqRmGR4AAIBIhgdJkiSpWYYHAAAgkuFBkiRJapbhAQAAiGR4kCRJkppleAAAACIZHiRJkqRmGR4AAIBIhgdJkiSpWYYHAAAgkuFBkiRJapbhAQAAiGR4kCRJkppleAAAACIZHiRJkqRmGR4AAIBIhgdJkiSpWYYHAAAgkuFBkiRJapbhAQAAiGR4kCRJkppleAAAACIZHiRJkqRmGR4AAIBIhgdJkiSpWYYHAAAgkuFBkiRJapbhAQAAiGR4kCRJkppleAAAACIZHiRJkqRmGR4AAIBIhgdJkiSpWYYHAAAgkuFBkiRJapbhAQAAiGR4kCRJkppleAAAACIZHiRJkqRmGR4AAIBIhgdJkiSpWYYHAAAgkuFBkiRJapbhAQAAiGR4kCRJkppleAAAACIZHiRJkqRmGR4AAIBIhgdJkiSpWYYHAAAgkuFBkiRJapbhAQAAiGR4kCRJkppleAAAACIZHiRJkqRmGR4AAIBIhgdJkiSpWYYHAAAgkuFBkiRJxFyT4wAAIABJREFUapbhAQAAiGR4kCRJkppleAAAACIZHiRJkqRmGR4AAIBIhgdJkiSpWYYHAAAgkuFBkiRJapbhAQAAiGR4kCRJkppleAAAACIZHiRJkqRmGR4AAIBIhgdJkiSpWYYHAAAgkuFBkiRJapbhAQAAiGR4kCRJkppleAAAACIZHiRJkqRmGR4AAIBIhgdJkiSpWYYHAAAgkuFBkiRJapbhAQAAiGR4kCRJkppleAAAACIZHiRJkqRmGR4AAIBIhgdJkiSpWYYHAAAgkuFBkiRJapbhAQAAiGR4kCRJkppleAAAACIZHiRJkqRmGR4AAIBIhgdJkiSpWYYHAAAgkuFBkiRJatCNeX7pst0+sGy3D3z9ffN7X3j/8YcAAAAiPPedb37o6977K5+AUT3r1vve/eyz9/8qAEAF95+9/4XZG8P/2W6ze8eymS8AAACife273vrpZ/z6Wy9gVM/64Hsvnn36OwAAJdx/6/1vyN4Y/s+W7faB7OMDAADowfDA6AwPAEAlww4PJ/P8tuzjAwAA6MHwwOgMDwBAJcMOD/vN5hezjw8AAKAHwwOjMzwAAJUMOzwsu93PZR8fAABAD4YHRmd4AAAqGXZ42G+Xn8k+PgAAgB4MD4zO8AAAVDLs8LDsdm/OPj4AAIAeDA+MzvAAAFQy7PCwO57flH18AAAAPRgeGJ3hAQCoZNjhYdlsfjz7+AAAAHowPDA6wwMAUMmww8ON3e4N2ccHAADQg+GB0RkeAIBKhh0eTrbLj2YfHwAAQA+GB0ZneAAAKhl2eLix270++/gAAAB6MDwwOsMDAFDJsMPDyfH8uuzjAwAA6MHwwOgMDwBAJcMOD8tm89rs4wMAAOjB8MDoDA8AQCXDDg+73e4Hs48PAACgB8MDozM8AACVDDs8LMfLa7KPDwAAoAfDA6MzPAAAlQw7POw3m1dlHx8AAEAPhgdGZ3gAACoZdnhYjpdXZB8fAABAD4YHRmd4AAAqGXZ42G+3L88+PgAAgB4MD4zO8AAAVDLs8HCyLC/LPj4AAIAeDA+MzvAAAFQy7PCw22y+O/v4AAAAejA8MDrDAwBQybDDw43N5tuyjw8AAKAHwwOjMzwAAJUMOzzcnOfnZx8fAABAD4YHRmd4AAAqGXZ42N6zfVb28QEAAPRgeGB0hgcAoJJhh4fdPbuvzj4+AACAHgwPjM7wAABUMuzwsD8+/srs4wMAAOjB8MDoDA8AQCXDDg83b96cs48PAACgB8MDozM8AACVDDs8bLfbu7OPDwAAoAfDA6MzPAAAlQw7PDzxiU/8kuzjAwAA6MHwwOgMDwBAJcMOD9M0PTb7+AAAAHowPDA6wwMAUMnIw8O0n7f/lX2AAAAA62d4YHSGBwCgkqGHh2We/y37AAEAANbP8MDoDA8AQCVDDw/7zfwP2QcIAACwfoYHRmd4AAAqGX14+ET2AQIAAKyf4YHRGR4AgEqGHh6W7fZj2QcIAACwfoYHRmd4AAAqGXp42M3bP80+QAAAgPUzPDA6wwMAUMnQw8N+ns+yDxAAAGD9DA+MzvAAAFQy9PCwzPPvZx8gAADA+hkeGJ3hAQCoZOjhYbfZ/Hb2AQIAAKyf4YHRGR4AgEqGHh722+07sw8QAABg/QwPjM7wAABUMvTwsBzPb88+QAAAgPUzPDA6wwMAUMnQw8ON3e4nsw8QAABg/QwPjM7wAABUMvrw8PrsAwQAAFg/wwOjMzwAAJUMPTzsdrtXZh8gAADA+hkeGJ3hAQCoZPTh4cXZBwgAALB+hgdGZ3gAACoZenhYluUF2QcIAACwfoYHRmd4AAAqGXp42O/3X5N9gAAAAOtneGB0hgcAoJKhh4cbN27czD5AAACA9TM8MDrDAwBQydDDw5Oe9KQr2QcIAACwfoYHRmd4AAAqGXp42O/3j8s+QAAAgPUzPDA6wwMAUMnQw8M0TdMyz/+ZfYQAAADrZnhgdIYHAKCSCsPDp7KPEAAAYN0MD4zO8AAAVDL88LCf549nHyEAAMC6GR4YneEBAKikwvDwkewjBAAAWDfDA6MzPAAAlQw/PCzz/AfZRwgAALBuhgdGZ3gAACqpMDz8RvYRAgAArJvhgdEZHgCASoYfHk7m+W3ZRwgAALBuhgdGZ3gAACoZfnjYb5c3Zh8hAADAuhkeGJ3hAQCoZPjh4eR4fl32EQIAAKyb4YHRGR4AgEqGHx6W4+UV2UcIAACwboYHRmd4AAAqGX54eOJ2/13ZRwgAALBuhgdGZ3gAACoZfnjYHR8/L/sIAQAA1s3wwOgMDwBAJcMPD/cu935V9hECAACsm+GB0RkeAIBKhh8e9vv9E7KPEAAAYN0MD4zO8AAAVDL88DBN02P2m83nsg8RAABgvQwPjM7wAABUUmF4mJZ5+0/ZhwgAALBehgdGZ3gAACqpMjx8NPsQAQAA1svwwOgMDwBAJSWGh5Pt9gPZhwgAALBehgdGZ3gAACopMTzsNptfyz5EAACA9TI8MDrDAwBQSY3hYbt7S/YhAgAArJfhgdEZHgCASkoMDyfH8+uyDxEAAGC9DA+MzvAAAFRSYni4Mc8vzT5EAACA9TI8MDrDAwBQSYnhYVmWF2QfIgAAwHoZHhid4QEAqKTE8HDvfn9f9iECAACsl+GB0RkeAIBKSgwPT71+/Vr2IQIAAKyX4YHRGR4AgEpKDA9Pf/rTv3DZzJ/PPkYAAIB1MjwwOsMDAFBJieFhmqbpZDP/a/YxAgAArJPhgdEZHgCASsoMD/t5/nj2MQIAAKyT4YHRGR4AgEoqDQ9n2ccIAACwToYHRmd4AAAqqTM8bLfvyT5GAACAdTI8MDrDAwBQSZnh4WSz+YXsYwQAAFgnwwOjMzwAAJWUGR5ubDY/kn2MAAAA62R4YHSGBwCgkjLDw7JdXpJ9jAAAAOtkeGB0hgcAoJI6w8Nm8w3ZxwgAALBOhgdGZ3gAACopMzzs77lnyT5GAACAdTI8MDrDAwBQSZ3hYb9/3LKZP599kAAAAOtjeGB0hgcAoJIyw8M0TdMybz+dfZAAAADrY3hgdIYHAKCSWsPDZvcX2QcJAACwPoYHRmd4AAAqqTU8zPP7sg8SAABgfQwPjM7wAABUUmt42G5/PvsgAQAA1sfwwOgMDwBAJcWGh+WHsw8SAABgfQwPjM7wAABUUmt4mOcXZR8kAADA+hgeGJ3hAQCopNbwsCzPzD5IAACA9TE8MDrDAwBQSanhYX9tfz37IAEAANbH8MDoDA8AQCWlhodpmh6732w+l32UAAAA62J4YHSGBwCgkmrDw7Q/3v599lECAACsi+GB0RkeAIBK6g0Pm/mPs48SAABgXQwPjM7wAABUUm54WOb53dlHCQAAsC6GB0ZneAAAKqk3PGw2P5V9lAAAAOtieGB0hgcAoJJ6w8Px8prsowQAAFgXwwOjMzwAAJXUGx6W5YXZRwkAALAuhgdGZ3gAACopNzzcu9/fl32UAAAA62J4YHSGBwCgknLDw9Oe9rQvzT5KAACAdTE8MDrDAwBQSbnhYZqmab+Z/yX7MAEAANbD8MDoDA8AQCUlh4fdvP3T7MMEAABYD8MDozM8AACVlBweTja7d2UfJgAAwHoYHhid4QEAqKTk8HBjt3tD9mECAACsh+GB0RkeAIBKag4Px/vvzT5MAACA9TA8MDrDAwBQScnhYVmWZ2YfJgAAwHoYHhid4QEAqKTk8PCUpzzlK7IPEwAAYD0MD4zO8AAAVFJyeJimaVrm7b9nHycAAMA6GB4YneEBAKik7PCw38x/mX2cAAAA62B4YHSGBwCgkrrDw3b7nuzjBAAAWAfDA6MzPAAAlZQdHnbH85uyjxMAAGAdDA+MzvAAAFRSdnjYb7cvzz5OAACAdTA8MDrDAwBQSd3hYZ6fk32cAAAA62B4YHSGBwCgkrLDw1OvX7+WfZwAAADrYHhgdIYHAKCSssPDNE137TbzefaBAgAA1Gd4YHSGBwCgksrDw7Rstx/LPlAAAID6DA+MzvAAAFRSe3iY5/dlHygAAEB9hgdGZ3gAACopPTycbDY/nX2gAAAA9RkeGJ3hAQCopPTwsBwvr8g+UAAAgPoMD4zO8AAAVFJ6eDg5OXl29oECAADUZ3hgdIYHAKCS0sPDzZs3vyz7QAEAAOozPDA6wwMAUEnp4WGapmmZt5/OPlIAAIDaDA+MzvAAAFRSfnjYz/Np9pECAADUZnhgdIYHAKCS8sPDbrP7pewjBQAAqM3wwOgMDwBAJeWHh/1m86rsIwUAAKjN8MDoDA8AQCXlh4eb+/392UcKAABQm+GB0RkeAIBKyg8PN27c+PLsIwUAAKjN8MDoDA8AQCXlh4dpmqb9vP3n7EMFAACoy/DA6AwPAEAlaxkebmcfKgAAQF2GB0ZneAAAKlnF8LDb7t6afagAAAB1GR4YneEBAKhkFcPDst2+OvtQAQAA6jI8MDrDAwBQyTqGh83mG7IPFQAAoC7DA6MzPAAAlaxieNhut3dnHyoAAEBdhgdGZ3gAACpZxfAwTdO032w+k32sAAAANRkeGJ3hAQCoZDXDw+54+1D2sQIAANRkeGB0hgcAoJLVDA/L8fz27GMFAACoyfDA6AwPAEAlKxoeltdkHysAAEBNhgdGZ3gAACpZzfCwOz5+XvaxAgAA1GR4YHSGBwCgktUMD9vt9u7sYwUAAKjJ8MDoDA8AQCWrGR6maZqWzfyP2QcLAABQj+GB0RkeAIBK1jU8zPPvZx8sAABAPYYHRmd4AAAqWdXwcLJdfiL7YAEAAOoxPDA6wwMAUMm6hofd7tuzDxYAAKAewwOjMzwAAJWsanh48vHxLvtgAQAA6jE8MDrDAwBQyaqGh2ma7lo282ezjxYAAKAWwwOjMzwAAJWsbXiY9vP2dvbRAgAA1GJ4YHSGBwCgktUNDyfH889mHy0AAEAthgdGZ3gAACpZ3fCwbJeXZB8tAABALYYHRmd4AAAqWd3wsLu+e3L20QIAANRieGB0hgcAoJLVDQ9vmKYvWDbznezDBQAAqMPwwOgMDwBAJasbHqZpmpbt9s+zDxcAAKAOwwOjMzwAAJWsdXh4IPtwAQAA6jA8MDrDAwBQySqHh91u9/3ZhwsAAFCH4YHRGR4AgEpWOTyczPMzsg8XAACgDsMDozM8AACVrHJ4uH79+uP3m83nso8XAACgBsMDozM8AACVrHJ4mKZp2m/mv8k+XgAAgBoMD4zO8AAAVLLa4eFks3tX9vECAADUYHhgdIYHAKCS1Q4Py2bz2uzjBQAAqMHwwOgMDwBAJasdHvbz/Jzs4wUAAKjB8MDoDA8AQCWrHR6ecvfdX+zBNAAA8P9heGB0hgcAoJLVDg/TNE27ef7r7AMGAAAYn+GB0RkeAIBKVj08LMe7X84+YAAAgPEZHhid4QEAqGTVw8Nut/u+7AMGAAAYn+GB0RkeAIBKVj08nGw292YfMAAAwPgMD4zO8AAAVLLq4WGapruWzfzZ7CMGAAAYm+GB0RkeAIBK1j48TLvj7R9mHzEAAMDYDA+MzvAAAFSy+uHhxm73Y//L3r3/Wr7f9X1fc87xhYuN49sx9Z71+Xy/n+9ae48Hj4du0opUdSZAUykNDgSGJEhx6iBRGtRYiRBWW0GP2rS1EolGEW0CEheVtpQmUAUUkjiERJAmXMMtONSYgnFMMWAw4Et9OaP+YIPtc87M7Jm9136/32s9XtLjj3h/nlrrG33EAAAAuQkPZCc8AACV7H14mFv7Y9FHDAAAkJvwQHbCAwBQyd6Hh6OjoxeO1u9EHzIAAEBewgPZCQ8AQCV7Hx5Wq9VqrKe3RB8yAABAXsID2QkPAEAlBxEeltb+5+hDBgAAyEt4IDvhAQCo5CDCw3aavjL6kAEAAPISHshOeAAAKjmI8DDW69PoQwYAAMhLeCA74QEAqOQgwsPp6emzRuvvjT5mAACAnIQHshMeAIBKDiI8rFar1WjtB6OPGQAAICfhgeyEBwCgkoMJD5vW/lr0MQMAAOQkPJCd8AAAVHIw4WFZT18cfcwAAAA5CQ9kJzwAAJUcTnh4+XIUfcwAAAA5CQ9kJzwAAJUcTHhYrVar0fsvRh80AABAPsID2QkPAEAlhxUe1tO3Rh80AABAPsID2QkPAEAlBxUeltb+fPRBAwAA5CM8kJ3wAABUclDhYRyNJfqgAQAA8hEeyE54AAAqOajwsFqtVkvr/yb6qAEAAHIRHshOeAAAKjm48DB6/9+ijxoAACAX4YHshAcAoJKDCw/zPH9F9FEDAADkIjyQnfAAAFRycOFhWa9fEX3UAAAAuQgPZCc8AACVHFx4WK1WV0af3hl92AAAAHkID2QnPAAAlRxieFht2vx3og8bAAAgD+GB7IQHAKCSwwwP6/4Xow8bAAAgD+GB7IQHAKCSwwwPm83N6MMGAADIQ3ggO+EBAKjkIMPDarV6ZNP6u6KPGwAAIAfhgeyEBwCgkkMND6t5mr47+rgBAAByEB7ITngAACo52PAwpvFV0ccNAACQg/BAdsIDAFDJwYaH7bz9g9HHDQAAkIPwQHbCAwBQycGGhydWq8eWPv1O9IEDAADEEx7ITngAACo52PCwWq1Wy3r6B9EHDgAAEE94IDvhAQCo5KDDw3ae//PoAwcAAIgnPJCd8AAAVHLQ4WHT+78bfeAAAADxhAeyEx4AgEoOOjysVqtHN62/K/rIAQAAYgkPZCc8AACVHHp4WI3evzP6yAEAAGIJD2QnPAAAlRx8eJjn+SuijxwAACCW8EB2wgMAUMnBh4eTk5MefeQAAACxhAeyEx4AgEoOPjysVqvV0vovRB86AABAHOGB7IQHAKAS4WG1Wo31/LeiDx0AACCO8EB2wgMAUInwsFqtNvP8RdGHDgAAEEd4IDvhAQCoRHhYrVY3b958wWj9w9HHDgAAEEN4IDvhAQCoRHj46OY+/VD0sQMAAMQQHshOeAAAKhEePrrR2n8dfewAAAAxhAeyEx4AgEqEh49uujr9+9HHDgAAEEN4IDvhAQCoRHj46J5YrR5b+vTb0QcPAABw+YQHshMeAIBKhIeP26a174k+eAAAgMsnPJCd8AAAVCI8fNw26/4Xow8eAADg8gkPZCc8AACVCA8ft+12exJ98AAAAJdPeCA74QEAqER4eMqW9fTL0UcPAABwuYQHshMeAIBKhIenbNP7N0cfPQAAwOUSHshOeAAAKhEenrJ5nv9M9NEDAABcLuGB7IQHAKAS4eEpOzk5edFo/cPRhw8AAHB5hAeyEx4AgEqEh2fYaO0How8fAADg8ggPZCc8AACVCA/PsHnd3xB9+AAAAJdHeCA74QEAqER4eIa9YlmuRx8+AADA5REeyE54AAAqER7usqX1t0YfPwAAwOUQHshOeAAAKhEe7rJNa38j+vgBAAAuh/BAdsIDAFCJ8HCXLcvyR6OPHwAA4HIID2QnPAAAlQgPd9nt27efvfTpd6IPIAAAYPeEB7ITHgCASoSHe2z0/p3RBxAAALB7wgPZCQ8AQCXCwz22tPbnow8gAABg94QHshMeAIBKhId77MaNGy8drT8ZfQQBAAC7JTyQnfAAAFQiPNxnc59+KPoIAgAAdkt4IDvhAQCoRHi4zzbT+JroIwgAANgt4YHshAcAoBLh4T5bWvvM6CMIAADYLeGB7IQHAKAS4eH+u7K09vboQwgAANgd4YHshAcAoBLh4Qwb6/43ow8hAABgd4QHshMeAIBKhIczbLPe/PHoQwgAANgd4YHshAcAoBLh4Qw7Ojr6pNH6e6OPIQAAYDeEB7ITHgCASoSHM27T2vdEH0MAAMBuCA9kJzwAAJUID2fcMk1fFn0MAQAAuyE8kJ3wAABUIjyccScnJy9aWvtQ9EEEAABcPOGB7IQHAKAS4eEBNlr/x9EHEQAAcPGEB7ITHgCASoSHB9jS2l+IPogAAICLJzyQnfAAAFQiPDzArl+//rLR+pPRRxEAAHCxhAeyEx4AgEqEhwfcaPM/iz6KAACAiyU8kJ3wAABUIjw84JZ5/kvRRxEAAHCxhAeyEx4AgEqEhwfc8vLlaLR+J/owAgAALo7wQHbCAwBQifDwEBvT9CPRhxEAAHBxhAeyEx4AgEqEh4fYvO5viD6MAACAiyM8kJ3wAABUIjw8xF65Xs/RhxEAAHBxhAeyEx4AgEqEh4fc6NNPRR9HAADAxRAeyE54AAAqER4ecvO6f230cQQAAFwM4YHshAcAoBLh4SH3imW5Hn0cAQAAF0N4IDvhAQCoRHg4x5be3xx9IAEAAOcnPJCd8AAAVCI8nGObafyV6AMJAAA4P+GB7IQHAKAS4eEcW1r7zOgDCQAAOD/hgeyEBwCgEuHhnFtaf2v0kQQAAJyP8EB2wgMAUInwcM6N1v5q9JEEAACcj/BAdsIDAFCJ8HDOjfX6NPpIAgAAzkd4IDvhAQCoRHi4gC2t/2z0oQQAADw84YHshAcAoBLh4QI2r/vXRh9KAADAwxMeyE54AAAqER4uYMvVq2O0fif6WAIAAB6O8EB2wgMAUInwcEHbrKcfjj6WAACAhyM8kJ3wAABUIjxc0ObeXx99LAEAAA9HeCA74QEAqER4uKDduHHjpUtrH4o+mAAAgAcnPJCd8AAAVCI8XOA20/Sm6IMJAAB4cMID2QkPAEAlwsMFbp7n10UfTAAAwIMTHshOeAAAKhEeLnDLsjx/tP6+6KMJAAB4MMID2QkPAEAlwsMFb27tb0cfTQAAwIMRHshOeAAAKhEeLnhza38y+mgCAAAejPBAdsIDAFCJ8HDBW5blOaP334o+nAAAgLMTHshOeAAAKhEedrBN798UfTgBAABnJzyQnfAAAFQiPOxg83r9udGHEwAAcHbCA9kJDwBAJcLDbvbI0vq/iT6eAACAsxEeyE54AAAqER52tLn3r4s+ngAAgLMRHshOeAAAKhEedrT56vxZ0ccTAABwNsID2QkPAEAlwsMOt/T+5ugDCgAAuD/hgeyEBwCgEuFhh9us+1dHH1AAAMD9CQ9kJzwAAJUIDzvcNE2PL336YPQRBQAA3JvwQHbCAwBQifCw421a+57oIwoAALg34YHshAcAoBLhYcebW/uT0UcUAABwb8ID2QkPAEAlwsOOd3p6+qylT78WfUgBAAB3JzyQnfAAAFQiPFzC5t6/LvqQAgAA7k54IDvhAQCoRHi4hF0b1z4j+pACAADuTnggO+EBAKhEeLikjdZ+NPqYAgAAnpnwQHbCAwBQifBwSVta+wvRxxQAAPDMhAeyEx4AgEqEh0vaPM+fNlp/X/RBBQAAPJ3wQHbCAwBQifBwiRu9f3v0QQUAADyd8EB2wgMAUInwcIlbluWPRh9UAADA0wkPZCc8AACVCA+Xu0dGn94WfVQBAACfSHggO+EBAKhEeLjkjdb+m+ijCgAA+ETCA9kJDwBAJcLDJe/G8fE0Wr8TfVgBAAAfIzyQnfAAAFQiPARs6dM/jT6sAACAjxEeyE54AAAqER4Ctu39z0UfVgAAwMcID2QnPAAAlQgPAbvx+OOfMvr07ujjCgAA+AjhgeyEBwCgEuEhaHObvz76uAIAAD5CeCA74QEAqER4CNqmtWvDR6YBACAF4YHshAcAoBLhIXCjtR+MPrAAAADhgfyEBwCgEuEhcHNrXxp9YAEAAMID+QkPAEAlwkPgbt++/ezRp3dGH1kAAHDohAeyEx4AgEqEh+Bt5/mN0UcWAAAcOuGB7IQHAKAS4SF4r1yv59H6k9GHFgAAHDLhgeyEBwCgEuEhwZbe/370oQUAAIdMeCA74QEAqER4SLDjq8trog8tAAA4ZMID2QkPAEAlwkOOPTr69EvRxxYAABwq4YHshAcAoBLhIck20/ia6GMLAAAOlfBAdsIDAFCJ8JBk169ff9nSpw9GH1wAAHCIhAeyEx4AgEqEh0SbW/vb0QcXAAAcIuGB7IQHAKAS4SHR5vX6c6MPLgAAOETCA9kJDwBAJcJDrl0Zffq56KMLAAAOjfBAdsIDAFCJ8JBsyzz/peijCwAADo3wQHbCAwBQifCQbDdv3nzBaP290YcXAAAcEuGB7IQHAKAS4SHhNr1/c/ThBQAAh0R4IDvhAQCoRHhIuPlofuVo/U708QUAAIdCeCA74QEAqER4SLql938SfXwBAMChEB7ITngAACoRHpJujPEF0ccXAAAcCuGB7IQHAKAS4SHvHllaf2v0AQYAAIdAeCA74QEAqER4SLy599dHH2AAAHAIhAeyEx4AgEqEh8Q7Pj5+3ujTu6OPMAAA2HfCA9kJDwBAJcJD8s29f130EQYAAPtOeCA74QEAqER4SL6Tk5M+Wv9w9CEGAAD7THggO+EBAKhEeCiw0ft3RR9iAACwz4QHshMeAIBKhIcCW3r/w9GHGAAA7DPhgeyEBwCgEuGhyEZrPxp9jAEAwL4SHshOeAAAKhEeimxM47XRxxgAAOwr4YHshAcAoBLhochu37797NH6r0QfZAAAsI+EB7ITHgCASoSHQpvX/WujDzIAANhHwgPZCQ8AQCXCQ6Ety/KS0fv7o48yAADYN8ID2QkPAEAlwkOxbXr/puijDAAA9o3wQHbCAwBQifBQbNfGtc8Yrd+JPswAAGCfCA9kJzwAAJUIDwU32vx90YcZAADsE+GB7IQHAKAS4aHgpmn6D6IPMwAA2CfCA9kJDwBAJcJD0Y02/1j0cQYAAPtCeCA74QEAqER4KLrjafmS6OMMAAD2hfBAdsIDAFCJ8FB3j4719JboAw0AAPaB8EB2wgMAUInwUHhjPb48+kADAIB9IDyQnfAAAFQiPBTesizPWVp/R/SRBgAA1QkPZCc8AACVCA/FN6/7G6KPNAAAqE54IDvhAQCoRHgovmVZnj96/63oQw0AACoTHshOeAAAKhEe9mDbdf/vow81AACoTHggO+EBAKhEeNiDTdP0+Gj9fdHHGgAAVCU8kJ3wAABUIjwLzKPLAAAgAElEQVTsyca6/83oYw0AAKoSHshOeAAAKhEe9mSvXK/npbUPRR9sAABQkfBAdsIDAFCJ8LBHW9bT/x59sAEAQEXCA9kJDwBAJcLDHm273b5qtH4n+mgDAIBqhAeyEx4AgEqEhz3bvJ7+YfTRBgAA1QgPZCc8AACVCA97tuMxPif6aAMAgGqEB7ITHgCASoSHPdzS+z+PPtwAAKAS4YHshAcAoBLhYQ93fHV5TfThBgAAlQgPZCc8AACVCA/7uSujtR+NPt4AAKAK4YHshAcAoBLhYU83xviC6OMNAACqEB7ITngAACoRHvZ3fvUAAABnJDyQnfAAAFQiPOzxtq19YfQBBwAAFQgPZCc8AACVCA/7vSubPv1k9BEHAADZCQ9kJzwAAJUID3u+zTx/UfQRBwAA2QkPZCc8AACVCA/7P796AACA+xAeyE54AAAqER4OYMt6+uLoQw4AADITHshOeAAAKhEeDmNXRp9+KvqYAwCArIQHshMeAIBKhIcD2bKebkcfcwAAkJXwQHbCAwBQifBwOPOrBwAAuAvhgeyEBwCgEuHhgHY8LV8SfdABAEBGwgPZCQ8AQCXCw2HtkTFNPx191AEAQDbCA9kJDwBAJcLDgW30/qeijzoAAMhGeCA74QEAqER4OLw9Mlr7mejDDgAAMhEeyE54AAAqER4OcPM8/5noww4AADIRHshOeAAAKhEeDnOPLK3/q+jjDgAAshAeyE54AAAqER4OdNvWvjD6uAMAgCyEB7ITHgCASoSHA97S+z+PPvAAACAD4YHshAcAoBLh4YC32WxeHX3gAQBABsID2QkPAEAlwsOBbzNNb4o+8gAAIJrwQHbCAwBQifBw4Bvr9elo/U70oQcAAJGEB7ITHgCASoQHW23a/HeiDz0AAIgkPJCd8AAAVCI82Ork5GS7tPah6GMPAACiCA9kJzwAAJUID7ZarVarTe/fFH3sAQBAFOGB7IQHAKAS4cFWq9Vq9aqjo5eP1t8XffABAEAE4YHshAcAoBLhwX5/c+9fF33wAQBABOGB7IQHAKAS4cF+f9vt9sVLn347+ugDAIDLJjyQnfAAAFQiPNgnbDvPT0QffQAAcNmEB7ITHgCASoQH+4TdesmtTx19emf04QcAAJdJeCA74QEAqER4sKdt29pfjj78AADgMgkPZCc8AACVCA/2tN26deu5o09viz7+AADgsggPZCc8AACVCA/2jFum6cuijz8AALgswgPZCQ8AQCXCgz3jnlitHtv0/q+jD0AAALgMwgPZCQ8AQCXCg911yzR9fvQBCAAAl0F4IDvhAQCoRHiwe24zTW+KPgIBAGDXhAeyEx4AgEqEB7vnttvtq0brT0YfggAAsEvCA9kJDwBAJcKD3Xeb3r85+hAEAIBdEh7ITngAACoRHuy+O7569d+aW39P9DEIAAC7IjyQnfAAAFQiPNiZtp3nJ6KPQQAA2BXhgeyEBwCgEuHBzrSjo6NPWtbTL0cfhAAAsAvCA9kJDwBAJcKDnXnzPL8u+iAEAIBdEB7ITngAACoRHuxB9sho849FH4UAAHDRhAeyEx4AgEqEB3ugnSzLreijEAAALprwQHbCAwBQifBgD7xNa98TfRgCAMBFEh7ITngAACoRHuyBd3x8fLz06YPRxyEAAFwU4YHshAcAoBLhwR5qc5u/Pvo4BACAiyI8kJ3wAABUIjzYQ2273b549Ond0QciAABcBOGB7IQHAKAS4cEeept1/+roAxEAAC6C8EB2wgMAUInwYA+927dvP3tp/a3RRyIAAJyX8EB2wgMAUInwYOfa8bR8SfSRCAAA5yU8kJ3wAABUIjzYubf0/v3RhyIAAJyH8EB2wgMAUInwYOfesl6/YunTB6OPRQAAeFjCA9kJDwBAJcKDXcjGPP/16GMRAAAelvBAdsIDAFCJ8GAXsmVZnj9a/5XogxEAAB6G8EB2wgMAUInwYBe2eZ5fF30wAgDAwxAeyE54AAAqER7sIndl6f1fRB+NAADwoIQHshMeAIBKhAe70F1bln97tP7h6MMRAAAehPBAdsIDAFCJ8GAXvjFN3xB9OAIAwIMQHshOeAAAKhEe7MJ3dHT0wqX134g+HgEA4KyEB7ITHgCASoQH28m20/SV0ccjAACclfBAdsIDAFCJ8GC72qNz7z8RfUACAMBZCA9kJzwAAJUID7azjTH+0Gj9TvQRCQAA9yM8kJ3wAABUIjzYTje39m3RRyQAANyP8EB2wgMAUInwYDvdNE2Pjz69O/qQBACAexEeyE54AAAqER5s5xvT+KroQxIAAO5FeCA74QEAqER4sJ3vidXqsdHaz0QfkwAAcDfCA9kJDwBAJcKDXcpGa39k+NA0AABJCQ9kJzwAAJUID3ZpG+vpW6MPSgAAeCbCA9kJDwBAJcKDXdpOTk5etPTp16KPSgAAeCrhgeyEBwCgEuHBLnXzPL8u+qgEAICnEh7ITngAACoRHuyyd2W0/o+jD0sAAPh4wgPZCQ8AQCXCg136Tk5OtqP390cflwAA8HuEB7ITHgCASoQHC9l2np+IPi4BAOD3CA9kJzwAAJUIDxayZVmes/T+5ugDEwAARhMeyE94AAAqER4sbJvN5tWj9TvRRyYAAAgPZCc8AACVCA8WurHu3xJ9ZAIAgPBAdsIDAFCJ8GChOzk5edHSp1+LPjQBADhswgPZCQ8AQCXCg4VvM8Z/HH1oAgBw2IQHshMeAIBKhAfLsCujzd8XfWwCAHC4hAeyEx4AgEqEB0uxeZ43o/f3Rx+cAAAcJuGB7IQHAKAS4cHSbF73/yr64AQA4DAJD2QnPAAAlQgPlma3b99+9tL7m6OPTgAADo/wQHbCAwBQifBgqbbZbF49Wn8y+vAEAOCwCA9kJzwAAJUID5Zuc5u/PvrwBADgsAgPZCc8AACVCA+Wbjcef/xTltbfGn18AgBwOIQHshMeAIBKhAdLueMxPme0fif6AAUA4DAID2QnPAAAlQgPlnZLa98YfYACAHAYhAeyEx4AgEqEB0u7ZVmeP/r0tugjFACA/Sc8kJ3wAABUIjxY6m3X288b/nIJAIAdEx7ITngAACoRHiz9xrp/S/QhCgDAfhMeyE54AAAqER4s/eZ5/rSltbdHH6MAAOwv4YHshAcAoBLhwUpsnuf/KPoYBQBgfwkPZCc8AACVCA9WZps2/y/RBykAAPtJeCA74QEAqER4sDI7OTl50ejTr0YfpQAA7B/hgeyEBwCgEuHBSu346vKa6KMUAID9IzyQnfAAAFQiPFi5LdP0f0QfpgAA7BfhgeyEBwCgEuHBym273b549Omd0ccpAAD7Q3ggO+EBAKhEeLCS247xp6OPUwAA9ofwQHbCAwBQifBgZTd6/67oAxUAgP0gPJCd8AAAVCI8WNl95C+X+v8bfaQCAFCf8EB2wgMAUInwYKV30vt/OFq/E32oAgBQm/BAdsIDAFCJ8GDlN6bpG6IPVQAAahMeyE54AAAqER6s/G48/vinjPX0luhjFQCAuoQHshMeAIBKhAfbi5209tmj9Q9HH6wAANQkPJCd8AAAVCI82N5sM42/En2wAgBQk/BAdsIDAFCJ8GB7sydWq8fGNP1I9NEKAEA9wgPZCQ8AQCXCg+3VNq1dG62/L/pwBQCgFuGB7IQHAKAS4cH2bnPvr48+XAEAqEV4IDvhAQCoRHiwfdyVpfe/H328AgBQh/BAdsIDAFCJ8GB7uVcdHb180/q7og9YAABqEB7ITngAACoRHmxvN7f2pdEHLAAANQgPZCc8AACVCA+21xu9f3v0EQsAQH7CA9kJDwBAJcKD7fVu3rz5gtGnt0UfsgAA5CY8kJ3wAABUIjzY3m+73n7eaP1O9DELAEBewgPZCQ8AQCXCgx3Exjz/9ehjFgCAvIQHshMeAIBKhAc7iC3L8pyl938ZfdACAJCT8EB2wgMAUInwYAezcTSWpU+/E33UAgCQj/BAdsIDAFCJ8GAHtW3vfy76qAUAIB/hgeyEBwCgEuHBDm5za98WfdgCAJCL8EB2wgMAUInwYAe3Wy+59amjTz8XfdwCAJCH8EB2wgMAUInwYAe5sV6fLn36QPSBCwBADsID2QkPAEAlwoMd7Lat/eXoAxcAgByEB7ITHgCASoQHO+Rdmafpu6OPXAAA4gkPZCc8AACVCA920FuW5SVL6++IPnQBAIglPJCd8AAAVCI82MFv6f0Pj9Y/HH3sAgAQR3ggO+EBAKhEeDBbrVbLNP7b6GMXAIA4wgPZCQ8AQCXCg9lqtXpitXpstPmfRR+8AADEEB7ITngAACoRHsw+ujHG1U3r74o+egEAuHzCA9kJDwBAJcKD2cdtM89fFH30AgBw+YQHshMeAIBKhAezp2ys578VffgCAHC5hAeyEx4AgEqEB7On7NatW88dbf6x6OMXAIDLIzyQnfAAAFQiPJg9w65du9aW1n8j+gAGAOByCA9kJzwAAJUID2Z32Wa9+eOj9TvRRzAAALsnPJCd8AAAVCI8mN1j23l+Y/QRDADA7gkPZCc8AACVCA9m996jo7V/FH0IAwCwW8ID2QkPAEAlwoPZfTZN0+NL6++IPoYBANgd4YHshAcAoBLhwewMO2nts5c+fTD6IAYAYDeEB7ITHgCASoQHszNus+5fHX0QAwCwG8ID2QkPAEAlwoPZ2Xdl9P6d0UcxAAAXT3ggO+EBAKhEeDB7gB0fHz9v9Onnog9jAAAulvBAdsIDAFCJ8GD2gJum6cZo/b3RxzEAABdHeCA74QEAqER4MHuILdP0ZdHHMQAAF0d4IDvhAQCoRHgwe8htev+m6AMZAICLITyQnfAAAFQiPJg95G7duvXcpfUfjz6SAQA4P+GB7IQHAKAS4cHsHBtHYxl9enf0oQwAwPkID2QnPAAAlQgPZufc8dXlNaP1J6OPZQAAHp7wQHbCAwBQifBgdgHbTONroo9lAAAenvBAdsIDAFCJ8GB2MbuyTNN3RB/MAAA8HOGB7IQHAKAS4cHsgnbrJbc+dUzTT0cfzQAAPDjhgeyEBwCgEuHB7AJ3cnLSl9Z+PfpwBgDgwQgPZCc8AACVCA9mF7ztevt5S2sfij6eAQA4O+GB7IQHAKAS4cFsBxvT+Kro4xkAgLMTHshOeAAAKhEezHa0Te/fHH1AAwBwNsID2QkPAEAlwoPZjnbr1q3njmn6kegjGgCA+xMeyE54AAAqER7Mdrh5ntejT++MPqQBALg34YHshAcAoBLhwWzHO16v/72lTx+IPqYBALg74YHshAcAoBLhwewStp2mr4w+pgEAuDvhgeyEBwCgEuHB7JK2tPaN0Qc1AADPTHggO+EBAKhEeDC7pJ2enj5rTNMPRB/VAAA8nfBAdsIDAFCJ8GB2ibt+/frLltbeHn1YAwDwiYQHshMeAIBKhAezS9523v7B0fr7oo9rAAA+RnggO+EBAKhEeDAL2Gaev2i0/mT0gQ0AwEcID2QnPAAAlQgPZkHbtvZfRB/YAAB8hPBAdsIDAFCJ8GAWuKW1b4w+sgEAEB7IT3gAACoRHswCd3p6+qyl9++PPrQBAA6d8EB2wgMAUInwYBa8o6OjF4719JboYxsA4JAJD2QnPAAAlQgPZgl2fHx8PFr/zeiDGwDgUAkPZCc8AACVCA9mSbbZbF699OkD0Uc3AMAhEh7ITngAACoRHswSbZ7n10Uf3QAAh0h4IDvhAQCoRHgwS7ZNa38t+vAGADg0wgPZCQ8AQCXCg1m+PbL0/n9GH98AAIdEeCA74QEAqER4MEu4o6OjT9qspx+OPsABAA6F8EB2wgMAUInwYJZ0165d+/RlPf1y9BEOAHAIhAeyEx4AgEqEB7PEW1r7zLn190Qf4gAA+054IDvhAQCoRHgwS74xxheM1p+MPsYBAPaZ8EB2wgMAUInwYFZg8zx/RfQxDgCwz4QHshMeAIBKhAezItvO8xujD3IAgH0lPJCd8AAAVCI8mNXZlbGevjX6KAcA2EfCA9kJDwBAJcKDWaGdnp4+a15P/zD6MAcA2DfCA9kJDwBAJcKDWbEdHx8/b+n9X0Yf5wAA+0R4IDvhAQCoRHgwK7hr1659+uj9F6MPdACAfSE8kJ3wAABUIjyYFd04GsvSp1+LPtIBAPaB8EB2wgMAUInwYFZ40zT9O6P190Yf6gAA1QkPZCc8AACVCA9mxbdM0+eP1j8cfawDAFQmPJCd8AAAVCI8mO3BNr3/J9HHOgBAZcID2QkPAEAlwoPZnmxe9/8u+mAHAKhKeCA74QEAqER4MNufXRnr/i3RRzsAQEXCA9kJDwBAJcKD2R7t9PT0Wct6+gfRhzsAQDXCA9kJDwBAJcKD2Z7t+Pj4eUvrPx59vAMAVCI8kJ3wAABUIjyY7eGuX7/+srGe3hJ9wAMAVCE8kJ3wAABUIjyY7enGGFdHn34p+ogHAKhAeCA74QEAqER4MNvjzfO8GX361ehDHgAgO+GB7IQHAKAS4cFsz7fdbl81ev+t6GMeACAz4YHshAcAoBLhwewANsb4Q3Pr74k+6AEAshIeyE54AAAqER7MDmTLNH3+0qcPRh/1AAAZCQ9kJzwAAJUID2YHtLm1Lx2tPxl92AMAZCM8kJ3wAABUIjyYHdjmef5Pow97AIBshAeyEx4AgEqEB7MD3Gjtv4w+7gEAMhEeyE54AAAqER7MDnSjtb8afeADAGQhPJCd8AAAVCI8mB3uriytfWP0kQ8AkIHwQHbCAwBQifBgdth7dJmm74g+9AEAogkPZCc8AACVCA9mB77bt28/e/T+vdHHPgBAJOGB7IQHAKAS4cHMVqenp588pukHog9+AIAowgPZCQ8AQCXCg5mtVqvV6ubNmy8Ybf6x6KMfACCC8EB2wgMAUInwYGa/P/EBADhUwgPZCQ8AQCXCg5l9wrbb7YvHNP109PEPAHCZhAeyEx4AgEqEBzN72pZlecnS+r+KfgAAALgswgPZCQ8AQCXCg5k9427cuPHSpfc3Rz8CAABcBuGB7IQHAKAS4cHM7rpXHR29fGn9rdEPAQAAuyY8kJ3wAABUIjyY2T03xri6tP4L0Y8BAAC7JDyQnfAAAFQiPJjZfTfP83r0/ovRDwIAALsiPJCd8AAAVCI8mNmZdu3atTb69EvRjwIAALsgPJCd8AAAVCI8mNmZN8/zZmn9HdEPAwAAF014IDvhAQCoRHgwswfaycnJdrT+K9GPAwAAF0l4IDvhAQCoRHgwswfedrs9GX361egHAgCAiyI8kJ3wAABUIjyY2UNtmqYbS+u/Ef1IAABwEYQHshMeAIBKhAcze+iN9fp0tP6b0Q8FAADnJTyQnfAAAFQiPJjZubbZbG4urf169GMBAMB5CA9kJzwAAJUID2Z27m1auzZ8cBoAKEx4IDvhAQCoRHgwswvZdrs9WVp/R/SjAQDAwxAeyE54AAAqER7M7MJ2cnKyXVp7e/TDAQDAgxIeyE54AAAqER7M7EJ37dq1trT+C9GPBwAAD0J4IDvhAQCoRHgwswvfPM/rpbWfj35AAAA4K+GB7IQHAKAS4cHMdrLr16+/bGn9Z6MfEQAAzkJ4IDvhAQCoRHgws51tmqbHR2s/E/2QAABwP8ID2QkPAEAlwoOZ7XQ3btx46ejTT0U/JgAA3IvwQHbCAwBQifBgZjvfer3+A5v19MPRDwoAAHcjPJCd8AAAVCI8mNml7ObNmy9Yev8X0Y8KAADPRHggO+EBAKhEeDCzS9utl9z61KX3fxL9sAAA8FTCA9kJDwBAJcKDmV3qbjz++KeMNn9f9OMCAMDHEx7ITngAACoRHszs0nd6evrJo/fvjX5gAAD4PcID2QkPAEAlwoOZhez27dvPHr1/e/QjAwDAaMID+QkPAEAlwoOZRe7KZt3/h+iHBgAA4YHshAcAoBLhwczCN6/7G6IfGwCAwyY8kJ3wAABUIjyYWYqN9fjPRutPRj86AACHSXggO+EBAKhEeDCzNNuulz+7tPah6IcHAODwCA9kJzwAAJUID2aWasdXl9eM3t8f/fgAABwW4YHshAcAoBLhwczS7WRZbi19+u3oBwgA4HAID2QnPAAAlQgPZpZy89X5s5bWfj36EQIAOAzCA9kJDwBAJcKDmaXdprVrS2tvj36IAAD2n/BAdsIDAFCJ8GBmqXft2rU2+vR/Rz9GAAD7TXggO+EBAKhEeDCz9Jum6fG595+IfpAAAPaX8EB2wgMAUInwYGYldvPmzReM1n4w+lECANhPwgPZCQ8AQCXCg5mV2enp6SfP0/Td0Q8TAMD+ER7ITngAACoRHsys2h6dp/l/jH6cAAD2i/BAdsIDAFCJ8GBmJTf3/vrR+p3oRwoAYD8ID2QnPAAAlQgPZlZ22/XyZ5c+fSD6oQIAqE94IDvhAQCoRHgws9I7HuNzRp/eHf1YAQDUJjyQnfAAAFQiPJhZ+V0b1z5jae3t0Q8WAEBdwgPZCQ8AQCXCg5ntxV51dPTyTZ9+MvrRAgCoSXggO+EBAKhEeDCzvdl6vf4DS5/+afTDBQBQj/BAdsIDAFCJ8GBme7VlWZ4zev/26McLAKAW4YHshAcAoBLhwcz2cVe28/zG6AcMAKAO4YHshAcAoBLhwcz2dnPvrx+tPxn9kAEA5Cc8kJ3wAABUIjyY2V5v29oXjtbfF/2YAQDkJjyQnfAAAFQiPJjZ3m+z2bx6tP6b0Q8aAEBewgPZCQ8AQCXCg5kdxMbRWEaffi76UQMAyEl4IDvhAQCoRHgws4PZ0dHRC5fevz/6YQMAyEd4IDvhAQCoRHgws4PaE6vVY5ve/6foxw0AIBfhgeyEBwCgEuHBzA5yc++vH60/Gf3IAQDkIDyQnfAAAFQiPJjZwW5u7Y8tffrt6IcOACCe8EB2wgMAUInwYGYHvWmabow+vS36sQMAiCU8kJ3wAABUIjyY2cHv2rVrnz6m6UeiHzwAgDjCA9kJDwBAJcKDmdlqtbp169ZzN73/r9GPHgBADOGB7IQHAKAS4cHM7GO7sp3nJ0brd6IfPwCAyyU8kJ3wAABUIjyYmT1lo/c/NXp/f/QDCABweYQHshMeAIBKhAczs2fYSWufPfr0zuhHEADgcggPZCc8AACVCA9mZnfZjePjaWn9Z6MfQgCA3RMeyE54AAAqER7MzO6xeZ4/bfT+96IfQwCA3RIeyE54AAAqER7MzO6/K/O6v2G0/mT0owgAsBvCA9kJDwBAJcKDmdkZt0zT548+vTv6YQQAuHjCA9kJDwBAJcKDmdkD7Pj4+HjT+7+OfhwBAC6W8EB2wgMAUInwYGb2gFuW5fnLNP3d6AcSAODiCA9kJzwAAJUID2ZmD7cr23l+YrR+J/qhBAA4P+GB7IQHAKAS4cHM7Bw7npYvmVt/T/RjCQBwPsID2QkPAEAlwoOZ2Tk3TdONpfVfiH4wAQAenvBAdsIDAFCJ8GBmdgE7Ojp64Waa3hT9aAIAPBzhgeyEBwCgEuHBzOzi9uh2nt84fPcBAMoRHshOeAAAKhEezMwueNsx/vRo/b3RDygAwNkJD2QnPAAAlQgPZmY72Ha7fdXc+v8T/YgCAJyN8EB2wgMAUInwYGa2o2232xf77gMA1CA8kJ3wAABUIjyYme12V+Z1f8No/cnoBxUA4O6EB7ITHgCASoQHM7NL2Gjtj4w+/Wr0owoA8MyEB7ITHgCASoQHM7NL2vLy5Whp/f+KflgBAJ5OeCA74QEAqER4MDO7xD2xWj22nec3jtbvRD+wAAAfIzyQnfAAAFQiPJiZBey49z8xev+t6EcWAOAjhAeyEx4AgEqEBzOzoM3zvNn06SejH1oAAOGB/IQHAKAS4cHMLHC3bt167pimb4h+bAGAQyc8kJ3wAABUIjyYmSXYmMZrR+vvjX50AYBDJTyQnfAAAFQiPJiZJdmyXr9i6f3N0Q8vAHCIhAeyEx4AgEqEBzOzRDs+Pn7eMk3fEf34AgCHRnggO+EBAKhEeDAzS7ixHl++9OkD0Y8wAHAohAeyEx4AgEqEBzOzpJuvzp+1tPbz0Q8xAHAIhAeyEx4AgEqEBzOzxDs+Pn7e3Nq3RT/GAMC+Ex7ITngAACoRHszMCmxM47VLa78b/SgDAPtKeCA74QEAqER4MDMrspOTk+3S+o9HP8wAwD4SHshOeAAAKhEezMwK7fT09FnbeX5itP5k9AMNAOwT4YHshAcAoBLhwcys4Lbr7eeN1n8l+pEGAPaF8EB2wgMAUInwYGZWdDdu3Hjp6P17ox9qAGAfCA9kJzwAAJUID2ZmtXdl7v31S58+EP1gAwCVCQ9kJzwAAJUID2Zme7D56vxZS2s/H/1oAwBVCQ9kJzwAAJUID2Zme7Lj4+Pnza19W/TDDQBUJDyQnfAAAFQiPJiZ7dnGNF67tPa70Q84AFCJ8EB2wgMAUInwYGa2hzs5Odlu1tMPRz/iAEAVwgPZCQ8AQCXCg5nZnu6J1eqxed3f4MPTAHB/wgPZCQ8AQCXCg5nZnm+aphujTz8V/aADAJkJD2QnPAAAlQgPZmYHsFu3bj13O89vHK0/Gf2wAwAZCQ9kJzwAAJUID2ZmB7R5vf7cZT39cvTjDgBkIzyQnfAAAFQiPJiZHdjmef60MU3fEP3AAwCZCA9kJzwAAJUID2ZmB7plPX3x0tqvRz/0AEAGwgPZCQ8AQCXCg5nZAW+apsfnafru6MceAIgmPJCd8AAAVCI8mJnZakzjtUtrvxv96AMAUYQHshMeAIBKhAczM1utVqvVjePjaUzTD0Q//ABABOGB7IQHAKAS4cHMzD5+j87r/oalTx+IfgACgMskPJCd8AAAVCI8mJnZ07bZbG7Ovf9E9CMQAFwW4YHshAcAoBLhwczMnnFPrFaPffTXD/9f9GMQAOya8EB2wgMAUInwYGZm99wrluX63Kcfin4QAoBdEh7ITngAACoRHszM7Cx7ZKzHl8+tvyf6YQgAdkF4IDvhAUZ0wTwAABF6SURBVACoRHgwM7Mz75Xr9bz0/v3Rj0MAcNGEB7ITHgCASoQHMzN70F0Z6/HlS59+J/qRCAAuivBAdsIDAFCJ8GBmZg+1k5OTvpmmN0U/FAHARRAeyE54AAAqER7MzOxcW9bT7U3r74p+MAKA8xAeyE54AAAqER7MzOzcu379+stG798V/WgE/397d/ei+XnXcXyyaWrTB2s06bZx5nc9zm9msmQaelOtmuK2bEGoOREGpAeLB2UVPFjwoHtU2CNdD1exsiIo6xNslSALPQmlKrF6sFKkBFu1DaVP2lZJm6ZtsrJ40E27Cdl0s5mZ67ru+/WG1x9xfz/87gvgdhke6J3hAQAYieFBkrRv1Snt1RC+3vp4BACvlOGB3hkeAICRGB4kSftaSuloDuGjrQ9IAPBKGB7oneEBABiJ4UGSdCDlnN9fYnyy9SEJAG6F4YHeGR4AgJEYHiRJB9ZisXj9nPPZGtOzrQ9KAPByDA/0zvAAAIzE8CBJOvBSSrs1xk+2PioBwM0YHuid4QEAGInhQZJ0WN1RUjlZQ/xG6+MSALyY4YHeGR4AgJEYHiRJh9qxY8feWkO42PrABAA3MjzQO8MDADASw4MkqUklhPeUmD7T+tAEACUYHuif4QEAGInhQZLUrPX19buvPz79vdYHJwBWm+GB3hkeAICRGB4kSc3b3t6eS4gfb310AmB1GR7oneEBABiJ4UGS1EvXH58OX299fAJg9Rge6J3hAQAYieFBktRV6+vrP1lSulBCvNb6CAXA6jA80DvDAwAwEsODJKnLaoy/WGL619aHKABWg+GB3hkeAICRGB4kST13xN8vAXAYDA/0zvAAAIzE8CBJ6r7rf790voT4f60PUwAsJ8MDvTM8AAAjMTxIkoZpp9Z3lJAfb32cAmD5GB7oneEBABiJ4UGSNFp3lFROlhi/2vpIBcDyMDzQO8MDADASw4Mkach2jx59w5zz2RrT91ofqwAYn+GB3hkeAICRGB4kSUO3vb09lxg/1vpgBcDYDA/0zvAAAIzE8CBJWopqSo/kED/f+nAFwJgMD/TO8AAAjMTwIElamtbX1+/OUzxTQ3i69QELgLEYHuid4QEAGInhQZK0dO3s7ITNkP+69RELgHEYHuid4QEAGInhQZK0tNVa31VCfrz1MQuA/hke6J3hAQAYieFBkrTs3VGntOf9BwBejuGB3hkeAICRGB4kSSvR3t7ea3OMp0tMT7U+bgHQH8MDvTM8AAAjMTxIklaq7e3tn5pzPldjerb1kQuAfhge6J3hAQAYieFBkrSSbW9vzzWlS60PXQD0wfBA7wwPAMBIDA+SpJWuhPCeGuK/tD54AdCW4YHeGR4AgJEYHiRJuv4AdYnxydaHLwDaMDzQO8MDADASw4MkSddbLBavz1M8U2P6ZusDGACHy/BA7wwPAMBIDA+SJL2oeZ7vLSmdryFcbX0IA+BwGB7oneEBABiJ4UGSpJv0QK3HaoyPlhCvtT6IAXCwDA/0zvAAAIzE8CBJ0o8opfQzJYTHWh/FADg4hgd6Z3gAAEZieJAk6RbLOT9cUvqH1scxAPaf4YHeGR4AgJEYHiRJeoXN03wix/ip1kcyAPaP4YHeGR4AgJEYHiRJur2O1Cnt1RD+o/WxDIBXz/BA7wwPAMBIDA+SJL2KFovFXWUqp2qIX259NAPg9hke6J3hAQAYieFBkqR9aLFYvD7HeLrE9N+tj2cAvHKGB3pneAAARmJ4kCRpH9va2npTnuKZGtM3Wx/RALh1hgd6Z3gAAEZieJAk6QCa5/neOedzJcbvtj6mAfCjGR7oneEBABiJ4UGSpANsZ2cnlJQu1JiebX1UA+DmDA/0zvAAAIzE8CBJ0iGUc55KSud9AQHQJ8MDvTM8AAAjMTxIknSIlVI2SkrnS4jfaX1kA+CHDA/0zvAAAIzE8CBJUoN2d3ffMud8rhggALpgeKB3hgcAYCSGB0mSGnbDAPFM66MbwCozPNA7wwMAMBLDgyRJHVRrvc8AAdCO4YHeGR4AgJEYHiRJ6qjrA8TZGtM3Wx/hAFaJ4YHeGR4AgJEYHiRJ6rB5nu+dcz5bYnqq9TEOYBUYHuid4QEAGInhQZKkjpvn+d55ir9TY/pW66McwDIzPNA7wwMAMBLDgyRJA7S1tfWmHOPpGuKXWh/nAJaR4YHeGR4AgJEYHiRJGqi9vb3XllROlpg+0/pIB7BMDA/0zvAAAIzE8CBJ0pgdqSk9kmP659bHOoBlYHigd4YHAGAkhgdJkgYv5/zwZgiXS4jXWh/uAEZleKB3hgcAYCSGB0mSlqR5nt9eQ7hYQ7ja+oAHMBrDA70zPAAAIzE8SJK0ZO1ubaWS0vkS4ndaH/IARmF4oHeGBwBgJIYHSZKWtN3d3bfMOZ/dDPF/Wh/0AHpneKB3hgcAYCSGB0mSlrzj9x1/Y47xdA3hi60PewC9MjzQO8MDADASw4MkSSvS3t7ea+uU9mqMn2x94APojeGB3hkeAICRGB4kSVrByjQtPEQN8EOGB3pneAAARmJ4kCRphdva2LjfOxAAhgf6Z3gAAEZieJAkSWvH7zv+xjKVUzXEJ1of/wBaMDzQO8MDADASw4MkSbqxO+ZpPrEZwuUS4rXWh0CAw2J4oHeGBwBgJIYHSZL0kuWcN0tK53OI3259EAQ4aIYHemd4AABGYniQJEkvW875zTnG0yWmL7Q+DAIcFMMDvTM8AAAjMTxIkqRbarFY3DWX8qs1xn9qfSAE2G+GB3pneAAARmJ4kCRJr7jNEHZKSudrCE+3PhYC7AfDA70zPAAAIzE8SJKk225ra+tNZSqncoyfan00BHg1DA/0zvAAAIzE8CBJkvalMk2LktKFEuIzrQ+IAK+U4YHeGR4AgJEYHiRJ0r6Wc35zmcqpEsKnWx8SAW6V4YHeGR4AgJEYHiRJ0oFVpmlRQ7hYY3qu9VER4OUYHuid4QEAGInhQZIkHXgppaN5imdyiJ9vfVwEeCmGB3pneAAARmJ4kCRJh9mReZpP1JQu1RCutj40AjzP8EDvDA8AwEgMD5IkqUk552kzlQ/XEP+z9cERwPBA7wwPAMBIDA+SJKl5ZZoWJaULNYSnWx8fgdVkeKB3hgcAYCSGB0mS1E3r6+t31yntlRAeKyFea32IBFaH4YHeGR4AgJEYHiRJUpflnKc8xTMlxidbHySB5Wd4oHeGBwBgJIYHSZLUe99/kDqEiyXEZ1ofJ4HlZHigd4YHAGAkhgdJkjRMOec3l6mcKiE/3vpICSwXwwO9MzwAACMxPEiSpCHbDGFnzvlciem/Wh8sgfEZHuid4QEAGInhQZIkDd1isbgr5/z+zZD/vIbwdOvjJTAmwwO9MzwAACMxPEiSpKXp+PHjr6spPVJTulRjerb1IRMYh+GB3hkeAICRGB4kSdJS9tBDD/1ESeXkZgiXawhXWx81gb4ZHuid4QEAGInhQZIkLX1vX1//6RzjaY9SAzdjeKB3hgcAYCSGB0mStFJtb2/HPMUzJabPtD50Av0wPNA7wwMAMBLDgyRJWtkeqPXYnPO5GuKXWx89gbYMD/TO8AAAjMTwIEmStLZ2ZKuU99YQ/qjG9LXWB1Dg8Bke6J3hAQAYieFBkiTphR3JOT9cUjpfQ/xS62MocDgMD/TO8AAAjMTwIEmS9DJd/zumsyWmz7Y+jAIHx/BA7wwPAMBIDA+SJEm32PMjRA3xidZHUmB/GR7oneEBABiJ4UGSJOk2enCaco7xdAn58RLitdZHU+DVMTzQO8MDADASw4MkSdKrbHt7OxohYGyGB3pneAAARmJ4kCRJ2sdKKRvfHyHix2tMz7U+pgK3xvBA7wwPAMBIDA+SJEkH1O7Ro2+oKT1SUrpQQvxK68MqcHOGB3pneAAARmJ4kCRJOpyOlGlazDmfLSFfKf6SCbpieKB3hgcAYCSGB0mSpAbt7u6+paRysqZ0qcb0rdZHV1h1hgd6Z3gAAEZieJAkSWrc+vr63fM0nygpnS8xfaH1ARZWkeGB3hkeAICRGB4kSZI664Faj+UpnikhPFZDuNr6IAurwPBA7wwPAMBIDA+SJEkdV2u9L4fwgTLFP6khfqn1cRaWleGB3hkeAICRGB4kSZIG6sFpymUqp2pKl0pMT7U+1sKyMDzQO8MDADASw4MkSdK43VmmafGDv2WK6bnWx1sYleGB3hkeAICRGB4kSZKWpOP3HX/jPM0n5pzPlZCvtD7kwkgMD/TO8AAAjMTwIEmStKTt7Oy8raRysqZ0qYb4jdaHXeiZ4YHeGR4AgJEYHiRJklajO+c8v3Nzih/aDOGy9yHghQwP9M7wAACMxPAgSZK0mh15oNZjZSqnaggXawhfbH34hZYMD/TO8AAAjMTwIEmSpLW1tbW1B6cpl1ROlpQulBifbH0IhsNkeKB3hgcAYCSGB0mSJL1kWxsb99cp7ZWULtQQn2h9GIaDZHigd4YHAGAkhgdJkiTdUseOHXvr9SHifAn5SgnxWutjMewXwwO9MzwAACMxPEiSJOm2qrX+eM754TzFM5shXK4hfL318Rhul+GB3hkeAICRGB4kSZK0b93wTsT5EvLjNaZnWx+U4VYYHuid4QEAGInhQZIkSQfW7tGjb8g5P5xjPF1DuJhD/HzrAzO8FMMDvTM8AAAjMTxIkiTpUNva2Li/pvTInPPZEsJjJcRnWh+dwfBA7wwPAMBIDA+SJElq2mKxuGun1nfMKX0wp/wHNcR/zCF+u/UhmtVieKB3hgcAYCSGB0mSJHXZjV9GbIZwucT41dbHaZaX4YHeGR4AgJEYHiRJkjRMWxsb98/TfOL5NyNqiE+UEK+1PlozPsMDvTM8AAAjMTxIkiRp6KZpumerlPfOIfxWDuHPSgifriFcbX3IZiyGB3pneAAARmJ4kCRJ0tK1WCzuenCack3pkTzFMzWEiyXkKyXG77Y+cNMnwwO9MzwAACMxPEiSJGllOru29pqXHCRC/E7rwzeGB3g5hgcAYCSGB0mSJK18Z28+SDzT+iCO4QF+9i8MDwDAWAwPkiRJ0s27M+e8mXN+//UHrX+/xPixMqV/rzE91/pYjuGB1WF4AABGYniQJEmSbrOtjY3752k+UaZyas75XE3pUgn5Sg3h6daHdAwPLBfDAwAwEsODJEmSdABN03RPmaZFndLeCx+4Tk+1PrJjeGA8hgcAYCSGB0mSJOmQW19fv/vBacrzNJ8oqZzMUzxTUrpQQnishviELyYMD/BihgcAYCSGB0mSJKnDpmm654Faj73gr5xCuHh9nPhcDeFq62P9MjE80DvDAwAwEsODJEmSNGBn19ZeU0rZ2JqmX8gh/Mqc0m/OOZ/djPEjNcZHS8iPl5g+W2P6Vuuj/ggMD/TO8AAAjMTwIEmSJC15tdYf29rYuP8HX1CkcjLHePr5ryg2Q7hcQr5SQvzKqn5JYXigd4YHAGAkhgdJkiRJN3bnPM/3lvVS5zy/M6X0vjqlvTKVU5tT/FCe4m9vxviREuNflhg/VmP85GaM/1Zi/GqJ8butBwTDA8vK8AAAjMTwIEmSJGnfOn78+OuOHTv21nmet2ut7yql/FKd0t6c0gdzzr+Rp3hmM5UPzzmf2wzh90pKF0qMf5VD+GgJ4bEa09+VkK98/5Ht+Lka09dKiP9reGDVGR4AgJEYHiRJkiQN0dm1tddM03TPzs7O2x6cpnyjeZ7fXqZpcaO0kd49T/OJG21Om79cp7R3oxzCB37+D3/37M/97Z/+MfTq+N//za+/+xOP/hoAwAje94lHH2r9+0GSJEmSJEmSJEmSJEmSJEmSJEmSJEmSJEmSJEmSJEmSJEmSJEmSJEmSJEmSJEmSJEmSJEmSJEmSJEmSJEmSJEmSJEmSJEmSJEmSJEmSJEmSJEmSJEmSJEmSJEmSJEmSJEmSJEmSJEmSJEmSJEmSJEmSJEmSJEmSJEmSJEmSJEmSJEmSJEmSJEmSXtT/AwVcPHhXiYNhAAAAAElFTkSuQmCC;" parent="1" vertex="1">
          <mxGeometry x="613" y="373" width="62.69" height="70" as="geometry" />
        </mxCell>
        <mxCell id="tc2cRqG1eZlLA8XT75nJ-36" value="&lt;font style=&quot;font-size: 30px&quot; face=&quot;Verdana&quot;&gt;Logstash&lt;/font&gt;" style="text;html=1;strokeColor=none;fillColor=none;align=center;verticalAlign=middle;whiteSpace=wrap;rounded=0;dashed=1;labelBorderColor=none;fontFamily=Verdana;fontSize=16;" parent="1" vertex="1">
          <mxGeometry x="728" y="403" width="60" height="30" as="geometry" />
        </mxCell>
        <mxCell id="QxIThn4V1b4HbERtiuYh-7" style="edgeStyle=orthogonalEdgeStyle;rounded=0;orthogonalLoop=1;jettySize=auto;html=1;dashed=1;dashPattern=1 4;fontFamily=Verdana;fontSize=18;endSize=18;strokeWidth=3;" edge="1" parent="1" source="tc2cRqG1eZlLA8XT75nJ-38">
          <mxGeometry relative="1" as="geometry">
            <mxPoint x="446" y="520" as="targetPoint" />
            <Array as="points">
              <mxPoint x="310" y="700" />
              <mxPoint x="310" y="520" />
            </Array>
          </mxGeometry>
        </mxCell>
        <mxCell id="tc2cRqG1eZlLA8XT75nJ-38" value="&lt;font style=&quot;font-size: 18px&quot;&gt;Others&lt;/font&gt;" style="html=1;verticalLabelPosition=bottom;align=center;labelBackgroundColor=#ffffff;verticalAlign=top;strokeWidth=2;strokeColor=#0080F0;shadow=0;dashed=0;shape=mxgraph.ios7.icons.data;labelBorderColor=none;fontFamily=Verdana;fontSize=30;" parent="1" vertex="1">
          <mxGeometry x="54.25" y="610" width="141.5" height="180" as="geometry" />
        </mxCell>
        <mxCell id="QxIThn4V1b4HbERtiuYh-3" value="Elasticsearch" style="text;html=1;strokeColor=none;fillColor=none;align=center;verticalAlign=middle;whiteSpace=wrap;rounded=0;dashed=1;labelBorderColor=none;fontFamily=Verdana;fontSize=18;" vertex="1" parent="1">
          <mxGeometry x="1210" y="596.25" width="60" height="30" as="geometry" />
        </mxCell>
        <mxCell id="QxIThn4V1b4HbERtiuYh-9" value="" style="shape=image;html=1;verticalAlign=top;verticalLabelPosition=bottom;labelBackgroundColor=#ffffff;imageAspect=0;aspect=fixed;image=https://cdn0.iconfinder.com/data/icons/shape-1/20/cylinder-128.png;dashed=1;labelBorderColor=none;fontFamily=Verdana;fontSize=18;strokeColor=#000000;strokeWidth=2;direction=east;rotation=30;" vertex="1" parent="1">
          <mxGeometry x="475.86" y="440" width="160" height="160" as="geometry" />
        </mxCell>
        <mxCell id="QxIThn4V1b4HbERtiuYh-11" value="" style="shape=image;html=1;verticalAlign=top;verticalLabelPosition=bottom;labelBackgroundColor=#ffffff;imageAspect=0;aspect=fixed;image=https://cdn0.iconfinder.com/data/icons/shape-1/20/cylinder-128.png;dashed=1;labelBorderColor=none;fontFamily=Verdana;fontSize=18;strokeColor=#000000;strokeWidth=2;direction=east;rotation=30;" vertex="1" parent="1">
          <mxGeometry x="842.03" y="445" width="150" height="150" as="geometry" />
        </mxCell>
        <mxCell id="QxIThn4V1b4HbERtiuYh-13" value="INPUT PIPE" style="text;html=1;strokeColor=none;fillColor=none;align=center;verticalAlign=middle;whiteSpace=wrap;rounded=0;dashed=1;labelBorderColor=none;fontFamily=Verdana;fontSize=18;" vertex="1" parent="1">
          <mxGeometry x="525.86" y="580" width="60" height="30" as="geometry" />
        </mxCell>
        <mxCell id="QxIThn4V1b4HbERtiuYh-14" value="&lt;div&gt;OUTPUT&lt;/div&gt;&lt;div&gt;PIPE&lt;br&gt;&lt;/div&gt;" style="text;html=1;strokeColor=none;fillColor=none;align=center;verticalAlign=middle;whiteSpace=wrap;rounded=0;dashed=1;labelBorderColor=none;fontFamily=Verdana;fontSize=18;" vertex="1" parent="1">
          <mxGeometry x="898" y="580" width="60" height="30" as="geometry" />
        </mxCell>
        <mxCell id="QxIThn4V1b4HbERtiuYh-15" value="FILTER" style="aspect=fixed;perimeter=ellipsePerimeter;html=1;align=center;shadow=0;dashed=0;spacingTop=3;image;image=img/lib/active_directory/input_output_filter.svg;labelBorderColor=none;fontFamily=Verdana;fontSize=18;strokeColor=#000000;strokeWidth=2;" vertex="1" parent="1">
          <mxGeometry x="682" y="451" width="103.85" height="155" as="geometry" />
        </mxCell>
        <mxCell id="QxIThn4V1b4HbERtiuYh-16" value="" style="endArrow=classic;html=1;rounded=0;fontFamily=Verdana;fontSize=18;endSize=18;strokeWidth=3;entryX=0.173;entryY=0.542;entryDx=0;entryDy=0;entryPerimeter=0;" edge="1" parent="1">
          <mxGeometry width="50" height="50" relative="1" as="geometry">
            <mxPoint x="624.69" y="524" as="sourcePoint" />
            <mxPoint x="698.96605" y="524.01" as="targetPoint" />
          </mxGeometry>
        </mxCell>
        <mxCell id="QxIThn4V1b4HbERtiuYh-17" value="" style="endArrow=classic;html=1;rounded=0;fontFamily=Verdana;fontSize=18;endSize=18;strokeWidth=3;entryX=0.173;entryY=0.542;entryDx=0;entryDy=0;entryPerimeter=0;" edge="1" parent="1">
          <mxGeometry width="50" height="50" relative="1" as="geometry">
            <mxPoint x="781.69" y="528" as="sourcePoint" />
            <mxPoint x="855.96605" y="528.01" as="targetPoint" />
          </mxGeometry>
        </mxCell>
        <mxCell id="QxIThn4V1b4HbERtiuYh-19" value="&lt;span style=&quot;background-color: rgb(255 , 230 , 0)&quot;&gt;&lt;font style=&quot;font-size: 30px&quot;&gt;SEARCH AND ANALYSE DATA&lt;/font&gt;&lt;/span&gt;" style="text;whiteSpace=wrap;html=1;fontSize=30;fontFamily=Verdana;" vertex="1" parent="1">
          <mxGeometry x="1021" y="670" width="440" height="50" as="geometry" />
        </mxCell>
        <mxCell id="QxIThn4V1b4HbERtiuYh-20" value="&lt;span style=&quot;background-color: rgb(255 , 230 , 0)&quot;&gt;&lt;font style=&quot;font-size: 30px&quot;&gt;STORE DATA&lt;/font&gt;&lt;/span&gt;" style="text;whiteSpace=wrap;html=1;fontSize=30;fontFamily=Verdana;" vertex="1" parent="1">
          <mxGeometry x="27" y="860" width="200" height="50" as="geometry" />
        </mxCell>
        <mxCell id="QxIThn4V1b4HbERtiuYh-21" value="&lt;span style=&quot;background-color: rgb(255 , 230 , 0)&quot;&gt;&lt;font style=&quot;font-size: 30px&quot;&gt;PARSE AND TRANSFORM DATA&lt;/font&gt;&lt;/span&gt;" style="text;whiteSpace=wrap;html=1;fontSize=30;fontFamily=Verdana;" vertex="1" parent="1">
          <mxGeometry x="480" y="670" width="480" height="50" as="geometry" />
        </mxCell>
      </root>
    </mxGraphModel>
  </diagram>
</mxfile>
